<svg width="318" height="77" viewBox="0 0 318 77" fill="none" xmlns="http://www.w3.org/2000/svg">
<g clip-path="url(#clip0_1031_2456)">
<path d="M124.101 35.7969C127.904 34.5338 131.774 33.5233 135.506 32.0075C141.857 29.4013 144.947 24.9593 145.026 18.9553C145.118 12.0207 142.142 8.36609 136.212 8.16399C134.597 8.11347 132.983 8.16399 131.347 8.16399C131.921 0.0589495 131.928 -0.185252 138.061 0.101056C143.447 0.353681 148.907 0.715772 154.16 1.99153C159.414 3.26728 163.505 6.95561 164.011 13.8691C164.514 20.6984 161.78 25.8982 156.68 28.896C152.111 31.5823 147.214 33.5275 141.807 36.0832C151.074 39.1358 152.973 47.0598 152.656 56.4995C152.613 57.7626 152.521 59.2068 152.981 60.2426C153.586 61.611 154.581 63.3498 155.664 63.6488C156.819 63.9646 158.786 63.2656 159.521 62.1878C165.936 52.7901 172.266 43.3251 178.36 33.6496C184.034 24.6309 189.63 15.4985 194.798 6.063C197.293 1.53681 200.094 -0.130516 204.556 0.298946C209.189 0.74525 213.883 0.399992 218.955 0.399992C219.368 7.52822 219.75 14.0249 220.156 20.9636L229.904 23.793C233.767 17.8985 237.281 12.5891 240.721 7.23349C245.999 -0.972597 253.256 -0.218938 261.364 0.703142C255.316 10.7534 249.613 20.2184 247.172 31.5023C256.171 32.8707 263.032 39.7421 271.717 42.6304C275.142 35.4727 276.208 27.6835 274.604 19.6542C273.403 13.6375 270.463 12.0755 262.38 11.9155C261.332 8.75766 261.556 6.56824 264.931 5.42301C269.436 3.89884 273.767 1.63364 278.3 0.282101C280.15 -0.269463 282.723 -0.0210489 284.302 1.12418C292.175 6.80824 294.196 15.7511 293.298 25.8856C292.585 34.0959 289.545 41.2368 284.512 48.1418C294.306 51.6491 302.967 51.1733 311.057 44.3525C312.954 42.7567 315.063 39.0853 317.32 42.5588C319.458 45.8724 315.997 47.7166 314.265 49.4976C302.372 61.7078 288.518 64.853 273.225 61.6194C270.905 61.131 268.349 61.7036 265.969 62.2088C262.96 62.8488 260.056 64.1246 257.058 64.7814C246.263 67.1392 236.886 61.7373 231.736 50.3607C228.699 43.6535 228.699 43.6535 221.671 42.8704V64.0783H205.647C205.23 56.2637 204.795 48.1334 204.364 40.0789C194.634 38.4958 183.746 43.8683 179.629 53.6449C175.908 62.4867 171.264 67.2318 162.522 64.8698C161.035 64.4488 159.171 65.6824 157.532 66.3561C154.991 67.4045 152.578 68.9834 149.98 69.7244C144.088 71.3707 139.127 68.8823 136.172 62.752C134.683 59.6573 133.877 56.1164 132.712 52.8028C131.051 48.0913 129.607 43.1609 124.372 42.1967C123.909 42.1125 123.659 40.5799 123.281 39.721L124.101 35.7969ZM203.002 12.126L201.541 11.5492L195.625 21.351L196.32 22.252L203.601 20.1468C203.384 17.229 203.195 14.6775 203.002 12.126Z" fill="#49BF30"/>
<path d="M16.9828 76.8274C16.3769 73.9264 16.7083 72.217 19.3956 71.5307C22.9279 70.6601 26.395 69.4548 29.7635 67.9266C34.0404 65.9392 37.6721 62.8235 39.7179 57.7121C42.701 50.2428 40.7087 43.6704 34.2899 40.5041C31.9946 39.3715 29.4926 38.82 26.9372 37.9232C26.1139 33.5654 27.8532 32.117 31.3816 31.5149C34.7628 30.9787 38.0562 29.8432 41.1507 28.1466C45.2636 25.8056 46.8532 21.351 46.2188 16.5638C45.5844 11.7765 42.5442 9.90709 39.0301 9.16185C35.7226 8.45871 32.3154 8.39556 28.5767 8.01241C24.6562 27.1698 20.889 45.6198 17.0647 64.3351H0C4.32677 42.9336 8.55375 22.0625 12.8128 0.938915C14.2028 0.741026 15.4181 0.421039 16.6335 0.416828C27.1261 0.378934 37.6187 0.307355 48.1113 0.467351C50.7772 0.505245 53.5893 0.837873 56.0698 1.89469C65.65 5.97879 67.3715 18.5553 59.4379 26.0835C57.6559 27.7887 55.4497 28.9466 53.379 30.2139C50.5277 31.9612 47.6052 33.5822 44.0839 35.6032C47.0991 36.8874 49.43 37.7926 51.7181 38.8747C57.2567 41.5146 59.0672 45.3419 58.3437 52.348C57.7414 58.15 55.1681 62.6214 51.5898 66.4066C45.5772 72.7601 38.2638 75.7453 30.4228 76.7263C25.9749 77.2779 21.445 76.8274 16.9828 76.8274Z" fill="#49BF30"/>
<path d="M124.1 35.797L123.28 39.6874C121.812 45.7041 120.333 51.7207 118.885 57.7458C118.397 59.7753 118.002 61.8299 117.406 64.6046H100.174L104.162 44.0157L103.414 43.5947C101.001 46.963 98.6559 50.3776 96.161 53.6449C91.7808 59.3837 87.0976 64.592 80.2368 66.053C71.8149 67.8592 65.004 61.9731 64.5335 51.9102C64.3832 48.1092 64.6637 44.3016 65.3675 40.5884C67.8053 27.3635 70.4926 14.206 73.1372 0.749512H90.6759C90.095 4.02942 89.6067 7.03566 89.0222 10.0124C87.1226 19.4816 85.0697 28.9087 83.3197 38.4116C82.6568 41.9863 81.1813 46.4662 84.7026 48.8324C88.0777 51.106 91.5919 48.9545 94.0226 46.003C97.0057 42.3863 100.064 38.4958 101.938 34.0581C105.763 24.9846 108.835 15.4733 112.181 6.12199C112.795 4.40414 113.233 2.60208 113.778 0.753713H130.454C128.512 10.4377 126.616 19.6753 124.83 28.9382C124.388 31.1866 124.328 33.5233 124.1 35.797Z" fill="#49BF30"/>
<path d="M305.152 13.0943C303.799 13.0921 302.501 12.4563 301.544 11.3262C300.587 10.1961 300.048 8.66379 300.045 7.06502C300.047 5.46552 300.586 3.93215 301.543 2.80113C302.5 1.67011 303.798 1.03372 305.152 1.03149C306.506 1.03372 307.803 1.67025 308.76 2.80139C309.717 3.93253 310.255 5.4659 310.256 7.06502C310.254 8.66341 309.716 10.1957 308.759 11.3259C307.802 12.4561 306.505 13.0921 305.152 13.0943ZM305.152 2.31988C304.087 2.32099 303.066 2.82128 302.313 3.71093C301.56 4.60057 301.136 5.80687 301.136 7.06502C301.138 8.32132 301.563 9.52502 302.316 10.4122C303.069 11.2993 304.089 11.7975 305.152 11.7975C306.217 11.7964 307.237 11.2967 307.99 10.408C308.743 9.51923 309.167 8.31401 309.169 7.05659C309.166 5.79991 308.742 4.59577 307.989 3.70795C307.236 2.82012 306.216 2.32099 305.152 2.31988Z" fill="#49BF30"/>
<path d="M302.853 2.22302C303.506 2.08459 304.168 2.01834 304.831 2.02513C305.929 2.02513 306.642 2.26091 307.137 2.79563C307.344 3.02376 307.507 3.30147 307.615 3.61011C307.723 3.91876 307.774 4.25118 307.764 4.58506C307.77 5.12468 307.626 5.65159 307.354 6.08558C307.083 6.51958 306.699 6.83688 306.26 6.9892V7.0313C306.877 7.27972 307.244 7.95339 307.433 8.9302C307.572 9.81355 307.778 10.6802 308.05 11.5196H306.98C306.743 10.7903 306.564 10.0361 306.446 9.26703C306.211 7.96601 305.786 7.47762 304.849 7.43551H303.88V11.5196H302.85L302.853 2.22302ZM303.883 6.51343H304.952C306.054 6.51343 306.734 5.80187 306.734 4.72401C306.734 3.5072 305.99 2.97669 304.899 2.95984C304.558 2.94935 304.217 2.98752 303.883 3.07352V6.51343Z" fill="#49BF30"/>
</g>
<defs>
<clipPath id="clip0_1031_2456">
<rect width="318" height="77" fill="white"/>
</clipPath>
</defs>
</svg>
