<svg width="319" height="113" viewBox="0 0 319 113" fill="none" xmlns="http://www.w3.org/2000/svg">
<path d="M244.493 95.5124C245.167 95.5124 245.841 95.5124 246.523 95.5124C246.929 95.5124 247.091 95.6748 247.087 96.0888C247.087 97.4812 247.087 98.8777 247.087 100.274C247.087 100.534 247.087 100.798 247.087 101.054C247.08 101.282 247.16 101.504 247.31 101.675C247.461 101.846 247.672 101.954 247.899 101.975C248.157 102.008 248.418 102.019 248.678 102.008H259.586C260.04 102.05 260.498 101.985 260.922 101.817C261.121 101.742 261.294 101.61 261.418 101.438C261.542 101.265 261.613 101.059 261.62 100.847C261.619 100.634 261.558 100.426 261.445 100.246C261.331 100.066 261.17 99.9208 260.979 99.8276C260.628 99.6524 260.236 99.5766 259.846 99.6084C258.628 99.6084 257.378 99.6084 256.144 99.6084C255.445 99.6084 255.437 99.6084 255.421 98.9183C255.421 98.3743 255.421 97.8344 255.421 97.2377C256.233 97.7451 256.233 97.7451 257.293 97.7492C258.352 97.7532 259.367 97.7492 260.406 97.7492C262.399 97.7735 263.56 99.2187 263.175 101.196C263.091 101.41 263.062 101.641 263.089 101.87C263.305 102.056 263.573 101.975 263.82 101.979C265.379 101.979 266.938 101.979 268.497 101.979C269.577 101.979 269.796 101.744 269.836 100.66C269.889 99.3364 269.889 99.3324 271.208 99.3405C271.594 99.2996 271.983 99.3201 272.361 99.4014C272.52 99.6815 272.248 99.8073 272.154 99.9859C272.032 100.175 271.927 100.375 271.842 100.583C271.517 101.691 271.777 102.032 272.918 102.036C274.347 102.036 275.759 102.036 277.204 102.036C278.369 102.036 278.69 101.687 278.698 100.506C278.698 99.2065 278.698 97.9075 278.698 96.6084C278.698 95.8534 278.698 95.8534 279.437 95.8331C279.6 95.8331 279.762 95.8331 279.924 95.8331C280.387 95.7965 280.558 95.9955 280.553 96.4582C280.553 97.6761 280.553 98.9264 280.553 100.161C280.545 100.484 280.557 100.808 280.59 101.131C280.687 101.849 281.093 102.215 281.739 102.194C282.049 102.202 282.35 102.089 282.577 101.878C282.805 101.667 282.941 101.376 282.957 101.066C282.997 100.128 282.957 99.1862 282.957 98.2444C282.957 97.6274 282.957 97.0266 282.957 96.3933C282.957 95.9873 283.07 95.7844 283.505 95.8047C284.02 95.825 284.54 95.8047 285.181 95.8047C284.633 96.645 284.775 97.5097 284.775 98.354C284.775 99.3933 284.796 100.437 284.775 101.472C284.731 102.905 284.089 103.501 282.652 103.534C282.101 103.509 281.55 103.518 281 103.562C280.436 103.648 280.022 103.096 279.575 103.213C279.099 103.407 278.594 103.52 278.081 103.546C277.984 103.546 277.886 103.546 277.789 103.546H247.883C245.962 103.546 244.964 102.539 244.956 100.603C244.956 99.4988 244.956 98.3946 244.956 97.2904C244.956 96.6896 244.956 96.1254 244.371 95.7275L244.493 95.5124Z" fill="#00AAE7"/>
<path d="M236.415 100.818C236.415 101.533 236.415 102.247 236.415 102.958C236.415 103.363 236.273 103.534 235.851 103.53C234.633 103.53 233.386 103.53 232.156 103.53C231.828 103.54 231.506 103.442 231.239 103.25C230.228 102.511 230.021 101.46 230.163 100.307C230.202 99.8475 230.384 99.412 230.683 99.0616C230.982 98.7113 231.384 98.4638 231.832 98.354C233.228 97.9725 234.673 98.2038 236.09 98.1835C236.411 98.1835 236.411 98.4474 236.411 98.6788L236.415 100.818ZM234.454 100.818V100.376C234.454 99.6003 234.454 99.6003 233.642 99.6044C233.481 99.5921 233.32 99.5921 233.159 99.6044C232.9 99.6212 232.655 99.731 232.47 99.9137C232.285 100.096 232.172 100.34 232.152 100.599C232.142 100.862 232.215 101.121 232.361 101.34C232.506 101.558 232.718 101.725 232.964 101.817C233.389 101.988 233.863 101.988 234.288 101.817C234.669 101.602 234.385 101.106 234.466 100.79L234.454 100.818Z" fill="#00AAE7"/>
<path d="M209.646 104.987V99.8195C209.646 99.5394 209.78 99.4136 210.052 99.4136C211.77 99.4136 213.483 99.377 215.2 99.4136C215.596 99.4131 215.979 99.5507 216.285 99.8026C216.59 100.055 216.798 100.405 216.872 100.794C217.108 101.671 217.051 102.543 216.32 103.23C216.077 103.451 215.756 103.569 215.427 103.558C214.615 103.558 213.803 103.558 212.992 103.579C212.586 103.579 212.407 103.441 212.423 103.014C212.448 102.434 212.423 101.849 212.423 101.269C212.423 100.757 212.078 100.826 211.761 100.814C211.445 100.802 211.185 100.859 211.201 101.277C211.218 101.695 211.201 102.186 211.201 102.637C211.218 103.778 210.913 104.269 209.646 104.987ZM213.824 101.646C213.824 102.458 213.868 102.527 214.274 102.527C214.395 102.538 214.517 102.522 214.631 102.48C214.745 102.439 214.848 102.373 214.934 102.288C215.021 102.203 215.087 102.1 215.129 101.986C215.172 101.872 215.189 101.751 215.18 101.63C215.18 101.515 215.157 101.401 215.11 101.296C215.064 101.191 214.995 101.097 214.91 101.02C214.824 100.944 214.723 100.886 214.614 100.851C214.504 100.816 214.389 100.805 214.274 100.818C213.592 100.843 213.885 101.354 213.824 101.646Z" fill="#00AAE7"/>
<path d="M199.359 104.906V102.876C199.359 101.906 199.359 100.932 199.359 99.9616C199.359 99.5557 199.473 99.3771 199.907 99.3811C201.462 99.3811 203.017 99.3202 204.572 99.3608C206.334 99.4095 207.275 101.139 206.435 102.706C206.32 102.958 206.134 103.171 205.899 103.319C205.665 103.466 205.393 103.543 205.116 103.538C204.304 103.538 203.492 103.538 202.68 103.538C202.242 103.538 202.116 103.359 202.128 102.958C202.148 102.405 202.128 101.853 202.128 101.305C202.148 100.859 201.929 100.761 201.539 100.769C201.15 100.778 200.894 100.769 200.918 101.269C200.943 101.768 200.918 102.243 200.918 102.726C200.922 103.765 200.516 104.354 199.359 104.906ZM203.512 101.626C203.512 102.438 203.553 102.503 203.967 102.507C204.088 102.521 204.21 102.508 204.325 102.468C204.44 102.429 204.544 102.364 204.631 102.278C204.717 102.193 204.783 102.089 204.824 101.975C204.866 101.861 204.88 101.739 204.868 101.618C204.87 101.505 204.847 101.394 204.802 101.291C204.756 101.188 204.69 101.096 204.606 101.021C204.522 100.946 204.423 100.89 204.316 100.856C204.208 100.823 204.095 100.812 203.983 100.826C203.317 100.826 203.573 101.33 203.533 101.626H203.512Z" fill="#00AAE7"/>
<path d="M244.5 97.4975C243.745 98.2282 243.773 98.967 243.798 99.7099C243.798 100.225 243.826 100.745 243.798 101.265C243.688 102.998 242.641 103.635 241.382 103.55C240.319 103.481 239.247 103.55 238.179 103.55C237.501 103.55 237.469 103.502 237.473 102.844C237.477 102.186 237.473 102.186 238.22 102.174C239.032 102.174 239.844 102.174 240.656 102.15C241.679 102.105 241.873 101.878 241.873 100.843C241.873 99.9373 241.894 99.0279 241.873 98.1227C241.873 97.6639 242.024 97.4813 242.49 97.5056C243.055 97.5178 243.639 97.4975 244.5 97.4975Z" fill="#00AAE7"/>
<path d="M222.041 98.7884C222.67 99.1944 223.36 99.0198 224.026 99.032C225.768 99.0645 226.795 100.453 226.303 102.142C226.217 102.526 226.005 102.871 225.701 103.121C225.396 103.371 225.017 103.512 224.623 103.522C223.23 103.558 221.834 103.522 220.437 103.522C219.893 103.522 219.91 103.205 219.897 102.824C219.885 102.442 219.979 102.162 220.482 102.17C221.7 102.198 222.885 102.17 224.083 102.17C224.749 102.17 225.025 101.959 225.073 101.492C225.081 101.362 225.063 101.232 225.02 101.109C224.976 100.986 224.909 100.873 224.822 100.776C224.735 100.679 224.629 100.601 224.511 100.546C224.393 100.49 224.266 100.459 224.136 100.453C223.584 100.422 223.031 100.422 222.479 100.453C222.118 100.453 221.931 100.339 221.964 99.9535C221.933 99.5635 221.959 99.171 222.041 98.7884Z" fill="#00AAE7"/>
<path d="M269.147 97.1362C269.307 97.1443 269.467 97.1443 269.626 97.1362C270.085 97.0834 270.243 97.2783 270.251 97.737C270.259 98.1957 270.024 98.3378 269.602 98.3094C269.281 98.2891 268.96 98.3094 268.64 98.3094C268.027 98.3094 267.876 98.0821 267.986 97.4731C267.989 97.4242 268.002 97.3763 268.024 97.3327C268.047 97.2891 268.078 97.2508 268.117 97.2201C268.155 97.1895 268.199 97.1673 268.247 97.1549C268.294 97.1426 268.344 97.1403 268.392 97.1484H269.163L269.147 97.1362Z" fill="#00AAE7"/>
<path d="M232.696 96.5963C232.566 96.5963 232.44 96.5963 232.315 96.5963C231.909 96.6328 231.746 96.4623 231.758 96.0442C231.771 95.6261 231.791 95.3338 232.311 95.3784C232.534 95.3947 232.757 95.3947 232.98 95.3784C233.614 95.346 233.679 95.3784 233.67 96.1903C233.67 96.4704 233.545 96.5963 233.265 96.5963H232.692H232.696Z" fill="#00AAE7"/>
<path d="M258.084 105.698C257.309 105.698 257.195 105.56 257.272 104.886C257.309 104.598 257.459 104.508 257.719 104.508C257.979 104.508 258.299 104.508 258.584 104.508C259.095 104.46 259.164 104.748 259.156 105.158C259.148 105.568 259.03 105.702 258.653 105.681C258.47 105.686 258.275 105.694 258.084 105.698Z" fill="#00AAE7"/>
<path d="M222.811 98.2891C222.681 98.2891 222.552 98.2891 222.426 98.2891C221.999 98.3297 221.866 98.1186 221.878 97.7208C221.89 97.323 221.93 97.0794 222.393 97.1159C222.649 97.1382 222.905 97.1382 223.161 97.1159C223.64 97.0713 223.757 97.3027 223.757 97.7411C223.757 98.1795 223.603 98.3297 223.193 98.2932C223.067 98.281 222.937 98.2891 222.811 98.2891Z" fill="#00AAE7"/>
<path d="M235.444 96.5354C235.315 96.5354 235.189 96.5354 235.059 96.5354C234.653 96.5638 234.482 96.4136 234.486 95.9874C234.49 95.5611 234.568 95.2932 235.067 95.346C235.29 95.346 235.513 95.346 235.741 95.346C236.354 95.3663 236.496 95.5611 236.398 96.1822C236.397 96.2299 236.387 96.2768 236.367 96.3202C236.347 96.3636 236.319 96.4024 236.283 96.4344C236.248 96.4663 236.206 96.4907 236.161 96.5059C236.116 96.5212 236.068 96.5271 236.021 96.5232H235.444V96.5354Z" fill="#00AAE7"/>
<path d="M271.873 98.2891C271.114 98.2891 270.997 98.1632 271.09 97.5015C271.118 97.2904 271.183 97.1402 271.423 97.1321H271.902C272.661 97.1321 272.689 97.1605 272.685 97.7329C272.681 98.3053 272.661 98.2931 271.873 98.2891Z" fill="#00AAE7"/>
<path d="M207.998 103.538C207.255 103.538 207.129 103.437 207.186 102.953C207.214 102.722 207.32 102.604 207.547 102.6C207.774 102.596 208.063 102.6 208.318 102.6C208.574 102.6 208.879 102.6 208.895 103.043C208.911 103.485 208.639 103.566 208.282 103.546L207.998 103.538Z" fill="#00AAE7"/>
<path d="M217.947 103.522C217.277 103.522 217.172 103.428 217.204 102.966C217.225 102.69 217.346 102.56 217.61 102.56C217.874 102.56 218.061 102.56 218.284 102.56C218.65 102.56 218.897 102.604 218.881 103.071C218.865 103.538 218.641 103.538 218.321 103.522H217.947Z" fill="#00AAE7"/>
<path d="M186.841 81.779C188.381 83.319 189.369 85.2285 190.598 87.0765C191.331 85.0345 192.031 83.091 192.727 81.1476C193.423 79.2042 194.131 77.2084 194.839 75.2403C195.046 74.6643 195.052 74.6643 195.68 74.6613H198.043C198.748 74.6613 198.751 74.6613 198.967 75.305L202.33 84.9174L203.106 87.1473C203.212 87.3431 203.241 87.5719 203.186 87.7879C202.182 87.7879 201.153 87.7879 200.128 87.7879C199.863 87.7879 199.82 87.6062 199.755 87.4122C199.579 86.8239 199.41 86.2326 199.231 85.6443C199.053 85.056 199.053 85.056 198.492 85.053C197.412 85.053 196.329 85.053 195.243 85.053C194.679 85.053 194.676 85.053 194.498 85.6412C194.319 86.2295 194.119 86.8116 193.955 87.403C193.939 87.5234 193.875 87.6323 193.778 87.7056C193.681 87.779 193.559 87.8108 193.438 87.7941C191.518 87.7941 189.598 87.8033 187.679 87.8218C187.543 87.8284 187.41 87.7904 187.299 87.7136C187.187 87.6368 187.104 87.5254 187.063 87.3968C186.537 86.312 185.918 85.2743 185.215 84.2953C184.956 83.938 184.669 83.5992 184.38 83.2635C184.247 83.0845 184.053 82.9597 183.835 82.9124C183.123 82.7861 182.969 82.9124 182.966 83.6331C182.966 84.8374 182.966 86.0447 182.966 87.252C182.966 87.7695 182.966 87.7787 182.433 87.7849C181.67 87.7849 180.893 87.7849 180.145 87.7849C179.865 87.7849 179.729 87.6832 179.748 87.3968C179.748 87.249 179.748 87.0888 179.748 86.9533V75.4374C179.748 75.2896 179.748 75.1294 179.748 74.9939C179.729 74.6859 179.886 74.612 180.154 74.6181C180.549 74.6181 180.943 74.6181 181.337 74.6181H185.252C185.968 74.612 186.678 74.7623 187.331 75.0586C188.643 75.6561 189.354 76.6694 189.351 78.1385C189.348 79.6076 188.753 80.8057 187.411 81.5418C187.254 81.6219 187.063 81.6866 186.841 81.779ZM182.932 78.6221C182.926 78.7442 182.926 78.8665 182.932 78.9886C182.979 79.4444 182.723 80.0265 183.053 80.3253C183.382 80.624 183.946 80.4269 184.402 80.4177C184.848 80.4129 185.274 80.2347 185.591 79.9208C185.908 79.6069 186.09 79.1819 186.099 78.736C186.179 77.732 185.64 77.0205 184.639 76.8881C184.2 76.8515 183.76 76.8381 183.32 76.848C183.037 76.848 182.923 76.962 182.929 77.2392C182.939 77.6919 182.932 78.157 182.932 78.6221ZM198.246 82.318C197.895 80.7048 197.439 79.1163 196.881 77.5626C196.346 79.1549 195.807 80.7472 195.243 82.4227H197.605C197.824 82.4551 198.047 82.4219 198.246 82.3272V82.318Z" fill="#00AAE7"/>
<path d="M186.37 67.3169L185.191 64.3579C186.516 63.8956 187.587 63.387 188.404 62.8322C189.236 62.2774 189.845 61.6841 190.23 61.0522C190.631 60.4203 190.831 59.7654 190.831 59.0873C190.831 58.6557 190.77 58.2088 190.647 57.7465C190.523 57.2687 190.346 56.7678 190.115 56.2439C189.899 55.7199 189.637 55.1728 189.329 54.6026L192.357 53.1462C192.897 54.1787 193.313 55.1651 193.606 56.1052C193.914 57.0453 194.068 57.9237 194.068 58.7405C194.068 59.4957 193.968 60.22 193.767 60.9135C193.582 61.607 193.29 62.2543 192.889 62.8553C192.504 63.4718 192.003 64.0497 191.386 64.5891C190.77 65.1285 190.045 65.6217 189.213 66.0686C188.381 66.5309 187.433 66.947 186.37 67.3169ZM202.787 62.1156C201.354 62.1156 200.244 61.9692 199.458 61.6764C198.688 61.3835 198.148 60.9289 197.84 60.3125C197.532 59.6806 197.355 58.8869 197.308 57.9314L196.823 45.0783H200.059L200.545 56.3826C200.576 57.0915 200.653 57.6232 200.776 57.9776C200.899 58.3321 201.13 58.571 201.469 58.6943C201.824 58.8176 202.34 58.8792 203.018 58.8792C203.604 58.8792 204.02 59.0333 204.267 59.3415C204.529 59.6344 204.66 60.0042 204.66 60.4512C204.66 60.9289 204.498 61.3296 204.174 61.6532C203.85 61.9615 203.388 62.1156 202.787 62.1156ZM202.819 62.1156L203.05 58.8792C203.605 58.8792 204.082 58.8253 204.483 58.7174C204.884 58.6095 205.223 58.3937 205.5 58.0701C205.778 57.7311 206.009 57.2379 206.194 56.5906C206.394 55.9433 206.571 55.0803 206.725 54.0015L209.754 54.5101C209.723 54.7413 209.677 55.011 209.615 55.3192C209.569 55.6274 209.522 55.9433 209.476 56.267C209.445 56.5752 209.43 56.868 209.43 57.1454C209.43 57.4228 209.484 57.6694 209.592 57.8852C209.7 58.1009 209.869 58.2859 210.1 58.44C210.347 58.5787 210.663 58.6866 211.048 58.7636C211.449 58.8407 211.934 58.8792 212.505 58.8792C213.09 58.8792 213.506 59.0333 213.753 59.3415C213.999 59.6344 214.123 60.0042 214.123 60.4512C214.123 60.9289 213.961 61.3296 213.637 61.6532C213.329 61.9615 212.874 62.1156 212.273 62.1156C211.58 62.1156 210.948 62.0616 210.378 61.9538C209.823 61.8459 209.338 61.6687 208.921 61.4221C208.521 61.1601 208.189 60.821 207.927 60.4049C207.681 59.9734 207.527 59.4494 207.465 58.833H208.575C208.297 59.5727 207.943 60.166 207.511 60.613C207.095 61.0445 206.625 61.3681 206.101 61.5839C205.577 61.7997 205.03 61.9384 204.46 62C203.905 62.0771 203.358 62.1156 202.819 62.1156ZM210.239 51.921C209.792 51.921 209.407 51.7669 209.083 51.4586C208.775 51.135 208.621 50.7574 208.621 50.3259C208.621 49.879 208.775 49.4937 209.083 49.1701C209.407 48.8464 209.792 48.6846 210.239 48.6846C210.671 48.6846 211.04 48.8464 211.349 49.1701C211.657 49.4937 211.811 49.879 211.811 50.3259C211.811 50.7574 211.657 51.135 211.349 51.4586C211.04 51.7669 210.671 51.921 210.239 51.921ZM206.24 51.8979C205.793 51.8979 205.408 51.7437 205.084 51.4355C204.776 51.1119 204.622 50.7343 204.622 50.3028C204.622 49.8559 204.776 49.4706 205.084 49.1469C205.408 48.8233 205.793 48.6615 206.24 48.6615C206.671 48.6615 207.041 48.8233 207.349 49.1469C207.658 49.4706 207.812 49.8559 207.812 50.3028C207.812 50.7343 207.658 51.1119 207.349 51.4355C207.041 51.7437 206.671 51.8979 206.24 51.8979ZM212.278 62.1156L212.509 58.8792C213.017 58.8792 213.433 58.8407 213.757 58.7636C214.081 58.6711 214.343 58.4785 214.543 58.1857C214.759 57.8775 214.944 57.4228 215.098 56.8218C215.267 56.2053 215.452 55.3731 215.653 54.3251L218.658 54.88C218.612 55.1111 218.558 55.3808 218.496 55.6891C218.434 55.9973 218.38 56.3132 218.334 56.6369C218.288 56.9451 218.265 57.2225 218.265 57.4691C218.265 57.9006 218.404 58.2473 218.681 58.5093C218.958 58.7559 219.482 58.8792 220.253 58.8792C220.638 58.8792 220.97 58.8407 221.247 58.7636C221.54 58.6711 221.786 58.4785 221.987 58.1857C222.202 57.8775 222.387 57.4074 222.542 56.7756C222.711 56.1283 222.873 55.2575 223.027 54.1633L226.078 54.6488C226.017 55.0032 225.955 55.3808 225.893 55.7815C225.832 56.1822 225.778 56.5521 225.732 56.8911C225.685 57.2302 225.662 57.5076 225.662 57.7234C225.662 57.9237 225.716 58.1163 225.824 58.3013C225.947 58.4708 226.163 58.6095 226.471 58.7174C226.795 58.8253 227.25 58.8792 227.835 58.8792C228.251 58.8792 228.606 58.8253 228.899 58.7174C229.207 58.6095 229.438 58.4323 229.592 58.1857C229.762 57.9391 229.846 57.6155 229.846 57.2148C229.846 56.6446 229.715 55.8971 229.453 54.9724C229.192 54.0477 228.883 53.0768 228.529 52.0597L231.788 51.0888C232.035 51.7515 232.251 52.4604 232.436 53.2155C232.636 53.9553 232.79 54.6796 232.898 55.3885C233.021 56.082 233.083 56.6908 233.083 57.2148C233.083 58.0008 232.96 58.702 232.713 59.3184C232.466 59.9195 232.12 60.428 231.673 60.8441C231.226 61.2603 230.694 61.5762 230.078 61.7919C229.461 62.0077 228.783 62.1156 228.043 62.1156C227.149 62.1156 226.417 62.0308 225.847 61.8613C225.277 61.6764 224.838 61.3758 224.53 60.9597C224.237 60.5282 224.044 59.9426 223.952 59.2028H224.738C224.414 60.1121 224.052 60.7748 223.651 61.1909C223.25 61.5916 222.773 61.8459 222.218 61.9538C221.678 62.0616 221 62.1156 220.184 62.1156C219.675 62.1156 219.151 62.0616 218.612 61.9538C218.088 61.8305 217.618 61.5531 217.201 61.1216C216.785 60.69 216.477 60.0196 216.277 59.1104L217.525 59.0641C217.201 59.9734 216.778 60.6438 216.254 61.0753C215.745 61.5068 215.159 61.7919 214.497 61.9306C213.834 62.0539 213.094 62.1156 212.278 62.1156ZM251.161 66.346C250.128 66.346 249.157 66.2304 248.248 65.9992C247.354 65.7835 246.56 65.4367 245.867 64.959C245.189 64.4966 244.657 63.8879 244.272 63.1327C243.886 62.393 243.694 61.4991 243.694 60.4512C243.694 60.0967 243.717 59.696 243.763 59.2491C243.825 58.8021 243.948 58.2705 244.133 57.654C244.318 57.0221 244.603 56.2901 244.988 55.4579L247.809 56.5444C247.577 57.0992 247.4 57.5692 247.277 57.9545C247.154 58.3244 247.061 58.6634 246.999 58.9717C246.953 59.2645 246.93 59.5727 246.93 59.8964C246.93 60.4049 247.038 60.8596 247.254 61.2603C247.485 61.661 247.801 62 248.202 62.2774C248.618 62.5548 249.119 62.7629 249.704 62.9016C250.305 63.0403 250.976 63.1096 251.715 63.1096C252.671 63.1096 253.503 63.048 254.212 62.9247C254.921 62.8168 255.514 62.655 255.992 62.4392C256.485 62.2389 256.878 61.9923 257.171 61.6995C257.464 61.4067 257.672 61.0907 257.795 60.7517C257.949 60.351 258.049 59.9349 258.096 59.5034C258.157 59.0564 258.188 58.5479 258.188 57.9776C258.188 57.2995 258.126 56.7216 258.003 56.2439C257.895 55.7507 257.726 55.3731 257.495 55.1111C257.263 54.8491 256.978 54.7181 256.639 54.7181C256.362 54.7181 256.108 54.8106 255.876 54.9955C255.661 55.1805 255.491 55.4116 255.368 55.6891C255.245 55.951 255.183 56.2207 255.183 56.4981C255.183 56.7293 255.237 56.922 255.345 57.0761C255.468 57.2302 255.645 57.3535 255.876 57.4459C256.108 57.523 256.393 57.5615 256.732 57.5615C257.071 57.5615 257.448 57.523 257.864 57.4459C258.281 57.3535 258.65 57.2148 258.974 57.0298L259.205 59.827C258.835 60.1198 258.335 60.3433 257.703 60.4974C257.086 60.6361 256.508 60.7054 255.969 60.7054C255.168 60.7054 254.466 60.5976 253.865 60.3818C253.28 60.1506 252.825 59.7731 252.501 59.2491C252.178 58.7251 252.016 58.0162 252.016 57.1223C252.016 56.475 252.131 55.8278 252.363 55.1805C252.594 54.5178 252.917 53.909 253.334 53.3542C253.75 52.7994 254.251 52.3602 254.836 52.0366C255.422 51.6975 256.069 51.528 256.778 51.528C257.78 51.528 258.62 51.8208 259.298 52.4064C259.991 52.9767 260.515 53.7395 260.87 54.695C261.24 55.6351 261.425 56.66 261.425 57.7696C261.425 58.8021 261.317 59.7114 261.101 60.4974C260.901 61.268 260.639 61.9538 260.315 62.5548C259.93 63.2329 259.444 63.8108 258.859 64.2886C258.288 64.7817 257.618 65.1747 256.847 65.4676C256.092 65.7758 255.237 65.9992 254.281 66.1379C253.326 66.2766 252.286 66.346 251.161 66.346ZM258.835 49.4243C258.388 49.4243 258.003 49.2702 257.68 48.962C257.371 48.6384 257.217 48.2608 257.217 47.8293C257.217 47.3823 257.371 46.9971 257.68 46.6734C258.003 46.3498 258.388 46.188 258.835 46.188C259.267 46.188 259.637 46.3498 259.945 46.6734C260.253 46.9971 260.407 47.3823 260.407 47.8293C260.407 48.2608 260.253 48.6384 259.945 48.962C259.637 49.2702 259.267 49.4243 258.835 49.4243ZM254.836 49.4012C254.389 49.4012 254.004 49.2471 253.68 48.9389C253.372 48.6152 253.218 48.2377 253.218 47.8061C253.218 47.3592 253.372 46.9739 253.68 46.6503C254.004 46.3267 254.389 46.1648 254.836 46.1648C255.268 46.1648 255.638 46.3267 255.946 46.6503C256.254 46.9739 256.408 47.3592 256.408 47.8061C256.408 48.2377 256.254 48.6152 255.946 48.9389C255.638 49.2471 255.268 49.4012 254.836 49.4012ZM264.176 62L263.691 45.0783H266.927L267.413 62H264.176ZM268.431 67.34L267.252 64.4735C268.069 64.1961 268.816 63.8725 269.494 63.5026C270.188 63.1327 270.789 62.7243 271.297 62.2774C271.806 61.8305 272.199 61.345 272.476 60.821C272.754 60.2816 272.892 59.7037 272.892 59.0873C272.892 58.44 272.746 57.7311 272.453 56.9605C272.16 56.1899 271.806 55.4039 271.39 54.6026L274.418 53.1462C274.695 53.6239 274.934 54.1402 275.135 54.695C275.35 55.2344 275.528 55.7199 275.666 56.1514C275.805 56.5829 275.898 56.8757 275.944 57.0298C276.16 57.7696 276.452 58.2627 276.822 58.5093C277.208 58.7559 277.824 58.8792 278.672 58.8792C279.257 58.8792 279.673 59.0333 279.92 59.3415C280.182 59.6344 280.313 60.0042 280.313 60.4512C280.313 60.9289 280.151 61.3296 279.827 61.6532C279.504 61.9615 279.041 62.1156 278.44 62.1156C277.809 62.1156 277.254 62.0231 276.776 61.8382C276.298 61.6532 275.913 61.3835 275.62 61.0291C275.343 60.6746 275.166 60.2585 275.088 59.7808L275.944 60.2662C275.851 61.083 275.582 61.8536 275.135 62.5779C274.703 63.3177 274.141 63.9958 273.447 64.6122C272.754 65.2287 271.975 65.7681 271.112 66.2304C270.249 66.6928 269.355 67.0626 268.431 67.34ZM278.468 62.1156L278.699 58.8792C279.285 58.8792 279.747 58.8253 280.086 58.7174C280.441 58.6095 280.718 58.3937 280.918 58.0701C281.134 57.7311 281.311 57.2379 281.45 56.5906C281.604 55.9433 281.758 55.0803 281.913 54.0015L284.941 54.5101C284.91 54.7413 284.864 55.011 284.802 55.3192C284.756 55.6274 284.71 55.9433 284.663 56.267C284.633 56.5752 284.617 56.868 284.617 57.1454C284.617 57.5153 284.694 57.8312 284.848 58.0932C285.018 58.3398 285.311 58.5324 285.727 58.6711C286.158 58.8099 286.775 58.8792 287.576 58.8792C288.162 58.8792 288.578 59.0333 288.825 59.3415C289.071 59.6344 289.194 60.0042 289.194 60.4512C289.194 60.9289 289.033 61.3296 288.709 61.6532C288.401 61.9615 287.946 62.1156 287.345 62.1156C286.282 62.1156 285.419 62.0154 284.756 61.8151C284.093 61.6147 283.6 61.2757 283.276 60.7979C282.953 60.3202 282.745 59.6652 282.652 58.833H283.762C283.484 59.5727 283.161 60.166 282.791 60.613C282.421 61.0445 282.005 61.3681 281.543 61.5839C281.08 61.7997 280.587 61.9384 280.063 62C279.555 62.0771 279.023 62.1156 278.468 62.1156ZM282.583 67.4325C282.136 67.4325 281.751 67.2784 281.427 66.9702C281.119 66.6619 280.965 66.2844 280.965 65.8374C280.965 65.3905 281.119 64.9975 281.427 64.6585C281.751 64.3348 282.136 64.173 282.583 64.173C283.03 64.173 283.407 64.3348 283.716 64.6585C284.039 64.9975 284.201 65.3905 284.201 65.8374C284.201 66.2844 284.039 66.6619 283.716 66.9702C283.407 67.2784 283.03 67.4325 282.583 67.4325ZM287.34 62.1156L287.571 58.8792C288.28 58.8792 288.789 58.8099 289.097 58.6711C289.405 58.517 289.59 58.2396 289.652 57.8389C289.713 57.4228 289.729 56.8218 289.698 56.0358L289.282 45.0783H292.541L293.004 56.267C293.035 57.1608 292.996 57.9699 292.888 58.6943C292.796 59.4032 292.557 60.0119 292.172 60.5205C291.802 61.0291 291.224 61.4221 290.438 61.6995C289.667 61.9769 288.635 62.1156 287.34 62.1156ZM296.052 62L295.567 45.0783H298.803L299.289 62H296.052Z" fill="#1E55AC"/>
<path d="M217.056 36.9257C217.353 36.2795 217.603 35.6125 217.804 34.9299C219.35 30.4907 220.89 26.0495 222.424 21.6062C222.71 20.7746 222.794 20.9686 222.064 20.3187L221.14 19.4995C221.207 19.2439 221.386 19.3178 221.512 19.3178C223.459 19.2931 225.405 19.2685 227.364 19.2562C228.245 19.2562 228.094 19.2007 228.378 19.9984C230.098 24.8175 231.819 29.6427 233.54 34.4741C233.61 34.7826 233.742 35.0737 233.928 35.3303C234.885 34.8653 235.849 34.3725 236.924 34.277C236.941 34.2256 236.946 34.171 236.938 34.1175C236.93 34.064 236.909 34.0131 236.878 33.969C235.615 31.9578 235.357 29.7372 235.538 27.4334C235.604 26.5726 235.787 25.7249 236.084 24.914C236.463 23.7743 237.103 22.7383 237.951 21.8874C238.799 21.0366 239.833 20.3942 240.971 20.0107C242.681 19.3418 244.559 19.2339 246.334 19.7028C249.839 20.6883 251.933 23.2847 252.453 26.8112C252.769 28.9199 252.462 31.0749 251.569 33.0112C250.809 34.702 249.685 36.0664 247.92 36.7995C247.883 36.7995 247.858 36.8641 247.8 36.9319C247.984 37.1524 248.206 37.338 248.456 37.4801C250.224 38.7491 252.201 39.1495 254.338 38.9277C255.342 38.823 256.322 38.5982 257.304 38.401C257.387 38.6567 257.196 38.7367 257.086 38.8476C254.723 41.1791 251.945 41.792 248.788 40.8496C247.033 40.326 245.4 39.5006 243.786 38.6721C242.317 37.9237 240.857 37.1506 239.327 36.5346C237.941 35.9457 236.465 35.5958 234.962 35.4997C233.894 35.4474 233.894 35.4566 234.226 36.4391C234.344 36.6505 234.408 36.8873 234.414 37.129C234.362 37.2553 234.254 37.2461 234.165 37.2461C232.908 37.2461 231.652 37.2461 230.395 37.2461C230.325 37.2574 230.253 37.2547 230.184 37.238C230.114 37.2213 230.049 37.191 229.992 37.1488C229.935 37.1067 229.886 37.0536 229.85 36.9925C229.813 36.9315 229.789 36.8637 229.779 36.7933C229.471 35.7523 229.117 34.7328 228.821 33.6918C228.81 33.6146 228.783 33.5405 228.742 33.4739C228.701 33.4073 228.647 33.3496 228.584 33.3042C228.52 33.2588 228.448 33.2267 228.372 33.2096C228.296 33.1926 228.217 33.1911 228.14 33.2052C226.862 33.2237 225.581 33.2052 224.331 33.2052C224.152 33.0081 224.254 32.851 224.306 32.697C224.549 31.9732 224.82 31.2587 225.03 30.541C225.15 30.1129 225.338 29.9251 225.806 29.9682C226.391 30.0113 226.982 29.9682 227.681 29.9682L225.781 22.9613C225.574 23.1574 225.446 23.4225 225.421 23.7067C224.189 27.9878 222.967 32.2709 221.756 36.5561C221.565 37.2368 221.562 37.2399 220.881 37.2399C218.392 37.2399 215.904 37.2245 213.415 37.2399C213.212 37.2635 213.006 37.2219 212.828 37.1212C212.65 37.0204 212.508 36.8657 212.423 36.6793C211.694 35.3396 210.933 34.0152 210.163 32.697C209.78 32.0357 209.329 31.4163 208.817 30.849C208.284 30.2546 207.616 30.3932 206.969 30.4086C206.809 30.4086 206.784 30.5503 206.781 30.6766C206.778 30.8028 206.781 31.0215 206.781 31.194C206.781 32.9927 206.781 34.7914 206.781 36.59C206.781 37.206 206.781 37.206 206.165 37.206C205.056 37.206 203.947 37.206 202.839 37.2368C202.448 37.2368 202.34 37.1044 202.343 36.7256C202.343 32.734 202.343 28.7424 202.343 24.7508C202.343 24.3781 202.438 24.221 202.839 24.2272C203.947 24.2498 205.056 24.2498 206.165 24.2272C206.541 24.2272 206.698 24.3319 206.686 24.7261C206.661 25.3668 206.686 26.0074 206.686 26.648C206.686 26.9899 206.79 27.1439 207.154 27.1285C207.693 27.11 208.238 27.1038 208.777 27.1285C210.191 27.1962 210.77 26.2753 211.034 25.4006C211.17 24.9497 211.189 24.4719 211.09 24.0116C211.033 23.6554 210.869 23.325 210.62 23.0642C210.371 22.8034 210.048 22.6247 209.695 22.5517C209.358 22.48 209.013 22.448 208.669 22.4562C206.772 22.4562 204.875 22.4562 202.977 22.4562C202.398 22.4562 202.337 22.4377 202.398 21.9018C202.474 21.5035 202.423 21.0913 202.251 20.7241C202.079 20.3568 201.795 20.0533 201.44 19.8568C201.239 19.7655 201.082 19.5999 201 19.3948C201.077 19.2438 201.216 19.2931 201.326 19.29C204.185 19.2685 207.04 19.2254 209.898 19.2377C211.374 19.1943 212.809 19.7254 213.902 20.7191C215.414 22.1328 215.58 23.8945 215.008 25.7579C214.798 26.5634 214.392 27.3043 213.825 27.9139C213.259 28.5236 212.549 28.9829 211.761 29.2506C212.447 29.7891 213.049 30.4264 213.548 31.1416C214.367 32.2843 215.088 33.4885 215.787 34.7051C216.203 35.4258 216.612 36.1496 217.056 36.9257ZM248.536 28.4528C248.514 28.1079 248.508 27.7629 248.465 27.4211C248.354 26.2628 247.909 25.1616 247.184 24.2518C246.309 23.2016 245.163 22.6348 243.796 22.795C243.016 22.862 242.268 23.1379 241.632 23.5937C240.996 24.0495 240.494 24.6684 240.18 25.3852C239.093 27.7506 239.308 30.0606 240.599 32.3028C242.077 34.8622 246.241 34.9115 247.661 32.0748C248.23 30.9518 248.529 29.7117 248.536 28.4528Z" fill="#01509C"/>
<path d="M166.625 19.4286C166.851 19.3525 167.09 19.3262 167.327 19.3516L176.12 19.3239C176.775 19.3079 177.425 19.4253 178.033 19.6688C178.64 19.9124 179.191 20.2771 179.653 20.7407C181.6 22.6687 181.279 25.4499 178.954 26.9006C178.664 27.0792 178.356 27.2363 178.061 27.3995C178.092 27.6551 178.316 27.612 178.458 27.6675C179.255 27.9482 179.958 28.4448 180.488 29.1018C181.019 29.7587 181.357 30.5503 181.464 31.388C181.772 33.236 181.085 34.7359 179.57 35.8231C178.325 36.727 176.83 37.2201 175.292 37.2337C173.173 37.2645 171.057 37.2337 168.938 37.2337C168.322 37.2337 168.322 37.2337 168.322 36.6177C168.322 32.6795 168.322 28.7393 168.322 24.797C168.322 24.181 168.322 24.181 168.907 24.181C169.893 24.181 170.878 24.181 171.861 24.181C172.477 24.181 172.477 24.181 172.477 24.7723C172.477 25.1912 172.477 25.6101 172.477 26.0289C172.477 26.3123 172.569 26.4262 172.856 26.4232C173.496 26.4232 174.14 26.4694 174.774 26.4016C175.588 26.3123 176.314 25.9951 176.641 25.1696C176.949 24.4058 176.721 23.7159 176.253 23.0938C176.077 22.854 175.844 22.6619 175.575 22.535C175.306 22.4081 175.01 22.3503 174.713 22.3669C172.865 22.3854 171.017 22.3669 169.169 22.3669H168.652C168.402 22.3669 168.264 22.2437 168.316 22.0065C168.553 20.9655 167.919 20.4327 167.161 19.9584C166.998 19.8475 166.844 19.725 166.699 19.5919C166.677 19.5734 166.668 19.5179 166.625 19.4286ZM172.477 31.7761C172.477 32.3921 172.477 33.0081 172.477 33.6241C172.477 33.9012 172.572 34.0275 172.856 34.0214C173.715 34.0214 174.577 34.0614 175.434 33.9998C175.991 33.9587 176.513 33.7088 176.894 33.3C177.275 32.8912 177.489 32.3536 177.491 31.7946C177.473 30.5626 176.539 29.5093 175.366 29.4846C174.534 29.4661 173.7 29.5308 172.865 29.5431C172.585 29.5431 172.471 29.6633 172.477 29.9404C172.483 30.5503 172.477 31.1632 172.477 31.7761Z" fill="#01509C"/>
<path d="M302.475 19.3609C302.613 19.1976 302.783 19.2562 302.964 19.2562C305.77 19.2377 308.579 19.213 311.385 19.2161C312.551 19.2197 313.692 19.5517 314.677 20.174C316.476 21.2889 317.172 23.3309 316.556 25.5546C316.063 27.2886 315.093 28.4066 313.347 29.229C315.737 31.4589 317.043 34.391 318.675 37.1198C318.585 37.1796 318.485 37.221 318.379 37.2417C318.273 37.2623 318.165 37.2617 318.059 37.2399C316.978 37.2399 315.903 37.2399 314.81 37.2553C314.641 37.2734 314.471 37.2368 314.324 37.1509C314.178 37.0649 314.063 36.9342 313.997 36.7779C313.541 35.934 313.073 35.1024 312.58 34.2708C312.161 33.5471 311.736 32.8233 311.296 32.1149C311.014 31.6805 310.699 31.2687 310.353 30.8829C309.836 30.2669 309.167 30.387 308.505 30.4178C308.351 30.4178 308.302 30.538 308.296 30.6704C308.29 30.8028 308.296 31.0153 308.296 31.1878C308.296 32.9865 308.296 34.7852 308.296 36.5808C308.296 37.1968 308.296 37.1968 307.701 37.2153C306.592 37.2153 305.484 37.2399 304.375 37.2368C303.861 37.2368 303.851 37.2368 303.845 36.6978C303.845 35.7738 303.845 34.8252 303.845 33.8889V25.1573C303.845 24.9848 303.845 24.8124 303.845 24.6399C303.845 24.3319 303.99 24.1964 304.295 24.2272C304.369 24.2272 304.443 24.2272 304.517 24.2272C305.527 24.2272 306.537 24.2272 307.547 24.2272C308.213 24.2272 308.213 24.2272 308.216 24.9263C308.216 25.493 308.234 26.0597 308.216 26.6264C308.216 26.9899 308.348 27.1008 308.69 27.0946C309.331 27.0946 309.971 27.0946 310.612 27.0946H310.686C311.779 27.0176 312.601 26.0197 312.654 24.7107C312.703 23.4634 312.038 22.6379 310.877 22.4839C310.632 22.4623 310.386 22.4561 310.141 22.4654H304.449C303.925 22.4654 303.851 22.4408 303.925 21.9449C304.07 20.9902 303.688 20.3495 302.927 19.8475C302.822 19.8025 302.727 19.736 302.649 19.6522C302.571 19.5683 302.512 19.4691 302.475 19.3609Z" fill="#01509C"/>
<path d="M182.445 19.327H183.918C185.223 19.327 186.529 19.327 187.835 19.327C188.516 19.327 188.522 19.327 188.522 20.0077C188.522 23.5557 188.624 27.0915 188.491 30.6519C188.39 33.3007 191.026 34.2401 192.695 33.6672C193.184 33.5228 193.619 33.2342 193.941 32.8391C194.264 32.4441 194.46 31.9609 194.503 31.4527C194.539 31.11 194.551 30.7653 194.54 30.4209C194.54 27.0207 194.54 23.6204 194.54 20.2202C194.54 20.0477 194.54 19.8752 194.54 19.7028C194.54 19.4687 194.608 19.327 194.87 19.327H198.566C198.96 19.327 198.889 19.6104 198.874 19.8506C198.849 21.6 198.818 23.3494 198.8 25.0865C198.777 27.1398 198.762 29.1849 198.754 31.2217C198.762 31.9386 198.618 32.6492 198.331 33.3061C198.043 33.963 197.62 34.5512 197.087 35.0316C195.649 36.3898 193.887 37.0305 191.95 37.2153C190.672 37.3568 189.378 37.2051 188.168 36.7717C187.016 36.3767 186.018 35.6281 185.317 34.6326C184.616 33.6371 184.247 32.4455 184.262 31.2279C184.262 28.5175 184.262 25.8072 184.241 23.0968C184.241 22.4562 184.327 21.7725 184.133 21.1904C183.939 20.6083 183.274 20.3465 182.849 19.906C182.719 19.7582 182.492 19.6689 182.445 19.327Z" fill="#01509C"/>
<path d="M285.306 37.166C285.295 36.8714 285.365 36.5794 285.509 36.3221C287.201 31.4394 288.892 26.5576 290.582 21.677C290.924 20.6883 290.982 20.9409 290.175 20.214L289.325 19.4533C289.381 19.2315 289.519 19.2561 289.633 19.2561C291.678 19.2561 293.72 19.2561 295.765 19.2007C295.932 19.1765 296.102 19.2183 296.239 19.3171C296.376 19.416 296.469 19.5643 296.498 19.7305C298.519 25.4345 300.545 31.1365 302.578 36.8364C302.607 36.9275 302.632 37.02 302.652 37.1136C302.51 37.2923 302.344 37.2245 302.172 37.2245C300.989 37.2245 299.806 37.2245 298.623 37.2245C298.547 37.2366 298.468 37.2332 298.393 37.2143C298.317 37.1955 298.246 37.1616 298.184 37.1148C298.122 37.0679 298.07 37.009 298.031 36.9416C297.992 36.8742 297.968 36.7997 297.958 36.7225C297.684 35.7523 297.364 34.7944 297.059 33.8335C296.852 33.1867 296.849 33.1836 296.135 33.1836H292.439C292.38 32.7771 292.578 32.4783 292.679 32.158C292.845 31.619 293.036 31.0862 293.218 30.5503C293.424 29.9528 293.424 29.9343 294.025 29.9343H295.716C295.778 29.3552 294.875 25.7918 293.945 22.9089C293.674 23.1091 293.686 23.4233 293.612 23.6759C292.408 27.8861 291.219 32.0995 290.012 36.3036C289.722 37.3169 289.969 37.1937 288.851 37.1998C287.733 37.206 286.587 37.1998 285.463 37.1998C285.409 37.1971 285.356 37.1856 285.306 37.166Z" fill="#01509C"/>
<path d="M258.848 36.8426C259.878 36.6538 260.894 36.3924 261.888 36.0603C262.071 35.9891 262.258 35.9284 262.448 35.8786C263.184 35.7246 263.649 35.3827 263.471 34.5265C263.397 34.1661 263.622 34.0768 263.951 34.0737C264.96 34.1164 265.97 34.0927 266.976 34.0029C267.32 33.9636 267.653 33.859 267.958 33.6949C268.155 33.591 268.325 33.4435 268.456 33.2638C268.587 33.0841 268.675 32.8768 268.713 32.6578C268.752 32.4389 268.74 32.214 268.679 32.0003C268.617 31.7867 268.508 31.5899 268.358 31.425C268.022 31.0625 267.612 30.775 267.157 30.5811C266.381 30.2146 265.59 29.8727 264.807 29.5123C264.109 29.2021 263.445 28.8213 262.824 28.3758C259.926 26.2476 260.465 22.524 262.744 20.7653C263.783 20.0076 264.993 19.5197 266.267 19.3455C267.317 19.21 268.377 19.176 269.433 19.2438C269.704 19.2438 269.846 19.3424 269.843 19.6288C269.843 20.4912 269.843 21.3536 269.843 22.216C269.843 22.5517 269.689 22.6348 269.387 22.6287C268.747 22.6287 268.109 22.6287 267.468 22.6287C266.9 22.6098 266.335 22.7149 265.811 22.9367C264.813 23.3987 264.632 24.452 265.42 25.2281C265.762 25.5505 266.161 25.8064 266.597 25.9827C267.385 26.3277 268.18 26.6572 268.971 26.996C269.701 27.2953 270.393 27.6799 271.032 28.1418C272.707 29.3737 273.314 31.3603 272.88 33.3992C272.719 34.1008 272.361 34.7418 271.848 35.2472C270.616 36.5253 269.144 37.2676 267.33 37.2584C265.239 37.2584 263.144 37.2584 261.05 37.2584C260.41 37.2591 259.771 37.1899 259.146 37.052C259.039 37.0397 258.909 37.0305 258.848 36.8426Z" fill="#01509C"/>
<path d="M271.635 19.3208C272.559 19.2993 273.483 19.2592 274.407 19.2562C278.472 19.2418 282.538 19.2326 286.603 19.2285H286.911C287.466 19.2285 287.472 19.2284 287.478 19.8136C287.478 20.6349 287.478 21.4481 287.478 22.253C287.478 22.8689 287.478 22.8689 286.862 22.8689C285.605 22.8689 284.349 22.8689 283.092 22.8689C282.393 22.8689 282.421 22.8258 282.421 23.565V36.4268C282.421 37.2861 282.498 37.2337 281.632 37.2337C280.708 37.2337 279.76 37.2337 278.823 37.2337C278.297 37.2337 278.287 37.2184 278.281 36.7071C278.281 35.8693 278.281 35.0316 278.281 34.1938V23.8453C278.281 23.6728 278.281 23.4972 278.281 23.3278C278.315 22.9644 278.143 22.8597 277.801 22.8628C276.569 22.8628 275.337 22.8628 274.105 22.8628C273.932 22.8628 273.76 22.8628 273.587 22.8628C273.31 22.8813 273.178 22.7704 273.187 22.4809C273.187 22.1113 273.153 21.7386 273.187 21.3721C273.218 21.1653 273.184 20.9542 273.09 20.7673C272.996 20.5805 272.847 20.4271 272.663 20.328C272.281 20.0662 271.937 19.7459 271.576 19.4502L271.635 19.3208Z" fill="#01509C"/>
<path d="M232.781 82.78V82.0716C232.781 79.813 232.781 77.5461 232.781 75.2711C232.781 74.6551 232.781 74.6366 233.437 74.6335C234.093 74.6305 234.817 74.6335 235.504 74.6335C236.015 74.6335 236.027 74.6489 236.027 75.1818C236.027 77.1283 236.027 79.0748 236.027 81.0336V87.021C236.027 87.8649 236.098 87.8033 235.214 87.8033C234.549 87.8033 233.884 87.7756 233.221 87.8033C233.029 87.8264 232.834 87.7882 232.664 87.6942C232.494 87.6002 232.359 87.4552 232.276 87.2797C230.773 84.9082 229.258 82.5469 227.73 80.1959C227.591 79.916 227.395 79.6683 227.154 79.469C227.126 80.085 227.08 80.5932 227.077 81.1106C227.062 83.1557 227.062 85.2008 227.052 87.2459C227.052 87.8157 227.052 87.8218 226.492 87.8249C225.777 87.8249 225.063 87.8249 224.336 87.8249C224.028 87.8249 223.874 87.7263 223.902 87.3999C223.909 87.2521 223.909 87.1041 223.902 86.9564V75.499C223.902 75.3265 223.902 75.154 223.902 74.9816C223.902 74.7506 223.966 74.612 224.231 74.612C225.217 74.612 226.202 74.612 227.188 74.612C227.539 74.612 227.622 74.8922 227.761 75.1109C228.878 76.8829 229.992 78.6559 231.103 80.43C231.521 81.0952 231.934 81.7667 232.362 82.4288C232.473 82.5459 232.473 82.7615 232.781 82.78Z" fill="#00AAE7"/>
<path d="M204.73 81.1815C204.73 79.2124 204.73 77.2433 204.73 75.2742C204.73 74.6397 204.73 74.6304 205.383 74.6335C207.031 74.6335 208.682 74.6335 210.33 74.6674C212.732 74.7321 214.512 75.847 215.566 78.0245C216.018 78.931 216.274 79.9231 216.315 80.9355C216.356 81.9479 216.183 82.9575 215.806 83.898C214.882 86.2972 213.034 87.5939 210.521 87.751C208.781 87.8711 207.025 87.7756 205.285 87.7972C204.903 87.7972 204.835 87.6308 204.841 87.3075C204.841 86.6699 204.841 86.0293 204.841 85.3886C204.841 83.9873 204.841 82.5828 204.841 81.1815H204.73ZM207.81 81.2585C207.81 82.4165 207.81 83.5715 207.81 84.7296C207.81 85.1207 207.949 85.25 208.325 85.2316C208.793 85.2069 209.249 85.2316 209.729 85.2316C210.299 85.2241 210.857 85.0732 211.353 84.7927C211.849 84.5123 212.266 84.1113 212.566 83.6269C213.641 81.9884 213.308 79.315 211.888 77.966C211.656 77.7274 211.376 77.5403 211.067 77.4167C210.757 77.2931 210.425 77.2357 210.093 77.2484C209.501 77.2699 208.91 77.2977 208.322 77.2884C207.946 77.2884 207.804 77.4085 207.81 77.7966C207.81 78.9454 207.798 80.1035 207.798 81.2585H207.81Z" fill="#00AAE7"/>
<path d="M248.689 78.0091C247.576 77.4253 246.337 77.1228 245.079 77.1283C244.488 77.1394 243.902 77.2487 243.345 77.4517C242.15 77.9044 241.362 78.736 241.156 80.0172C240.995 80.9417 241.008 81.8878 241.193 82.8077C241.47 84.1197 242.317 84.8497 243.598 85.093C244.257 85.1895 244.926 85.1999 245.588 85.1238C245.862 85.1022 245.985 84.9914 245.979 84.7111C245.979 84.2676 245.96 83.8241 245.979 83.3805C245.997 83.0048 245.812 82.9278 245.486 82.937C244.944 82.9524 244.402 82.937 243.86 82.937C243.552 82.937 243.416 82.8385 243.422 82.512C243.422 81.896 243.422 81.28 243.398 80.664C243.398 80.3838 243.512 80.2698 243.795 80.2698C245.467 80.2842 247.141 80.2914 248.819 80.2914C249.142 80.2914 249.256 80.4207 249.247 80.7349C249.247 81.3231 249.247 81.9176 249.247 82.5089C249.247 83.7902 249.247 85.0714 249.247 86.3527C249.266 86.5093 249.232 86.668 249.15 86.8027C249.067 86.9375 248.942 87.0405 248.794 87.0949C247.958 87.5221 247.045 87.7756 246.108 87.8403C245.049 87.8834 243.986 87.8957 242.93 87.8403C242.061 87.8079 241.216 87.5533 240.474 87.1009C239.732 86.6485 239.118 86.0133 238.692 85.2562C237.069 82.5705 237.032 78.4804 240.327 75.8809C241.304 75.0715 242.533 74.6282 243.801 74.6274C245.033 74.6274 246.265 74.5196 247.497 74.7567C248.621 74.9723 248.634 74.9692 248.686 76.0657C248.711 76.6755 248.689 77.2854 248.689 78.0091Z" fill="#00AAE7"/>
<path d="M273.436 74.5966C276.457 74.4672 279.904 77.0359 279.904 81.2492C279.914 82.9814 279.24 84.6475 278.029 85.8861C276.818 87.1247 275.168 87.8358 273.436 87.8649C269.845 87.8649 266.968 84.902 266.928 81.2184C266.906 77.4609 270.029 74.4765 273.436 74.5966ZM276.842 81.1661C276.83 80.0372 276.39 78.9551 275.61 78.1385C275.331 77.833 274.991 77.5889 274.613 77.422C274.234 77.255 273.825 77.1688 273.411 77.1688C272.997 77.1688 272.588 77.255 272.209 77.422C271.831 77.5889 271.491 77.833 271.212 78.1385C269.635 79.7339 269.61 82.626 271.16 84.246C271.451 84.577 271.811 84.8401 272.214 85.0168C272.618 85.1934 273.056 85.2794 273.496 85.2685C273.937 85.2576 274.37 85.1502 274.764 84.9539C275.159 84.7575 275.505 84.477 275.78 84.1321C276.472 83.2993 276.847 82.2488 276.839 81.1661H276.842Z" fill="#00AAE7"/>
<path d="M318.837 78.0122C318.502 78.0122 318.28 77.7781 318.018 77.658C316.974 77.1714 315.908 76.8203 314.738 77.1221C314.5 77.1825 314.268 77.265 314.045 77.3685C311.889 78.4034 311.002 81.6373 312.369 83.6085C313.253 84.8866 314.565 85.1915 316.016 85.0653C316.753 84.9901 317.477 84.8225 318.172 84.5663C318.409 84.4348 318.678 84.3718 318.948 84.3846C319.007 85.1748 319.016 85.968 318.973 86.7592C318.973 86.9594 318.807 87.0672 318.665 87.1535C318.342 87.3821 317.973 87.5376 317.584 87.6093C316.134 87.9157 314.636 87.9251 313.183 87.637C311.993 87.3908 310.906 86.7869 310.069 85.9062C309.232 85.0255 308.684 83.91 308.498 82.7091C307.802 78.5019 310.623 74.9323 314.886 74.6428C316.09 74.5366 317.303 74.6292 318.477 74.9169C318.81 75.0031 318.979 75.1263 318.961 75.5113C318.917 76.3336 318.942 77.1683 318.837 78.0122Z" fill="#00AAE7"/>
<path d="M266.248 84.3353C266.248 85.1731 266.248 85.8753 266.248 86.596C266.255 86.731 266.222 86.8651 266.153 86.9813C266.084 87.0975 265.982 87.1907 265.86 87.249C265.542 87.4386 265.194 87.5729 264.831 87.6463C263.335 87.9787 261.784 87.9787 260.288 87.6463C259.023 87.329 257.894 86.6145 257.066 85.6077C256.238 84.6009 255.754 83.355 255.687 82.0531C255.471 78.696 257.374 76.0503 260.183 75.0894C261.522 74.6475 262.944 74.5148 264.341 74.7013C264.828 74.7567 265.308 74.8707 265.795 74.96C266.103 75.0185 266.229 75.191 266.22 75.5267C266.198 76.3645 266.22 77.1991 266.22 78.0307C265.881 78.1385 265.712 77.9075 265.512 77.8028C264.694 77.3363 263.773 77.0822 262.832 77.0636C261.015 77.0882 259.515 78.4311 259.136 80.3868C259.031 80.8179 258.991 81.2621 259.016 81.7051C259.265 84.3384 261.203 85.4225 263.679 85.0684C264.555 84.898 265.414 84.6527 266.248 84.3353Z" fill="#00AAE7"/>
<path d="M173.03 74.6212C174.57 74.6212 176.132 74.6212 177.684 74.6212C178.214 74.6212 178.223 74.6366 178.229 75.1448C178.229 75.7115 178.229 76.2782 178.229 76.8449C178.229 77.1529 178.115 77.2792 177.798 77.273C177.009 77.273 176.221 77.273 175.436 77.273C174.795 77.273 174.789 77.273 174.789 77.9198C174.789 80.9012 174.789 83.8784 174.789 86.8516C174.789 87.8803 174.869 87.7417 173.865 87.7479C173.224 87.7479 172.584 87.7479 171.943 87.7479C171.567 87.7479 171.419 87.6401 171.429 87.2459C171.45 86.211 171.429 85.1761 171.429 84.1444C171.429 82.05 171.429 79.9567 171.429 77.8644C171.429 77.2669 171.429 77.2484 170.813 77.2484C169.95 77.2484 169.088 77.2484 168.225 77.2484C167.84 77.2484 167.702 77.1221 167.72 76.7402C167.745 76.1981 167.72 75.6561 167.72 75.114C167.72 74.5719 167.72 74.5966 168.272 74.5935C169.882 74.615 171.459 74.6212 173.03 74.6212Z" fill="#00AAE7"/>
<path d="M300.232 81.1999C300.232 79.2041 300.232 77.196 300.232 75.2156C300.232 74.6181 300.232 74.5996 300.848 74.5996C301.588 74.5996 302.327 74.5842 303.066 74.5996C303.654 74.5996 303.663 74.5996 303.663 75.2156C303.663 78.1231 303.663 81.0275 303.663 83.9318C303.663 85.2963 303.488 85.0776 304.843 85.093C305.853 85.093 306.864 85.1084 307.871 85.093C308.246 85.093 308.4 85.1946 308.382 85.5919C308.354 86.1556 308.382 86.7223 308.382 87.289C308.382 87.8557 308.382 87.868 307.815 87.868C306.115 87.868 304.427 87.868 302.718 87.868H300.944C300.251 87.868 300.245 87.868 300.245 87.1873C300.237 85.1895 300.232 83.1937 300.232 81.1999Z" fill="#00AAE7"/>
<path d="M290.912 81.2523C290.912 79.2319 290.912 77.2114 290.912 75.191C290.912 74.6212 290.912 74.615 291.472 74.6089C292.261 74.6089 293.049 74.6089 293.838 74.5904C294.226 74.5904 294.349 74.7136 294.343 75.0955C294.343 76.5246 294.343 77.9537 294.343 79.3828C294.343 81.0829 294.343 82.7707 294.343 84.4831C294.343 85.0991 294.343 85.0991 294.959 85.0991C296.117 85.0991 297.275 85.0991 298.433 85.0991C299.049 85.0991 299.049 85.0991 299.049 85.7582C299.049 86.3003 299.049 86.8424 299.049 87.3845C299.049 87.7232 298.954 87.8741 298.59 87.8711C296.175 87.8711 293.761 87.8711 291.346 87.8711C290.918 87.8711 290.878 87.6555 290.881 87.3136C290.918 85.2932 290.912 83.2727 290.912 81.2523Z" fill="#00AAE7"/>
<path d="M218.076 81.1784C218.076 79.2072 218.076 77.2371 218.076 75.268C218.076 74.652 218.076 74.652 218.738 74.6335C219.4 74.615 220.019 74.6335 220.66 74.6335C221.211 74.6335 221.217 74.6335 221.223 75.2187C221.23 75.8039 221.223 76.3521 221.223 76.9188V86.8947C221.223 87.0672 221.223 87.2397 221.223 87.4122C221.242 87.7202 221.094 87.7972 220.82 87.7941C220.031 87.7941 219.243 87.7756 218.458 87.7941C218.082 87.7941 218.005 87.6401 218.008 87.3075C218.026 85.7675 218.029 84.2029 218.036 82.6537V81.1753L218.076 81.1784Z" fill="#00AAE7"/>
<path d="M282.104 87.8003C281.902 87.8103 281.699 87.7791 281.509 87.7085C281.319 87.638 281.145 87.5296 280.999 87.3899C280.852 87.2502 280.735 87.0822 280.655 86.896C280.575 86.7097 280.533 86.5092 280.533 86.3065C280.533 86.1037 280.574 85.9029 280.653 85.7163C280.733 85.5296 280.849 85.3609 280.995 85.2203C281.141 85.0796 281.314 84.9699 281.503 84.8978C281.693 84.8256 281.895 84.7925 282.098 84.8004C282.307 84.7872 282.517 84.8174 282.714 84.8891C282.911 84.9609 283.091 85.0725 283.243 85.2171C283.395 85.3617 283.515 85.5361 283.596 85.7294C283.677 85.9227 283.718 86.1307 283.715 86.3404C283.707 86.5428 283.659 86.7417 283.574 86.9254C283.489 87.1091 283.367 87.2738 283.217 87.4098C283.067 87.5459 282.891 87.6505 282.7 87.7175C282.509 87.7846 282.306 87.8127 282.104 87.8003Z" fill="#00AAE7"/>
<path d="M1.31272 22.2525C1.48212 22.2987 1.53448 22.4466 1.62071 22.5605C5.8125 29.1762 10.8605 35.0866 16.4937 40.4981C25.5264 49.2256 35.7546 56.6238 46.8711 62.4703C48.0045 63.0647 49.1626 63.6099 50.3176 64.1612C51.106 64.54 51.1153 64.5308 50.7025 65.347C49.3618 67.9542 48.2866 70.6896 47.4932 73.5119C46.5473 76.9059 46.1318 80.4257 46.2613 83.9467C46.5693 83.4139 46.5385 82.8595 46.6309 82.3421C47.5642 77.2419 50.0287 72.5469 53.6963 68.882C57.364 65.2171 62.0608 62.7561 67.1617 61.8266C71.5943 61.0205 76.1608 61.3911 80.4054 62.9015C80.6056 62.9693 80.7935 63.1263 81.083 63.0001C80.184 58.1369 78.5635 53.4353 76.2752 49.051C76.5617 49.0048 76.6048 49.2143 76.7095 49.3221C77.3655 49.9935 78.0062 50.6742 78.6622 51.3425C80.5139 53.2064 81.828 55.5357 82.4659 58.0845C82.5096 58.2674 82.5824 58.4421 82.6815 58.6019C82.8309 56.8362 82.8309 55.0609 82.6815 53.2952C81.6158 41.7208 77.846 30.978 72.5454 20.7187C72.1142 19.8871 71.6215 19.0802 71.1502 18.2825C70.679 17.4848 70.14 16.7148 69.6103 15.9202C69.7673 15.8216 69.8258 15.9633 69.8874 16.0341C74.8739 21.7905 79.3398 27.9042 82.7185 34.7571C85.0125 39.3154 86.6834 44.1615 87.6864 49.165C88.4706 53.1832 88.7099 57.2887 88.3979 61.3708C88.2704 63.0406 88.039 64.7008 87.7049 66.3418C87.6531 66.5117 87.6582 66.6938 87.7193 66.8606C87.7805 67.0273 87.8944 67.1696 88.0437 67.2658C90.7325 69.4789 92.9346 72.2241 94.5115 75.329C95.6552 77.5696 96.4606 79.9671 96.9016 82.4437C96.9204 82.5372 96.9441 82.6297 96.9724 82.7209C96.9724 82.7394 97.0124 82.7486 97.0555 82.7763C97.1382 82.4999 97.1603 82.2089 97.1202 81.9232C97.0063 75.9881 95.3801 70.472 92.5003 65.3069C92.4264 65.1776 92.3617 65.0451 92.2817 64.9219C92.1615 64.7341 92.1893 64.614 92.4018 64.5185L92.605 64.4322C98.9189 61.6972 104.755 58.1399 110.364 54.1853C117.529 49.1576 124.207 43.4686 130.31 37.1933C133.508 33.9388 136.445 30.4374 139.094 26.7215C139.987 25.4495 140.831 24.1498 141.607 22.8038C141.699 22.5562 141.863 22.3417 142.078 22.1878C142.36 23.2249 142.584 24.2767 142.749 25.3386C143.166 27.5921 143.399 29.8757 143.446 32.1668C143.523 36.8145 142.78 41.2896 140.513 45.4106C140.113 46.1405 140.107 46.9782 139.968 47.7729C139.402 50.9452 138.884 54.1299 137.972 57.2283C136.433 62.4642 133.867 67.0841 129.965 70.9124C129.878 70.9986 129.801 71.0941 129.727 71.1804C129.845 71.4576 130.035 71.1372 130.193 71.3005C129.885 72.5078 129.506 73.7213 129.102 74.9286C127.177 80.6604 123.229 84.4302 117.707 86.6786C115.378 87.625 112.956 88.3218 110.481 88.7576C110.185 88.7979 109.9 88.8995 109.645 89.056C109.39 89.2124 109.17 89.4202 109 89.6661C105.156 94.862 100.785 99.5589 95.6049 103.458C93.0362 105.392 90.3105 107.083 87.2059 108.013C85.7558 108.473 84.3482 109.057 82.9987 109.76C79.0758 111.712 74.7075 112.596 70.334 112.322C66.3319 112.109 62.4376 110.948 58.9722 108.934C58.7431 108.79 58.491 108.686 58.2268 108.626C55.7906 108.173 53.6069 107.136 51.4879 105.885C48.3962 103.991 45.5227 101.762 42.9195 99.2386C39.7398 96.2492 36.8264 92.9886 34.2126 89.4937C34.073 89.2974 33.8957 89.1309 33.6911 89.004C33.4864 88.8771 33.2585 88.7922 33.0206 88.7545C30.0419 88.1923 27.1484 87.2471 24.4122 85.9425C21.9568 84.7946 19.7493 83.1782 17.9136 81.184C15.4496 78.4398 14.1345 75.1658 13.4384 71.6023C13.4076 71.4452 13.2937 71.2635 13.5863 71.1218C13.768 71.0325 13.5031 70.8447 13.3984 70.7369C12.4035 69.7112 11.4658 68.6316 10.5895 67.5029C7.77441 63.8748 6.025 59.7631 4.97475 55.3218C4.3064 52.4944 3.82902 49.6301 3.34855 46.7657C3.2769 46.3296 3.13655 45.9075 2.93275 45.5153C1.25779 42.2936 0.28174 38.7546 0.0684142 35.1297C-0.162581 31.7418 0.222408 28.3908 0.758317 25.0553C0.881514 24.2791 1.01087 23.4999 1.14023 22.7238C1.16794 22.5451 1.13716 22.3572 1.31272 22.2525ZM51.7004 103.846L51.568 103.686C51.4972 103.35 51.2076 103.165 51.0198 102.913C48.469 99.5809 46.5703 95.7971 45.4235 91.7605C44.7163 89.3016 44.3352 86.7605 44.2901 84.2023C44.2444 82.5586 44.2876 80.9135 44.4195 79.2744C44.6279 77.2964 44.9768 75.3357 45.4636 73.4072C46.0855 70.95 46.9394 68.5574 48.0138 66.2617C48.2478 65.7535 48.2293 65.7166 47.752 65.4517C46.2644 64.6324 44.7706 63.8224 43.2861 62.9877C40.5121 61.4457 37.7904 59.8134 35.1211 58.0906C30.5997 55.2034 26.2516 52.0534 22.0992 48.6568C19.5151 46.5255 17.0419 44.2771 14.6149 41.9703C13.0103 40.4303 11.535 38.7979 10.0351 37.1563C7.88762 34.7906 5.86052 32.3184 3.96146 29.7491C3.5395 29.1824 3.11448 28.6188 2.62169 27.9596C2.37186 28.7887 2.22394 29.645 2.18124 30.5098C2.04772 31.7797 2.03123 33.0591 2.13197 34.332C2.24593 35.3577 2.33216 36.3863 2.5262 37.412C3.09655 40.2861 4.09314 43.0589 5.48294 45.6385C6.94223 48.406 8.74601 50.9777 10.8513 53.2921C13.1758 55.875 15.744 58.2277 18.5203 60.3174C21.2613 62.3654 24.143 64.218 27.1441 65.8613C30.2695 67.5909 33.4947 69.1336 36.8028 70.4812C38.0101 70.9679 39.2205 71.4514 40.4464 71.898C40.8098 72.0304 40.9761 72.206 40.933 72.5941C40.9176 72.7388 40.933 72.902 40.933 73.0376C40.9083 75.6216 40.8375 78.2088 41.0901 80.7867C41.2938 82.96 41.6239 85.1196 42.0787 87.2545C43.1505 92.1824 44.9862 96.7469 48.214 100.683C49.0887 101.714 50.0411 102.677 51.0629 103.563C51.188 103.686 51.3558 103.755 51.531 103.757C51.5464 103.79 51.5705 103.819 51.6008 103.84C51.6312 103.862 51.6666 103.874 51.7035 103.877C51.6935 103.912 51.695 103.95 51.7077 103.984C51.7205 104.018 51.7438 104.048 51.7744 104.068C51.7858 104.065 51.7967 104.061 51.8062 104.054C51.8158 104.047 51.8238 104.038 51.8298 104.028C51.8347 104.007 51.8352 103.986 51.8312 103.965C51.8272 103.944 51.8188 103.925 51.8065 103.908C51.7942 103.89 51.7784 103.876 51.7601 103.865C51.7418 103.855 51.7215 103.848 51.7004 103.846ZM104.931 92.3272C105.411 92.2286 105.636 91.8159 105.91 91.4864C106.952 90.2689 107.791 88.8921 108.396 87.4085C108.43 87.2812 108.506 87.169 108.611 87.0902C108.717 87.0114 108.846 86.9705 108.978 86.9743C110.055 86.8964 111.124 86.7254 112.172 86.463C115.38 85.649 118.409 84.2453 121.104 82.3236C122.868 81.1071 124.389 79.5715 125.588 77.7961C125.866 77.3561 126.11 76.8959 126.318 76.4193C126.236 76.4017 126.152 76.4027 126.071 76.4225C125.99 76.4422 125.914 76.4801 125.85 76.5333C125.394 76.7766 124.951 77.0384 124.495 77.2848C122.001 78.628 119.359 79.676 116.622 80.4079C114.437 80.9882 112.193 81.3128 109.933 81.3749C109.486 81.3749 109.058 81.2548 108.615 81.2364C108.548 81.2238 108.479 81.2259 108.414 81.2426C108.348 81.2593 108.287 81.2901 108.234 81.333C108.182 81.3758 108.139 81.4296 108.11 81.4906C108.08 81.5516 108.064 81.6183 108.063 81.686C108.023 81.9786 108.042 82.2774 107.989 82.5669C107.538 84.9365 106.862 87.2579 105.972 89.4998C105.612 90.4238 105.143 91.3478 104.916 92.321L104.86 92.398L104.931 92.3272ZM43.9883 97.369L44.0807 97.4245L44.0252 97.3321C43.9698 97.0933 43.8649 96.8687 43.7172 96.673C42.9902 95.5006 42.3539 94.2743 41.8138 93.0048C40.6288 90.1933 39.815 87.2394 39.393 84.2177C39.1004 82.1696 38.9741 80.1122 38.8663 78.0579C38.7986 76.7551 38.8386 75.4461 38.8263 74.1402C38.8263 73.8692 38.8017 73.6012 38.7863 73.3302C38.7845 73.1371 38.7156 72.9507 38.5914 72.8029C38.4672 72.6551 38.2954 72.5552 38.1056 72.5201C35.7987 71.7409 33.5288 70.8601 31.2774 69.9299C27.563 68.4094 23.9518 66.648 20.4668 64.6571C15.7453 61.9498 11.3749 58.7805 7.61425 54.8198C7.4695 54.6688 7.35554 54.4563 7.09991 54.4255C7.01821 54.6588 7.01821 54.9129 7.09991 55.1462C7.22927 55.6975 7.36171 56.2458 7.50646 56.7909C8.09096 58.9828 8.96624 61.0866 10.109 63.0463C11.9688 66.2482 14.4172 69.0697 17.3253 71.3621C20.6352 73.9723 24.3203 76.0677 28.256 77.5774C30.7437 78.5785 33.3098 79.3727 35.9281 79.952C36.0992 79.9717 36.258 80.0504 36.3772 80.1747C36.4964 80.299 36.5685 80.4609 36.581 80.6327C36.6858 81.3103 36.7956 81.9879 36.9106 82.6654C37.3787 85.4374 37.9763 88.1662 39.0265 90.7811C39.9505 93.0725 41.2102 95.1361 43.0705 96.7931C43.3446 97.0241 43.594 97.3105 43.9883 97.369ZM99.4548 97.3536C100.145 97.0857 100.613 96.5498 101.075 96.0108C102.438 94.3863 103.533 92.5542 104.318 90.584C105.621 87.4486 106.474 84.2147 106.56 80.8021C106.56 80.2292 106.597 80.1861 107.176 80.0783C108.457 79.8442 109.714 79.5147 110.971 79.1543C116.013 77.7529 120.759 75.7171 125.024 72.6433C127.431 70.9224 129.562 68.8454 131.344 66.4835C133.71 63.3197 135.37 59.686 136.214 55.8269C136.306 55.4265 136.522 55.0107 136.377 54.558C136.282 54.5918 136.229 54.598 136.198 54.6288C136.054 54.7612 135.912 54.8998 135.776 55.0446C133.123 57.7898 130.171 60.229 126.974 62.3163C125.126 63.5483 123.235 64.6848 121.285 65.7412C118.646 67.1764 115.948 68.4947 113.179 69.662C110.573 70.7625 107.924 71.7471 105.23 72.6156C104.635 72.8066 104.654 72.8189 104.641 73.441C104.629 74.0632 104.789 74.6083 104.777 75.2058C104.749 76.3855 104.728 77.562 104.666 78.7416C104.592 80.0937 104.481 81.4427 104.293 82.7763C104.008 84.9433 103.568 87.0872 102.978 89.1918C102.295 91.5572 101.54 93.898 100.265 96.0293C100 96.4697 99.6119 96.8301 99.4456 97.329L99.3809 97.406L99.4548 97.3536ZM95.0813 65.8151C95.0789 65.9645 95.1254 66.1105 95.2138 66.2309C96.3987 68.5835 97.3369 71.0523 98.0134 73.5981C98.5962 75.6552 98.9656 77.7669 99.116 79.8997C99.1992 81.2394 99.3409 82.5823 99.2053 83.9467C99.0852 85.1787 99.0575 86.3922 98.8789 87.6118C98.4226 90.6563 97.5262 93.6184 96.2178 96.405C95.0754 98.8361 93.6675 101.133 92.0199 103.255C91.8563 103.411 91.7482 103.617 91.7119 103.84C92.0845 103.84 92.3063 103.584 92.5527 103.415C94.3113 102.214 95.6326 100.6 96.7784 98.832C98.7434 95.7798 99.9938 92.4165 100.927 88.93C101.486 86.8674 101.897 84.7678 102.159 82.647C102.374 81.1896 102.507 79.7212 102.556 78.2488C102.556 76.4286 102.67 74.6053 102.439 72.7881C102.341 72.0304 102.387 72.0335 103.12 71.7502C105.482 70.8262 107.826 69.8714 110.121 68.7903C115.116 66.4373 119.946 63.7854 124.43 60.5392C126.868 58.7843 129.165 56.8422 131.301 54.7304C132.65 53.3987 133.901 51.9711 135.043 50.4586C136.951 47.9763 138.489 45.2314 139.611 42.3091C140.429 40.1192 140.96 37.8321 141.188 35.5055C141.372 33.5209 141.349 31.5224 141.117 29.5427C141.12 29.1348 141.048 28.7298 140.905 28.3477C140.686 28.3847 140.624 28.5233 140.541 28.6557C138.192 31.9085 135.61 34.9872 132.817 37.8678C130.821 39.9806 128.702 41.9703 126.549 43.9229C124.396 45.8756 122.268 47.6959 120.057 49.5007C116.851 52.1166 113.541 54.5898 110.127 56.9203C105.481 60.1575 100.598 63.0402 95.5187 65.5441C95.3523 65.5961 95.2019 65.6893 95.0813 65.8151ZM83.8919 104.899C83.9034 104.63 83.8451 104.363 83.7225 104.123C82.3263 99.7642 80.9259 95.4071 79.5215 91.0521C79.3428 90.5008 79.349 90.4977 79.811 90.1589L80.5317 89.6446C83.9648 87.2053 87.3969 84.7649 90.8279 82.3236C91.12 82.1733 91.362 81.941 91.524 81.6552H90.6493C86.2388 81.6737 81.8284 81.6983 77.4056 81.7014C76.2013 81.7014 76.4816 81.9109 76.0812 80.7035C74.6993 76.445 73.3267 72.1813 71.9633 67.9126C71.8987 67.7154 71.8832 67.4937 71.6892 67.3736C71.4952 67.4567 71.5044 67.623 71.4582 67.7586C70.9757 69.2308 70.4932 70.704 70.0106 72.1783C69.0374 75.172 68.0631 78.1667 67.0878 81.1624C66.8814 81.8 66.8753 81.8092 66.2439 81.7969C65.3199 81.7815 64.3713 81.7476 63.4381 81.7291C59.7421 81.6614 56.0462 81.6983 52.3503 81.5659C52.224 81.5659 52.0423 81.492 51.9961 81.7753C52.1624 81.9078 52.3441 82.0649 52.5382 82.2065L63.4997 90.2482C64.0263 90.6363 64.0232 90.6394 63.8231 91.2677C63.7953 91.3601 63.7676 91.4556 63.7368 91.5511C62.3488 95.7829 60.9587 100.015 59.5666 104.247C59.4896 104.484 59.3233 104.721 59.4403 105.017C59.7042 104.924 59.9463 104.778 60.1518 104.588C63.8231 101.931 67.4933 99.2735 71.1625 96.6145C71.7785 96.1679 71.6461 96.1094 72.3483 96.6145L83.1435 104.508C83.3776 104.672 83.5531 104.899 83.8919 104.899ZM38.5984 92.5798C38.7524 92.3457 38.5984 92.1794 38.5276 92.0069C38.0009 90.6794 37.4773 89.3551 37.0307 88.003C36.3439 85.924 35.6848 83.842 35.4168 81.6614C35.3675 81.2672 35.1304 81.2117 34.8008 81.2117C33.7937 81.2117 32.7927 81.2117 31.7825 81.1224C30.092 80.9754 28.4168 80.6869 26.7745 80.26C23.5217 79.4598 20.4036 78.1876 17.5193 76.484C17.3382 76.3212 17.1038 76.2303 16.8602 76.2284C16.8878 76.5137 16.9944 76.7857 17.1682 77.0138C18.3753 79.1109 20.0384 80.9097 22.0345 82.2774C24.2738 83.8464 26.7296 85.0811 29.3247 85.9425C30.6886 86.4349 32.101 86.7808 33.5381 86.9743C34.8748 87.1313 34.8655 87.116 35.4938 88.2709C36.1489 89.5671 36.9376 90.7913 37.8469 91.9237C38.0594 92.1886 38.2442 92.4935 38.5984 92.5798ZM129.558 71.359L129.512 71.396C129.512 71.396 129.54 71.4298 129.555 71.4329C129.57 71.436 129.586 71.4114 129.601 71.399L129.558 71.359Z" fill="#01509C"/>
<path d="M101.99 58.6296C101.919 58.7595 101.812 58.8663 101.682 58.9376C99.3256 60.652 96.6468 61.8725 93.8068 62.5258C93.2311 62.6647 92.6404 62.7319 92.0481 62.7259C91.5523 62.7075 91.5215 62.6828 91.4907 62.1685C91.3644 60.1265 91.1426 58.0968 90.8993 56.0671C89.3594 43.384 85.1275 31.7849 77.1967 21.6519C75.4801 19.459 73.7759 17.2579 72.084 15.0486C70.7317 13.2883 69.577 11.3848 68.6406 9.37224C68.5246 9.12864 68.4308 8.87506 68.3604 8.61458C68.1448 7.78607 68.4805 7.28096 69.3336 7.14853C69.9459 7.06362 70.5635 7.02347 71.1816 7.02841C72.6076 7.02841 74.0398 7.02841 75.4658 6.98837C76.7058 6.9657 77.9117 6.57906 78.9338 5.87652C79.8881 5.28603 80.5819 4.3544 80.8741 3.27089C80.8949 3.19952 80.9249 3.13118 80.9635 3.06761C80.9635 3.04913 81.0004 3.03681 81.0559 2.99369C81.6226 3.63124 81.5887 4.41663 81.5764 5.14965C81.7858 5.28517 81.9336 5.17121 82.0907 5.11269C83.1604 4.70352 84.0595 3.94341 84.6409 2.95674C85.0479 2.25299 85.411 1.52473 85.7281 0.776142C85.8144 0.485441 85.9685 0.219412 86.1778 0C86.6029 1.46795 86.7451 3.00336 86.5967 4.52442C86.4764 6.09409 85.852 7.58284 84.8165 8.76857C86.4858 9.19053 87.8964 8.78705 89.2208 7.88155C89.2546 9.92971 88.0812 11.3526 85.5248 12.3937C85.8425 13.2464 86.4615 13.9531 87.265 14.3802C88.1305 14.8176 89.0267 14.6882 89.9907 14.4295C89.9496 15.0417 89.6957 15.6202 89.2731 16.0649C88.4064 17.0541 87.2573 17.7538 85.9807 18.07C85.4206 18.2074 84.8447 18.2695 84.2682 18.2548C84.3332 18.5768 84.4969 18.8707 84.7364 19.0956C86.5172 21.1915 88.8288 22.7701 91.4291 23.6662C92.6395 24.0851 93.8622 23.9249 95.048 23.4876C96.3732 22.9421 97.6168 22.2167 98.7439 21.3316L99.3845 20.8635C99.4273 20.9523 99.4471 21.0504 99.4423 21.1488C99.4374 21.2472 99.408 21.3429 99.3568 21.4271C99.0441 22.3422 98.5177 23.1696 97.8214 23.8407C97.1251 24.5119 96.2789 25.0074 95.3529 25.2863C94.1702 25.6316 92.9497 25.8312 91.7186 25.8807C91.4814 25.9022 91.2474 25.9146 90.8131 25.9423C92.0882 26.8909 93.1015 27.8426 93.3941 29.3117C93.5709 29.9263 93.5472 30.5811 93.3263 31.1813C93.1508 31.1381 93.1415 30.9718 93.083 30.8425C92.8828 30.4205 92.698 29.9893 92.467 29.5766C92.2645 29.1803 91.9886 28.826 91.6539 28.5325C91.3736 28.2923 91.0533 27.9627 90.6899 28.129C90.4127 28.2553 90.4466 28.6834 90.4281 28.9976C90.3949 29.6031 90.4872 30.2089 90.6992 30.7771C90.9112 31.3453 91.2383 31.8635 91.6601 32.2993C92.9065 33.6511 94.5579 34.5622 96.3662 34.8957C98.2258 35.3445 100.181 35.1825 101.941 34.4337C102.007 34.4041 102.077 34.3804 102.147 34.3628C102.166 34.3628 102.19 34.3844 102.252 34.4213C102.044 34.8048 101.735 35.1243 101.359 35.3453C100.287 36.0907 99.0581 36.3186 97.7891 36.3833C96.2167 36.4278 94.6452 36.2684 93.1138 35.909C92.9198 35.8689 92.7288 35.8258 92.5348 35.7981C92.419 35.7983 92.3034 35.8096 92.1898 35.832C92.8674 36.5624 93.6942 37.1384 94.6141 37.521C95.534 37.9037 96.5255 38.0839 97.5212 38.0495C99.557 38.0095 101.34 37.2179 103 36.1091C103.167 36.3309 103 36.4787 102.951 36.6143C102.352 37.9308 101.275 38.9709 99.9389 39.5248C99.0074 39.9174 98.0221 40.1676 97.0161 40.2671C96.7046 40.2615 96.3966 40.3335 96.1198 40.4765C97.3252 40.8403 98.5097 41.2701 99.6679 41.7639C101.628 42.5786 103.456 43.6799 105.092 45.0317C105.927 45.7296 106.64 46.5625 107.201 47.4957C107.276 47.6216 107.342 47.7522 107.399 47.8868C107.414 47.9207 107.38 47.9761 107.352 48.0778C105.504 46.5625 103.496 45.3335 101.159 44.7607C100.343 44.5664 99.5058 44.4723 98.6669 44.4804C99.7079 45.8818 101.026 47.0614 100.965 48.9894C100.595 48.9001 100.453 48.6229 100.256 48.4289C99.5065 47.6391 98.5734 47.0466 97.5397 46.7041C95.6301 46.1374 93.8222 47.1107 93.3202 48.9925C93.0787 49.8825 93.1787 50.8305 93.6004 51.6505C94.0277 52.4882 94.6643 53.2011 95.4484 53.7202C96.2276 54.2405 97.0798 54.6422 97.977 54.9122C98.2421 54.9559 98.4932 55.0614 98.71 55.2201C98.3515 55.3359 97.9722 55.3727 97.5982 55.3279C95.8972 55.2512 94.2211 54.8899 92.6395 54.2592C92.377 54.1243 92.0956 54.0298 91.8048 53.9789C91.7617 53.9173 91.7093 53.8927 91.6631 53.9789C91.6631 53.9943 91.7001 54.0405 91.7217 54.0744C92.1837 56.911 94.5583 59.2456 97.361 59.5875C98.3904 59.676 99.4264 59.5264 100.389 59.1501C100.897 58.9746 101.387 58.7467 101.885 58.5341C101.917 58.5691 101.952 58.6011 101.99 58.6296ZM92.1898 35.7734C92.1898 35.758 92.1652 35.7334 92.1529 35.7303C92.1405 35.7272 92.119 35.7488 92.1036 35.7611C92.0882 35.7734 92.1282 35.8012 92.1436 35.8012C92.159 35.8012 92.1744 35.7827 92.1898 35.7734Z" fill="#01509C"/>
<path d="M60.9335 6.3231L60.2991 7.23168C58.4881 9.85579 56.8927 12.5939 55.9071 15.6461C55.3526 17.2567 55.1152 18.9594 55.2079 20.6602C55.2668 21.7586 55.5604 22.8316 56.0688 23.807C56.5772 24.7825 57.2887 25.6376 58.1554 26.315L58.7191 26.7862C58.7345 26.7862 58.7191 26.8355 58.7191 26.8693C58.5589 27.0079 58.4111 26.8693 58.2571 26.8385C56.7008 26.4365 55.2505 25.7008 54.0068 24.6826C53.129 23.965 52.4483 23.1057 52.2235 21.963C51.9432 21.9384 51.9709 22.1724 51.9155 22.3049C51.3796 23.7309 51.395 25.2062 51.6075 26.6784C51.9555 29.1115 52.8395 31.3845 53.8097 33.6236C53.9021 33.8362 54.0899 34.0333 54.0252 34.2981C53.899 34.3166 53.8404 34.2335 53.785 34.1596C51.6999 31.5847 49.8335 28.8775 48.6261 25.7636C47.1077 21.8552 47.0215 17.8883 48.1303 13.8782C48.9064 11.0724 50.6804 9.09813 53.3076 7.87231C55.2034 7.03733 57.2309 6.54114 59.2981 6.40626C59.8032 6.37547 60.2929 6.36006 60.9335 6.3231Z" fill="#0A4AA1"/>
<path d="M56.9085 57.8258C55.8521 59.2056 54.5216 60.1912 52.7752 60.5238C51.6537 60.6972 50.5137 60.7148 49.3873 60.5762C48.549 60.4785 47.7599 60.1296 47.1236 59.5752C45.2756 58.0876 44.2562 56.1195 43.8496 53.8003C43.699 52.9789 43.8066 52.131 44.1576 51.3733C45.2695 48.8601 45.4912 46.199 45.2602 43.4887C45.0231 40.6829 44.3547 37.9448 43.7695 35.2129C43.2059 32.5611 42.7285 29.8969 42.6761 27.1773C42.5745 21.8768 44.2931 17.1768 47.4162 12.948C47.4162 12.948 47.4562 12.9265 47.5116 12.8957C47.601 13.0866 47.4562 13.2037 47.3884 13.33C45.9459 15.8336 44.9731 18.5799 44.5179 21.4333C44.2091 23.5052 44.1584 25.6073 44.367 27.6917C44.5457 29.6813 44.9984 31.6248 45.3865 33.5774C45.6945 35.0959 45.8639 36.6574 46.0702 38.1789C46.3782 40.4703 46.5938 42.7741 46.7478 45.0841C46.8248 46.2144 46.8371 47.3478 46.8248 48.472C46.7709 49.0115 46.6467 49.5417 46.4552 50.0489C46.2027 50.9483 45.9224 51.8384 45.7376 52.7562C45.3126 54.8906 45.9655 56.64 47.5856 58.0568C47.989 58.414 48.4387 58.722 48.8637 59.0578C50.0064 59.9571 51.2969 60.031 52.649 59.723C53.6275 59.4686 54.5621 59.0678 55.4209 58.5342C55.886 58.2662 56.3449 57.9859 56.8069 57.7087L56.9085 57.8258Z" fill="#0A4AA1"/>
<path d="M65.7516 0.625229C67.0483 6.88982 66.4785 12.8033 62.416 18.1809C62.3696 18.0767 62.3456 17.9638 62.3456 17.8498C62.3456 17.7357 62.3696 17.6229 62.416 17.5187C62.9581 15.8555 63.5156 14.2016 64.033 12.5323C64.3971 11.4574 64.5752 10.3283 64.5597 9.1936C64.5612 8.7943 64.4913 8.39795 64.3533 8.02323C64.2825 8.03863 64.1839 8.02323 64.15 8.06943C62.7025 9.83423 61.452 11.7038 60.9407 13.9829C60.6112 15.452 60.7282 16.9181 60.9161 18.3903C61.0023 19.0648 61.1871 19.7331 61.1502 20.4169C60.9099 20.5124 60.8083 20.3337 60.6882 20.2321C59.8843 19.577 59.1826 18.8057 58.6061 17.9437C58.128 17.2509 57.8337 16.448 57.7508 15.6103C57.6678 14.7726 57.7989 13.9276 58.1318 13.1544C58.6276 11.9986 59.2851 10.9191 60.0845 9.94819C60.8699 8.93489 61.6861 7.94623 62.4684 6.93293C62.9211 6.34775 63.3554 5.75024 63.765 5.13425C64.7034 3.76874 65.3773 2.23927 65.7516 0.625229Z" fill="#0A4AA1"/>
<path d="M62.6322 20.4631C64.8035 21.6027 66.3928 23.158 67.3722 25.2924C68.257 27.2562 68.577 29.4277 68.2962 31.5632C67.9234 34.9612 66.5454 38.1709 64.3384 40.7814C63.6074 41.6648 62.7514 42.4367 61.7975 43.0729C61.7205 42.7218 61.9361 42.5493 62.05 42.3522C63.6473 39.6543 64.6432 36.6433 64.9698 33.5251C65.2603 30.503 64.9526 27.4533 64.0643 24.5502C63.7282 23.4442 63.3344 22.3565 62.8847 21.2916C62.7415 21.037 62.6554 20.7543 62.6322 20.4631Z" fill="#0A4AA1"/>
<path d="M42.6506 19.8563C42.549 19.8563 42.4905 19.8563 42.4566 19.8194C40.6671 18.4303 39.1025 16.8472 38.1046 14.7775C37.2185 12.9644 37.0566 10.8817 37.6519 8.95337C38.0252 7.68499 38.6116 6.48936 39.3859 5.4176C39.3859 5.83339 39.4044 6.08903 39.3859 6.34158C39.2875 7.24148 39.4322 8.1513 39.8049 8.97629C40.1776 9.80127 40.7646 10.5113 41.5049 11.0323C42.6037 11.8278 43.8354 12.4212 45.1423 12.7848C45.3979 12.8618 45.6474 12.948 45.98 13.0528C44.6618 15.2734 43.2666 17.3801 42.6506 19.8563Z" fill="#0A4AA1"/>
<path d="M48.5684 61.1921C49.6217 61.2445 50.4902 61.5309 51.3865 61.6418C52.3847 61.8006 53.4028 61.7849 54.3956 61.5956C55.0257 61.4655 55.6166 61.1896 56.1209 60.7901C56.6253 60.3906 57.0291 59.8785 57.3 59.2949C57.8592 58.1629 58.1301 56.9102 58.0884 55.6483C58.0084 52.7285 59.0679 50.1629 60.4107 47.6681C60.9894 46.5886 61.6559 45.5585 62.4034 44.5882C62.5266 44.8623 62.3603 45.004 62.2864 45.1518C61.2816 47.0983 60.4946 49.1496 59.9395 51.2686C59.8312 51.7232 59.7866 52.1907 59.807 52.6576C59.881 54.7058 59.8779 56.7447 59.3882 58.7528C59.2201 59.4719 58.9678 60.1687 58.6367 60.8287C57.5279 62.9847 55.6615 63.9086 53.2622 63.5144C51.5133 63.1883 49.8887 62.3845 48.5684 61.1921Z" fill="#0A4AA1"/>
<path d="M52.8934 57.0681C52.4776 56.0024 52.1142 54.9368 51.2271 54.1514C50.3401 53.366 49.2159 53.3814 48.1472 53.4153C48.1214 53.3466 48.1161 53.2719 48.132 53.2003C48.1479 53.1287 48.1842 53.0632 48.2365 53.0118C48.7904 52.3106 49.5513 51.8019 50.411 51.5581C51.4859 51.2501 52.2959 51.6721 52.7332 52.7069C52.9464 53.2836 53.065 53.891 53.0843 54.5056C53.131 55.3644 53.0669 56.2257 52.8934 57.0681Z" fill="#0A4AA1"/>
<path d="M57.46 28.3724C57.5031 30.0756 55.7537 30.9164 54.4725 30.67C54.1491 30.6084 54.0998 30.3866 54.1059 30.1279C54.103 29.481 54.3263 28.8534 54.7373 28.3539C55.2582 27.753 55.9575 27.3343 56.7331 27.1589C57.0226 27.0819 57.2105 27.1589 57.2906 27.4669C57.3958 27.7575 57.453 28.0633 57.46 28.3724Z" fill="#0A4AA1"/>
<path d="M69.5385 15.6522C69.5108 15.7354 69.4708 15.7446 69.4276 15.6861C69.3845 15.6276 69.3352 15.5752 69.3322 15.5136C69.3291 15.452 69.3814 15.4366 69.4276 15.4982C69.4738 15.5598 69.5046 15.606 69.5385 15.6522Z" fill="white"/>
<path d="M102.119 58.4664C102.174 58.3863 102.042 58.4264 102.137 58.4048C102.151 58.4012 102.166 58.4012 102.18 58.4048C102.18 58.4572 102.159 58.4726 102.103 58.4479L102.119 58.4664Z" fill="white"/>
<path d="M102.093 58.451C102.155 58.5773 102.066 58.6019 101.979 58.6296C101.944 58.5989 101.911 58.5648 101.881 58.528C101.907 58.4949 101.944 58.4711 101.985 58.46C102.026 58.449 102.069 58.4512 102.109 58.4664L102.093 58.451Z" fill="white"/>
<path d="M95.081 65.8151C95.1974 65.6888 95.3435 65.5935 95.506 65.5379C100.585 63.034 105.468 60.1513 110.114 56.9141C113.527 54.5754 116.837 52.1022 120.044 49.4945C122.255 47.6897 124.419 45.8305 126.536 43.9168C128.692 41.9641 130.808 39.9745 132.804 37.8616C135.598 34.9781 138.179 31.8963 140.529 28.6403C140.612 28.5233 140.673 28.3847 140.892 28.3323C141.035 28.7144 141.107 29.1194 141.104 29.5273C141.336 31.507 141.36 33.5055 141.175 35.4901C140.947 37.8167 140.417 40.1038 139.598 42.2937C138.476 45.216 136.938 47.9609 135.031 50.4432C133.888 51.9557 132.638 53.3834 131.289 54.715C129.154 56.8353 126.856 58.7857 124.417 60.5484C119.933 63.7947 115.104 66.4465 110.108 68.7996C107.813 69.8806 105.47 70.8447 103.107 71.7594C102.374 72.0428 102.328 72.0397 102.427 72.7973C102.658 74.6145 102.559 76.4378 102.544 78.2581C102.494 79.7304 102.362 81.1988 102.146 82.6562C101.885 84.7771 101.473 86.8767 100.914 88.9393C99.9904 92.4258 98.7307 95.789 96.7657 98.8413C95.6261 100.609 94.3018 102.229 92.54 103.424C92.2936 103.594 92.0719 103.858 91.6992 103.849C91.7356 103.626 91.8437 103.42 92.0072 103.264C93.6549 101.143 95.0628 98.8454 96.2052 96.4143C97.5136 93.6276 98.41 90.6656 98.8662 87.6211C99.0449 86.3891 99.0726 85.1756 99.1927 83.9559C99.3282 82.5915 99.1927 81.2487 99.1034 79.9089C98.953 77.7761 98.5835 75.6645 98.0008 73.6074C97.3243 71.0616 96.3861 68.5927 95.2011 66.2402C95.1151 66.1157 95.0729 65.9662 95.081 65.8151Z" fill="#00AAE7"/>
<path d="M51.5128 103.741C51.3376 103.74 51.1698 103.67 51.0447 103.547C50.0229 102.662 49.0705 101.699 48.1957 100.668C44.968 96.7315 43.1323 92.164 42.0605 87.2391C41.6057 85.1042 41.2756 82.9446 41.0719 80.7713C40.8193 78.1934 40.8901 75.6062 40.9148 73.0222C40.9148 72.8743 40.9148 72.7142 40.9148 72.5787C40.9579 72.1967 40.7916 72.015 40.4282 71.8826C39.1962 71.436 37.9919 70.9586 36.7846 70.4658C33.4765 69.1182 30.2513 67.5755 27.1259 65.8459C24.1248 64.2026 21.2431 62.35 18.5021 60.302C15.7258 58.2123 13.1576 55.8596 10.8331 53.2767C8.72781 50.9623 6.92403 48.3906 5.46474 45.6231C4.07494 43.0435 3.07835 40.2707 2.508 37.3966C2.31396 36.3833 2.22773 35.3546 2.11377 34.3166C2.01303 33.0437 2.02952 31.7643 2.16304 30.4944C2.20574 29.6296 2.35364 28.7733 2.60347 27.9442C3.09626 28.6034 3.52746 29.1762 3.94326 29.7337C5.84415 32.3053 7.87331 34.7796 10.023 37.1471C11.5137 38.7887 12.9983 40.4365 14.6029 41.961C17.0299 44.2679 19.5031 46.5162 22.0872 48.6476C26.2454 52.0458 30.5997 55.1969 35.1276 58.0845C37.7969 59.8072 40.5185 61.4396 43.2925 62.9816C44.777 63.8039 46.2708 64.6139 47.7584 65.4455C48.2358 65.7104 48.2543 65.7535 48.0202 66.2556C46.9459 68.5513 46.092 70.9438 45.47 73.401C44.9833 75.3295 44.6344 77.2902 44.4259 79.2683C44.294 80.9074 44.2508 82.5524 44.2966 84.1962C44.3391 86.7561 44.7181 89.2994 45.4238 91.7605C46.5687 95.7967 48.4653 99.5804 51.0139 102.913C51.2018 103.165 51.4913 103.35 51.5621 103.686L51.5128 103.741Z" fill="#00AAE7"/>
<path d="M99.4453 97.3413C99.6116 96.8424 99.9997 96.482 100.265 96.0416C101.54 93.9103 102.294 91.5695 102.978 89.2041C103.566 87.0994 104.003 84.9555 104.287 82.7886C104.475 81.455 104.595 80.106 104.66 78.7539C104.721 77.5743 104.743 76.3978 104.771 75.2182C104.771 74.6207 104.62 74.0478 104.635 73.4534C104.65 72.8589 104.635 72.8189 105.223 72.6279C107.919 71.7594 110.569 70.7748 113.173 69.6743C115.945 68.507 118.639 67.1888 121.279 65.7535C123.229 64.6971 125.129 63.5637 126.968 62.3286C130.164 60.2413 133.117 57.8022 135.77 55.0569C135.906 54.9122 136.047 54.7736 136.192 54.6411C136.223 54.6103 136.275 54.6042 136.371 54.5703C136.506 55.023 136.3 55.4388 136.207 55.8392C135.368 59.6971 133.713 63.3307 131.353 66.4958C129.571 68.8577 127.44 70.9347 125.033 72.6557C120.768 75.7356 116.022 77.7653 110.98 79.1666C109.723 79.5147 108.466 79.8442 107.185 80.0906C106.612 80.1953 106.588 80.2415 106.569 80.8144C106.492 84.227 105.63 87.4609 104.327 90.5963C103.542 92.5665 102.447 94.3986 101.084 96.0231C100.622 96.5621 100.16 97.098 99.4638 97.366L99.4453 97.3413Z" fill="#00AAE7"/>
<path d="M43.9851 97.3691C43.594 97.3105 43.3445 97.0241 43.0611 96.7808C41.2132 95.1238 39.9381 93.0602 39.0172 90.7688C37.9669 88.1539 37.3694 85.422 36.9013 82.6531C36.7863 81.9755 36.6764 81.298 36.5717 80.6204C36.5592 80.4486 36.4871 80.2866 36.3679 80.1624C36.2487 80.0381 36.0898 79.9593 35.9188 79.9397C33.3006 79.3624 30.7346 78.5702 28.2466 77.5712C24.311 76.0616 20.6258 73.9662 17.316 71.3559C14.4079 69.0636 11.9595 66.2421 10.0997 63.0401C8.95691 61.0805 8.08162 58.9767 7.49712 56.7848C7.35236 56.2396 7.21993 55.6914 7.09057 55.1401C7.00887 54.9068 7.00887 54.6527 7.09057 54.4194C7.3462 54.4502 7.46017 54.6627 7.60493 54.8136C11.3655 58.7744 15.736 61.9437 20.4575 64.6509C23.9384 66.6424 27.5455 68.4048 31.2557 69.9268C33.5072 70.8508 35.7771 71.7378 38.084 72.5171C38.2738 72.5521 38.4455 72.6521 38.5697 72.7999C38.6939 72.9477 38.7628 73.1341 38.7646 73.3271C38.7646 73.5981 38.8016 73.8661 38.8047 74.1371C38.8047 75.443 38.7769 76.752 38.8447 78.0548C38.9525 80.1122 39.0788 82.1696 39.3714 84.2147C39.7933 87.2364 40.6071 90.1902 41.7922 93.0017C42.3322 94.2712 42.9685 95.4975 43.6956 96.6699C43.8432 96.8657 43.9482 97.0902 44.0036 97.329L43.9851 97.3691Z" fill="#00AAE7"/>
<path d="M38.5987 92.5798C38.2445 92.4904 38.0597 92.1855 37.8441 91.933C36.9348 90.8006 36.1461 89.5763 35.491 88.2802C34.875 87.1252 34.875 87.1406 33.5353 86.9835C32.0982 86.79 30.6858 86.4442 29.3219 85.9517C26.7268 85.0903 24.271 83.8557 22.0317 82.2866C20.0356 80.919 18.3725 79.1201 17.1654 77.023C16.9916 76.795 16.885 76.523 16.8574 76.2376C17.101 76.2396 17.3354 76.3305 17.5165 76.4933C20.4023 78.1939 23.5214 79.463 26.7748 80.26C28.4155 80.6824 30.0886 80.9668 31.7766 81.1101C32.7868 81.1871 33.7878 81.1994 34.795 81.1994C35.1307 81.1994 35.3678 81.2548 35.4109 81.6491C35.6789 83.8297 36.3349 85.9117 37.0248 87.9907C37.4714 89.3458 37.995 90.6702 38.5217 91.9946C38.5956 92.1824 38.7527 92.3488 38.5987 92.5798Z" fill="#00AAE7"/>
<path d="M104.916 92.3118C105.144 91.3262 105.612 90.4269 105.972 89.4906C106.862 87.2506 107.538 84.9313 107.99 82.5638C108.042 82.2743 108.024 81.9755 108.064 81.6829C108.065 81.6152 108.081 81.5485 108.11 81.4875C108.14 81.4265 108.182 81.3727 108.235 81.3299C108.287 81.287 108.349 81.2562 108.414 81.2395C108.48 81.2228 108.548 81.2207 108.615 81.2333C109.059 81.2518 109.487 81.3842 109.933 81.3719C112.193 81.3097 114.438 80.9851 116.623 80.4048C119.359 79.673 122.001 78.6249 124.495 77.2817C124.951 77.0353 125.395 76.7735 125.85 76.5302C125.915 76.477 125.99 76.4391 126.071 76.4194C126.152 76.3996 126.237 76.3986 126.318 76.4163C126.11 76.8928 125.866 77.353 125.589 77.793C124.386 79.5707 122.86 81.1074 121.092 82.3236C118.397 84.2453 115.368 85.649 112.16 86.463C111.112 86.7254 110.044 86.8964 108.966 86.9743C108.834 86.9705 108.705 87.0114 108.6 87.0902C108.494 87.169 108.418 87.2812 108.384 87.4085C107.779 88.8921 106.94 90.2689 105.899 91.4864C105.624 91.8159 105.4 92.2286 104.919 92.3272L104.916 92.3118Z" fill="#00AAE7"/>
<path d="M51.6997 103.846C51.7356 103.855 51.767 103.877 51.7875 103.908C51.808 103.939 51.8162 103.976 51.8106 104.012C51.8045 104.023 51.7965 104.031 51.787 104.038C51.7774 104.045 51.7666 104.05 51.7551 104.053C51.7246 104.032 51.7012 104.003 51.6885 103.969C51.6758 103.934 51.6743 103.897 51.6843 103.862L51.6997 103.846Z" fill="white"/>
<path d="M51.5828 103.686L51.7152 103.846L51.6998 103.862C51.6629 103.859 51.6275 103.846 51.5971 103.825C51.5668 103.804 51.5427 103.775 51.5273 103.741L51.5828 103.686Z" fill="white"/>
<path d="M99.4548 97.3537L99.3809 97.4183L99.4455 97.3413L99.4548 97.3537Z" fill="white"/>
<path d="M44.0252 97.3321L44.0807 97.4245L43.9883 97.369L44.0252 97.3321Z" fill="white"/>
<path d="M104.93 92.3272L104.859 92.3888L104.915 92.3118L104.93 92.3272Z" fill="white"/>
<path d="M129.558 71.3621L129.601 71.4021C129.601 71.4021 129.57 71.436 129.555 71.436C129.539 71.436 129.527 71.4114 129.512 71.3991L129.558 71.3621Z" fill="white"/>
<path d="M91.7277 54.059C91.7061 54.0251 91.6599 53.9789 91.6692 53.9635C91.7154 53.8896 91.7677 53.9143 91.8109 53.9635L91.7277 54.059Z" fill="white"/>
<path d="M92.1899 35.7735C92.1745 35.7735 92.156 35.8042 92.1437 35.8012C92.1313 35.7981 92.1159 35.7765 92.1036 35.7611C92.0913 35.7457 92.1375 35.7303 92.1529 35.7303C92.1683 35.7303 92.1775 35.7581 92.1899 35.7735Z" fill="white"/>
</svg>
