<svg width="200" height="109" viewBox="0 0 200 109" fill="none" xmlns="http://www.w3.org/2000/svg">
<g clip-path="url(#clip0_1031_2467)">
<path d="M49.8065 94.8023L53.6225 97.5495C49.467 103.778 43.5324 106.738 36.8369 108.207C21.1983 111.605 6.91753 104.086 1.90758 90.0421C-3.33648 75.3351 2.52802 59.8584 15.8606 53.097C29.556 46.1461 47.7814 51.2615 53.4117 61.8004L50.0288 64.4765C35.7247 52.9549 21.2217 52.6351 11.6232 63.4345C7.67858 68.068 5.57882 74.0202 5.73244 80.1332C5.88605 86.2461 8.282 92.0827 12.4542 96.5075C22.2986 106.585 36.7783 106.052 49.8065 94.8023Z" fill="#FFE201"/>
<path d="M86.9838 63.2095C83.004 71.6879 79.4571 79.2072 75.9221 86.7383C73.2766 92.3867 70.4674 97.964 68.1029 103.719C66.6982 107.094 64.72 108.195 60.6465 106.833L86.9018 50.1958C96.2662 69.5091 104.32 88.0882 113.181 107.034L107.527 107.52L86.9838 63.2095Z" fill="#FFE201"/>
<path d="M125.46 107.106L102.33 52.2918C107.48 50.7406 107.551 50.705 109.353 55.0153C114.036 66.1462 118.718 77.3008 123.4 88.4435C124.149 90.2079 124.98 91.9368 126.186 94.5774C129.358 87.2357 132.191 80.723 134.988 74.2102C137.786 67.6974 140.654 61.3505 143.182 54.8258C144.528 51.38 146.53 50.3261 150.334 51.8655L126.724 107.141L125.46 107.106Z" fill="#FFE201"/>
<path d="M155.953 43.8605C156.89 43.9671 158.095 41.5869 158.47 40.9238C162.251 34.2571 151.025 27.8983 145.523 29.4258C144.353 29.7692 141.356 32.1612 141.438 33.5348C141.169 28.964 143.136 26.8089 147.829 26.5129C149.833 26.3255 151.852 26.6209 153.72 27.375C155.589 28.1291 157.255 29.3203 158.581 30.8511C159.906 32.3818 160.855 34.2086 161.349 36.1818C161.842 38.1549 161.866 40.2182 161.419 42.2027C166.102 41.1133 168.22 39.0647 168.817 34.9439C169.613 29.4614 166.687 26.1221 161.794 23.6828L163.128 19.633C167.296 18.8989 171.685 25.5537 172.704 33.4282C176.344 25.9563 174.413 20.7343 165.259 13.5939C165.392 12.6813 165.587 11.7791 165.844 10.8941C166.168 10.167 166.56 9.47305 167.015 8.82183C174.986 12.7176 177.55 19.787 178.72 27.8746C180.909 18.8515 178.392 11.5098 171.088 6.16935C168.408 4.20368 168.068 2.49853 169.918 0C179.551 3.89582 185.135 15.8201 182.337 26.6076C179.27 38.7213 169.309 45.4591 155.953 43.8605Z" fill="#FFE201"/>
<path d="M179.082 102.002H200V107.153H173.99V51.5694L179.082 51.2852V102.002Z" fill="#FFE201"/>
<path d="M162.612 107.212H157.742V51.5576H162.612V107.212Z" fill="#FFE201"/>
<path d="M191.162 61.8001C189.706 61.8001 188.309 61.215 187.28 60.1735C186.25 59.132 185.672 57.7194 185.672 56.2465C185.675 54.7745 186.254 53.3638 187.283 52.3229C188.312 51.2821 189.707 50.696 191.162 50.6929C192.616 50.696 194.009 51.2825 195.036 52.3237C196.063 53.3649 196.64 54.7756 196.64 56.2465C196.64 57.7173 196.063 59.1281 195.036 60.1693C194.009 61.2105 192.616 61.797 191.162 61.8001ZM191.162 51.877C190.016 51.877 188.918 52.3374 188.108 53.1568C187.298 53.9762 186.842 55.0876 186.842 56.2465C186.842 57.4053 187.298 58.5167 188.108 59.3362C188.918 60.1556 190.016 60.616 191.162 60.616C192.305 60.6128 193.401 60.1511 194.209 59.332C195.016 58.5129 195.469 57.4033 195.469 56.2465C195.469 55.0897 195.016 53.9801 194.209 53.161C193.401 52.3419 192.305 51.8801 191.162 51.877Z" fill="#FFE201"/>
<path d="M188.693 51.7467C189.392 51.6196 190.102 51.5602 190.812 51.569C191.697 51.4755 192.584 51.7252 193.294 52.2677C193.514 52.4787 193.687 52.7345 193.802 53.0182C193.917 53.3019 193.971 53.6071 193.961 53.9136C193.97 54.4111 193.816 54.8976 193.524 55.298C193.232 55.6983 192.818 55.99 192.345 56.128C192.691 56.2769 192.991 56.517 193.213 56.8232C193.435 57.1294 193.572 57.4905 193.61 57.8687C193.76 58.6757 193.98 59.468 194.265 60.2369H193.095C192.832 59.5686 192.639 58.874 192.521 58.1647C192.264 56.9806 191.807 56.5187 190.8 56.4832H189.758V60.2369H188.658L188.693 51.7467ZM189.794 55.6898H190.964C192.135 55.6898 192.896 55.0386 192.896 54.0439C192.896 53.0492 192.088 52.4335 190.929 52.4216C190.559 52.4131 190.19 52.4488 189.829 52.5282L189.794 55.6898Z" fill="#FFE201"/>
<path d="M141.11 32.2915C141.11 32.2915 131.195 21.2079 140.079 8.25345L132.635 7.62586L146.892 0L145.511 15.3938L143.591 8.63237L141.519 8.43106C141.519 8.43106 135.327 15.7727 141.11 32.2915Z" fill="#FFE201"/>
</g>
<defs>
<clipPath id="clip0_1031_2467">
<rect width="200" height="109" fill="white"/>
</clipPath>
</defs>
</svg>
