<svg width="48" height="43" viewBox="0 0 48 43" fill="none" xmlns="http://www.w3.org/2000/svg">
<mask id="mask0_397_4037" style="mask-type:luminance" maskUnits="userSpaceOnUse" x="0" y="0" width="48" height="43">
<path d="M0 -0.000228882H47.5V42.5161H0V-0.000228882Z" fill="white"/>
</mask>
<g mask="url(#mask0_397_4037)">
<path d="M45 22.377C45 20.0688 44.5413 17.858 43.7 15.8116C43.125 21.8411 39.5338 24.938 35.7813 23.4958C32.265 22.1443 34.635 16.8756 34.81 14.3615C35.105 10.0998 34.795 5.22165 26.1463 1.16582C29.74 7.3195 26.5625 11.1415 23.2288 11.3753C19.5313 11.6327 16.1463 8.53122 17.3963 3.49638C13.3488 6.16596 13.23 10.6593 14.4788 13.566C15.7813 16.5959 14.4275 19.1133 11.25 19.393C7.70127 19.7063 5.72877 15.9906 7.54752 10.0696C4.28254 13.5038 2.49285 17.8677 2.50002 22.377C2.50002 32.8819 12.0138 41.3975 23.75 41.3975C35.4863 41.3975 45 32.8819 45 22.377Z" fill="#F4900C"/>
</g>
<mask id="mask1_397_4037" style="mask-type:luminance" maskUnits="userSpaceOnUse" x="2" y="0" width="43" height="42">
<path d="M22.7288 11.1043C19.0325 11.3628 15.6463 8.26022 16.8963 3.22539C12.8475 5.89497 12.7313 10.3894 13.98 13.295C15.2813 16.3249 13.9275 18.8423 10.75 19.122C7.20127 19.4353 5.23002 15.7185 7.04752 9.79864C3.78254 13.2328 1.99285 17.5967 2.00002 22.106C2.00002 32.6109 11.5138 41.1265 23.25 41.1265C34.9863 41.1265 44.5 32.6109 44.5 22.106C44.5 19.7978 44.0413 17.587 43.2 15.5406C42.625 21.569 39.0338 24.667 35.2813 23.2248C31.7663 21.8733 34.135 16.6046 34.31 14.0906C34.605 9.82885 34.295 4.95066 25.6463 0.894821C29.24 7.04738 26.0625 10.8716 22.7288 11.1043Z" fill="white"/>
</mask>
<g mask="url(#mask1_397_4037)">
<path d="M38.25 34.4131C38.25 31.9662 37.52 29.6737 36.2438 27.6989C36.4275 31.1495 33.0413 32.5021 31.2188 31.8487C28.5875 30.9055 29.2925 29.2854 28.615 25.9289C27.9375 22.5723 25.3338 20.2407 21.4788 19.2158C24.2913 26.3015 19.92 28.9129 17.6288 29.3794C15.2888 29.8561 12.9375 29.3783 12.6688 24.8962C11.2664 26.1426 10.1538 27.6254 9.39539 29.2589C8.63696 30.8924 8.24766 32.6442 8.25001 34.4131C8.25001 41.8278 14.9663 47.8394 23.25 47.8394C31.5338 47.8394 38.25 41.8278 38.25 34.4131Z" fill="#FFCC4D"/>
</g>
</svg>
