<svg width="155" height="174" viewBox="0 0 155 174" fill="none" xmlns="http://www.w3.org/2000/svg">
<g clip-path="url(#clip0_519_2525)">
<path d="M51.1639 151.687C51.4658 151.031 51.7196 150.354 51.9232 149.662C53.4918 145.158 55.0541 140.652 56.6102 136.145C56.9008 135.301 56.9851 135.498 56.2446 134.839L55.3072 134.007C55.3759 133.748 55.5572 133.823 55.6853 133.823C57.6601 133.798 59.6348 133.773 61.6221 133.761C62.5158 133.761 62.3627 133.704 62.6501 134.514C64.3958 139.403 66.1414 144.298 67.8871 149.199C67.959 149.512 68.0928 149.808 68.2808 150.068C69.2526 149.596 70.2306 149.096 71.3211 149C71.3383 148.947 71.3431 148.892 71.3349 148.838C71.3268 148.783 71.306 148.732 71.2742 148.687C69.9931 146.647 69.7306 144.394 69.915 142.056C69.9814 141.183 70.1675 140.323 70.4681 139.501C70.8534 138.344 71.5019 137.293 72.3623 136.43C73.2228 135.567 74.2718 134.915 75.4269 134.526C77.1612 133.847 79.0664 133.738 80.8669 134.214C84.4228 135.213 86.5476 137.848 87.0756 141.425C87.3962 143.565 87.0845 145.751 86.1789 147.715C85.4071 149.431 84.2666 150.815 82.4761 151.559C82.4386 151.559 82.4137 151.624 82.3543 151.693C82.5411 151.917 82.7666 152.105 83.0198 152.249C84.8134 153.537 86.8194 153.943 88.9879 153.718C90.0066 153.611 91.0002 153.383 91.997 153.183C92.0814 153.443 91.8876 153.524 91.7751 153.636C89.3785 156.002 86.5601 156.624 83.3573 155.668C81.5762 155.136 79.9202 154.299 78.2828 153.458C76.7924 152.699 75.3113 151.915 73.7583 151.29C72.3523 150.692 70.8552 150.337 69.3307 150.24C68.2464 150.187 68.2464 150.196 68.5839 151.193C68.703 151.408 68.7684 151.648 68.7745 151.893C68.7214 152.021 68.612 152.012 68.5214 152.012C67.2465 152.012 65.9717 152.012 64.6968 152.012C64.6255 152.023 64.5527 152.02 64.4825 152.003C64.4123 151.987 64.3462 151.956 64.288 151.913C64.2299 151.87 64.1808 151.816 64.1437 151.754C64.1066 151.693 64.0821 151.624 64.0719 151.552C63.7594 150.496 63.4001 149.462 63.1001 148.406C63.0884 148.327 63.0611 148.252 63.0197 148.185C62.9784 148.117 62.9239 148.059 62.8595 148.013C62.795 147.967 62.722 147.934 62.6447 147.917C62.5674 147.899 62.4874 147.898 62.4095 147.912C61.1128 147.931 59.8129 147.912 58.5443 147.912C58.3631 147.712 58.4662 147.553 58.5193 147.397C58.7662 146.662 59.0412 145.937 59.2536 145.209C59.3755 144.775 59.5661 144.584 60.0411 144.628C60.6347 144.672 61.2347 144.628 61.944 144.628L60.0161 137.519C59.8059 137.718 59.6759 137.987 59.6505 138.276C58.4006 142.619 57.1612 146.964 55.9321 151.312C55.7384 152.002 55.7353 152.005 55.0447 152.005C52.52 152.005 49.9953 151.99 47.4705 152.005C47.2642 152.029 47.0556 151.987 46.8748 151.885C46.694 151.783 46.5503 151.626 46.4644 151.437C45.7238 150.078 44.952 148.734 44.1709 147.397C43.7824 146.726 43.3248 146.097 42.8054 145.522C42.2648 144.919 41.5868 145.059 40.9306 145.075C40.7681 145.075 40.7431 145.219 40.74 145.347C40.7369 145.475 40.74 145.697 40.74 145.872C40.74 147.697 40.74 149.521 40.74 151.346C40.74 151.971 40.74 151.971 40.1151 151.971C38.9902 151.971 37.8653 151.971 36.7404 152.002C36.3436 152.002 36.2342 151.868 36.2374 151.484C36.2374 147.434 36.2374 143.384 36.2374 139.335C36.2374 138.957 36.3342 138.797 36.7404 138.804C37.8653 138.827 38.9902 138.827 40.1151 138.804C40.4963 138.804 40.6556 138.91 40.6431 139.31C40.6181 139.96 40.6431 140.61 40.6431 141.26C40.6431 141.607 40.7494 141.763 41.1181 141.747C41.6649 141.728 42.218 141.722 42.7648 141.747C44.199 141.816 44.7864 140.882 45.0552 139.994C45.1924 139.537 45.2117 139.052 45.1114 138.585C45.0537 138.224 44.8873 137.888 44.6345 137.624C44.3816 137.359 44.0543 137.178 43.6959 137.104C43.3541 137.031 43.0048 136.999 42.6554 137.007C40.7306 137.007 38.8058 137.007 36.881 137.007C36.2936 137.007 36.2311 136.988 36.2936 136.445C36.3708 136.04 36.3184 135.622 36.1439 135.25C35.9694 134.877 35.6817 134.569 35.3218 134.37C35.1178 134.277 34.9577 134.109 34.875 133.901C34.9531 133.748 35.0937 133.798 35.2062 133.795C38.1059 133.773 41.0025 133.729 43.9022 133.742C45.3997 133.698 46.856 134.237 47.9642 135.245C49.4984 136.679 49.6672 138.466 49.086 140.357C48.8735 141.174 48.4614 141.926 47.8865 142.544C47.3116 143.163 46.5921 143.628 45.7926 143.9C46.4883 144.446 47.099 145.093 47.6049 145.819C48.436 146.978 49.1672 148.2 49.8765 149.434C50.2983 150.165 50.7139 150.899 51.1639 151.687ZM83.1011 143.091C83.0792 142.741 83.073 142.391 83.0292 142.044C82.9169 140.869 82.4653 139.752 81.7294 138.829C80.8419 137.763 79.6796 137.188 78.2922 137.351C77.501 137.419 76.7428 137.699 76.0973 138.161C75.4517 138.623 74.9427 139.251 74.6239 139.979C73.5209 142.378 73.7396 144.722 75.0488 146.997C76.5487 149.593 80.7732 149.643 82.2137 146.765C82.7909 145.626 83.0947 144.368 83.1011 143.091Z" fill="white"/>
<path d="M20.5103 167.807C22.0726 169.37 23.0756 171.307 24.3224 173.182C25.0661 171.11 25.7754 169.138 26.4815 167.167C27.1877 165.195 27.9064 163.17 28.625 161.174C28.8344 160.589 28.8407 160.589 29.4781 160.586H31.8747C32.5902 160.586 32.5934 160.586 32.8121 161.239L36.2242 170.991L37.0116 173.253C37.1197 173.452 37.1487 173.684 37.0929 173.903C36.0742 173.903 35.0306 173.903 33.9901 173.903C33.7214 173.903 33.6776 173.719 33.612 173.522C33.4339 172.925 33.2621 172.325 33.0808 171.729C32.8996 171.132 32.8996 171.132 32.3309 171.129C31.2352 171.129 30.1363 171.129 29.0344 171.129C28.4626 171.129 28.4594 171.129 28.2782 171.726C28.097 172.322 27.8939 172.913 27.7283 173.513C27.7112 173.635 27.6463 173.745 27.5479 173.82C27.4495 173.894 27.3256 173.927 27.2033 173.91C25.2556 173.91 23.3079 173.919 21.3602 173.938C21.2231 173.944 21.0877 173.906 20.9747 173.828C20.8618 173.75 20.7776 173.637 20.7353 173.507C20.2016 172.406 19.5743 171.353 18.8605 170.36C18.598 169.998 18.3074 169.654 18.0137 169.313C17.8784 169.132 17.6819 169.005 17.4606 168.957C16.7388 168.829 16.5826 168.957 16.5795 169.688C16.5795 170.91 16.5795 172.135 16.5795 173.36C16.5795 173.885 16.5795 173.894 16.0389 173.9C15.264 173.9 14.4766 173.9 13.7173 173.9C13.4329 173.9 13.2954 173.797 13.3142 173.507C13.3142 173.357 13.3142 173.194 13.3142 173.057V161.373C13.3142 161.224 13.3142 161.061 13.3142 160.924C13.2954 160.611 13.4548 160.536 13.7266 160.542C14.1266 160.542 14.5266 160.542 14.9265 160.542H18.898C19.6251 160.536 20.3449 160.689 21.0071 160.989C22.3382 161.595 23.06 162.623 23.0569 164.114C23.0538 165.604 22.4507 166.82 21.0884 167.567C20.929 167.648 20.7353 167.713 20.5103 167.807ZM16.5451 164.604C16.5388 164.728 16.5388 164.852 16.5451 164.976C16.592 165.439 16.3326 166.029 16.6669 166.332C17.0013 166.635 17.5731 166.435 18.0356 166.426C18.488 166.421 18.9208 166.24 19.2422 165.922C19.5636 165.604 19.7483 165.172 19.7572 164.72C19.8385 163.701 19.2917 162.98 18.2762 162.845C17.8314 162.808 17.385 162.795 16.9388 162.805C16.6513 162.805 16.5357 162.92 16.542 163.201C16.5513 163.661 16.5451 164.133 16.5451 164.604ZM32.0809 168.354C31.725 166.717 31.2626 165.106 30.6967 163.53C30.153 165.145 29.6062 166.76 29.0344 168.46H31.431C31.6525 168.493 31.8787 168.459 32.0809 168.363V168.354Z" fill="white"/>
<path d="M0 133.936C0.229035 133.859 0.472084 133.832 0.712414 133.858L9.63335 133.83C10.297 133.813 10.957 133.932 11.5732 134.18C12.1894 134.427 12.7488 134.797 13.2173 135.267C15.1921 137.223 14.8671 140.045 12.508 141.516C12.2143 141.697 11.9018 141.857 11.6019 142.022C11.6331 142.282 11.8612 142.238 12.005 142.294C12.8131 142.579 13.5262 143.083 14.0647 143.749C14.6032 144.416 14.9459 145.219 15.0546 146.069C15.3671 147.944 14.6703 149.465 13.133 150.568C11.8704 151.485 10.3532 151.986 8.79281 152C6.64304 152.031 4.4964 152 2.34663 152C1.72169 152 1.72169 152 1.72169 151.375C1.72169 147.379 1.72169 143.382 1.72169 139.382C1.72169 138.757 1.72168 138.757 2.31537 138.757C3.31526 138.757 4.31516 138.757 5.31193 138.757C5.93686 138.757 5.93686 138.757 5.93686 139.357C5.93686 139.782 5.93686 140.207 5.93686 140.632C5.93686 140.919 6.0306 141.035 6.32119 141.032C6.97112 141.032 7.62417 141.079 8.26785 141.01C9.09276 140.919 9.83018 140.598 10.1614 139.76C10.4739 138.985 10.2427 138.285 9.7677 137.654C9.58924 137.411 9.35289 137.216 9.08006 137.087C8.80724 136.959 8.50659 136.9 8.20537 136.917C6.33057 136.936 4.45577 136.917 2.58098 136.917H2.05603C1.80294 136.917 1.66232 136.792 1.71544 136.551C1.95604 135.495 1.31236 134.954 0.543689 134.473C0.378712 134.361 0.222072 134.236 0.0749889 134.101C0.0531162 134.083 0.0437453 134.026 0 133.936ZM5.93686 146.463C5.93686 147.088 5.93686 147.712 5.93686 148.337C5.93686 148.619 6.03372 148.747 6.32119 148.74C7.19297 148.74 8.06788 148.781 8.93653 148.719C9.50219 148.677 10.0313 148.423 10.4182 148.009C10.8052 147.594 11.0214 147.049 11.0238 146.481C11.0051 145.231 10.0583 144.163 8.8678 144.138C8.02414 144.119 7.17736 144.185 6.33057 144.197C6.04623 144.197 5.93061 144.319 5.93686 144.6C5.94311 145.219 5.93686 145.841 5.93686 146.463Z" fill="white"/>
<path d="M137.822 133.867C137.963 133.701 138.135 133.761 138.319 133.761C141.166 133.742 144.015 133.717 146.862 133.72C148.045 133.724 149.202 134.06 150.202 134.692C152.027 135.823 152.733 137.895 152.108 140.151C151.608 141.91 150.624 143.044 148.852 143.878C151.277 146.141 152.602 149.115 154.258 151.884C154.167 151.944 154.065 151.986 153.958 152.007C153.85 152.028 153.74 152.028 153.633 152.006C152.536 152.006 151.446 152.006 150.337 152.021C150.165 152.04 149.993 152.002 149.844 151.915C149.696 151.828 149.579 151.695 149.512 151.537C149.049 150.681 148.574 149.837 148.074 148.993C147.649 148.259 147.218 147.525 146.771 146.806C146.485 146.365 146.166 145.948 145.815 145.556C145.29 144.931 144.612 145.053 143.94 145.084C143.784 145.084 143.734 145.206 143.728 145.341C143.722 145.475 143.728 145.691 143.728 145.866C143.728 147.69 143.728 149.515 143.728 151.337C143.728 151.962 143.728 151.962 143.125 151.981C142 151.981 140.875 152.006 139.75 152.002C139.228 152.002 139.219 152.002 139.213 151.456C139.213 150.518 139.213 149.556 139.213 148.606V139.747C139.213 139.573 139.213 139.398 139.213 139.223C139.213 138.91 139.36 138.773 139.669 138.804C139.744 138.804 139.819 138.804 139.894 138.804C140.919 138.804 141.944 138.804 142.969 138.804C143.644 138.804 143.644 138.804 143.647 139.513C143.647 140.088 143.665 140.663 143.647 141.238C143.647 141.607 143.781 141.719 144.128 141.713C144.778 141.713 145.428 141.713 146.078 141.713H146.153C147.262 141.635 148.096 140.622 148.149 139.294C148.199 138.029 147.524 137.192 146.346 137.035C146.098 137.013 145.849 137.007 145.6 137.017H139.825C139.294 137.017 139.219 136.992 139.294 136.488C139.441 135.52 139.053 134.87 138.282 134.361C138.175 134.315 138.079 134.247 138 134.162C137.92 134.077 137.86 133.977 137.822 133.867Z" fill="white"/>
<path d="M16.0508 133.832H17.5444C18.8692 133.832 20.1941 133.832 21.5189 133.832C22.2095 133.832 22.2157 133.832 22.2157 134.523C22.2157 138.122 22.3189 141.709 22.1845 145.321C22.0814 148.009 24.7561 148.962 26.4497 148.38C26.9459 148.234 27.3865 147.941 27.7137 147.54C28.0409 147.14 28.2396 146.649 28.2838 146.134C28.3198 145.786 28.3324 145.436 28.3213 145.087C28.3213 141.637 28.3213 138.188 28.3213 134.738C28.3213 134.563 28.3213 134.388 28.3213 134.213C28.3213 133.976 28.3901 133.832 28.6557 133.832H32.4053C32.8052 133.832 32.7334 134.119 32.7177 134.363C32.6927 136.138 32.6615 137.913 32.6428 139.675C32.6198 141.758 32.6042 143.833 32.5959 145.899C32.6046 146.627 32.4583 147.348 32.1669 148.014C31.8754 148.681 31.4454 149.277 30.9054 149.765C29.4462 151.143 27.6589 151.793 25.6935 151.98C24.3969 152.124 23.0846 151.97 21.8564 151.53C20.6878 151.129 19.6755 150.37 18.9641 149.36C18.2526 148.35 17.8782 147.141 17.8943 145.906C17.8943 143.156 17.8943 140.406 17.8725 137.657C17.8725 137.007 17.9599 136.313 17.7631 135.722C17.5662 135.132 16.8913 134.866 16.4601 134.419C16.3289 134.269 16.0977 134.179 16.0508 133.832Z" fill="white"/>
<path d="M120.405 151.93C120.394 151.631 120.466 151.335 120.612 151.074C122.328 146.12 124.044 141.168 125.758 136.216C126.105 135.213 126.164 135.47 125.346 134.732L124.483 133.96C124.539 133.735 124.68 133.76 124.796 133.76C126.87 133.76 128.942 133.76 131.017 133.704C131.186 133.68 131.359 133.722 131.497 133.822C131.636 133.923 131.731 134.073 131.76 134.242C133.81 140.028 135.866 145.813 137.929 151.596C137.958 151.688 137.983 151.782 138.004 151.877C137.86 152.058 137.691 151.99 137.516 151.99C136.316 151.99 135.116 151.99 133.916 151.99C133.839 152.002 133.759 151.998 133.682 151.979C133.606 151.96 133.534 151.926 133.471 151.878C133.408 151.831 133.355 151.771 133.316 151.703C133.276 151.634 133.251 151.559 133.242 151.48C132.963 150.496 132.638 149.524 132.329 148.549C132.12 147.893 132.117 147.89 131.392 147.89H127.642C127.583 147.478 127.783 147.175 127.886 146.85C128.055 146.303 128.248 145.762 128.433 145.218C128.642 144.612 128.642 144.594 129.251 144.594H130.967C131.029 144.006 130.114 140.391 129.17 137.466C128.895 137.669 128.908 137.988 128.833 138.244C127.611 142.516 126.405 146.79 125.18 151.055C124.886 152.083 125.136 151.958 124.002 151.965C122.868 151.971 121.705 151.965 120.565 151.965C120.51 151.962 120.456 151.95 120.405 151.93Z" fill="white"/>
<path d="M93.5625 151.603C94.6079 151.411 95.6385 151.146 96.6465 150.809C96.8324 150.737 97.0223 150.675 97.2152 150.625C97.962 150.468 98.4339 150.121 98.2526 149.253C98.1776 148.887 98.4057 148.797 98.7401 148.793C99.7633 148.837 100.788 148.813 101.808 148.722C102.158 148.682 102.496 148.576 102.805 148.409C103.005 148.304 103.177 148.154 103.31 147.972C103.443 147.789 103.532 147.579 103.572 147.357C103.611 147.135 103.599 146.907 103.536 146.69C103.474 146.473 103.363 146.274 103.211 146.106C102.87 145.739 102.455 145.447 101.993 145.25C101.205 144.878 100.402 144.531 99.6087 144.166C98.9004 143.851 98.2261 143.465 97.5964 143.013C94.6561 140.854 95.2029 137.076 97.5152 135.292C98.5691 134.523 99.7974 134.028 101.09 133.851C102.155 133.714 103.23 133.679 104.302 133.748C104.577 133.748 104.721 133.848 104.718 134.139C104.718 135.014 104.718 135.889 104.718 136.764C104.718 137.104 104.561 137.188 104.255 137.182C103.605 137.182 102.958 137.182 102.308 137.182C101.732 137.163 101.158 137.27 100.627 137.495C99.615 137.963 99.4306 139.032 100.231 139.819C100.577 140.146 100.982 140.406 101.424 140.585C102.224 140.935 103.03 141.269 103.833 141.613C104.574 141.917 105.275 142.307 105.924 142.775C107.623 144.025 108.239 146.041 107.798 148.109C107.635 148.821 107.272 149.471 106.752 149.984C105.502 151.281 104.008 152.034 102.168 152.024C100.046 152.024 97.9214 152.024 95.7966 152.024C95.1472 152.025 94.4997 151.955 93.8656 151.815C93.7562 151.803 93.625 151.793 93.5625 151.603Z" fill="white"/>
<path d="M106.536 133.826C107.473 133.804 108.411 133.764 109.348 133.761C113.473 133.746 117.597 133.737 121.722 133.732H122.034C122.597 133.732 122.603 133.732 122.609 134.326C122.609 135.159 122.609 135.984 122.609 136.801C122.609 137.426 122.609 137.426 121.984 137.426C120.709 137.426 119.435 137.426 118.16 137.426C117.45 137.426 117.479 137.382 117.479 138.132V151.181C117.479 152.052 117.557 151.999 116.679 151.999C115.741 151.999 114.779 151.999 113.829 151.999C113.295 151.999 113.285 151.984 113.279 151.465C113.279 150.615 113.279 149.765 113.279 148.915V138.416C113.279 138.241 113.279 138.063 113.279 137.891C113.313 137.523 113.138 137.416 112.792 137.42C111.542 137.42 110.292 137.42 109.042 137.42C108.867 137.42 108.692 137.42 108.517 137.42C108.236 137.438 108.101 137.326 108.111 137.032C108.111 136.657 108.076 136.279 108.111 135.907C108.142 135.697 108.108 135.483 108.013 135.294C107.917 135.104 107.766 134.948 107.58 134.848C107.192 134.582 106.842 134.257 106.477 133.957L106.536 133.826Z" fill="white"/>
<path d="M67.1171 168.823V168.104C67.1171 165.813 67.1171 163.513 67.1171 161.205C67.1171 160.58 67.1171 160.561 67.7827 160.558C68.4482 160.555 69.1825 160.558 69.8793 160.558C70.398 160.558 70.4105 160.574 70.4105 161.114C70.4105 163.089 70.4105 165.064 70.4105 167.051V173.125C70.4105 173.982 70.4824 173.919 69.5856 173.919C68.9107 173.919 68.2357 173.891 67.5639 173.919C67.3685 173.942 67.1707 173.904 66.9985 173.808C66.8264 173.713 66.6885 173.566 66.6047 173.388C65.0798 170.982 63.5425 168.586 61.9927 166.201C61.8516 165.917 61.6526 165.666 61.4083 165.464C61.3802 166.089 61.3334 166.604 61.3302 167.129C61.3146 169.204 61.3146 171.279 61.3052 173.354C61.3052 173.932 61.3052 173.938 60.7365 173.941C60.0116 173.941 59.2867 173.941 58.5493 173.941C58.2368 173.941 58.0806 173.841 58.1087 173.51C58.1165 173.36 58.1165 173.21 58.1087 173.06V161.436C58.1087 161.261 58.1087 161.086 58.1087 160.911C58.1087 160.677 58.1743 160.536 58.443 160.536C59.4429 160.536 60.4428 160.536 61.4427 160.536C61.7989 160.536 61.8833 160.82 62.0239 161.042C63.1571 162.84 64.2872 164.639 65.4142 166.439C65.8391 167.114 66.2578 167.795 66.6922 168.467C66.8046 168.585 66.8046 168.804 67.1171 168.823Z" fill="white"/>
<path d="M38.6582 167.201C38.6582 165.203 38.6582 163.206 38.6582 161.208C38.6582 160.564 38.6582 160.555 39.3206 160.558C40.9923 160.558 42.6671 160.558 44.3388 160.592C46.7761 160.658 48.5821 161.789 49.6508 163.998C50.1099 164.918 50.369 165.924 50.411 166.951C50.4531 167.978 50.277 169.003 49.8945 169.957C48.9571 172.391 47.0823 173.707 44.5326 173.866C42.7671 173.988 40.9861 173.891 39.2206 173.913C38.8332 173.913 38.7644 173.744 38.7707 173.416C38.7707 172.769 38.7707 172.119 38.7707 171.469C38.7707 170.048 38.7707 168.623 38.7707 167.201H38.6582ZM41.7829 167.279C41.7829 168.454 41.7829 169.626 41.7829 170.801C41.7829 171.197 41.9235 171.329 42.3047 171.31C42.7796 171.285 43.2421 171.31 43.7295 171.31C44.3074 171.302 44.874 171.149 45.377 170.865C45.8801 170.58 46.3032 170.173 46.6073 169.682C47.6978 168.02 47.3604 165.307 45.9199 163.939C45.6841 163.697 45.4001 163.507 45.0863 163.381C44.7725 163.256 44.4359 163.198 44.0982 163.211C43.4983 163.233 42.8984 163.261 42.3016 163.251C41.9203 163.251 41.7766 163.373 41.7829 163.767C41.7829 164.932 41.7704 166.107 41.7704 167.279H41.7829Z" fill="white"/>
<path d="M83.2562 163.982C82.1268 163.39 80.8695 163.083 79.5941 163.088C78.9936 163.1 78.3992 163.211 77.8349 163.416C76.6226 163.876 75.8227 164.719 75.6133 166.019C75.4508 166.957 75.4635 167.917 75.6508 168.85C75.932 170.181 76.7913 170.922 78.0912 171.169C78.7598 171.267 79.4383 171.277 80.1097 171.2C80.3878 171.178 80.5128 171.066 80.5065 170.781C80.5065 170.331 80.4878 169.881 80.5065 169.431C80.5253 169.05 80.3378 168.972 80.0066 168.982C79.4566 168.997 78.9067 168.982 78.3568 168.982C78.0443 168.982 77.9068 168.882 77.9131 168.55C77.9131 167.925 77.9131 167.3 77.8881 166.676C77.8881 166.391 78.0037 166.276 78.2911 166.276C79.9868 166.29 81.6856 166.297 83.3875 166.297C83.7156 166.297 83.8312 166.429 83.8218 166.747C83.8218 167.344 83.8218 167.947 83.8218 168.547C83.8218 169.847 83.8218 171.147 83.8218 172.447C83.8415 172.606 83.8068 172.767 83.7234 172.903C83.64 173.04 83.5128 173.145 83.3625 173.2C82.5146 173.633 81.5877 173.89 80.6378 173.956C79.5629 174 78.4849 174.012 77.4131 173.956C76.5321 173.923 75.6742 173.665 74.9215 173.206C74.1688 172.747 73.5463 172.103 73.1136 171.334C71.4669 168.61 71.4294 164.46 74.7728 161.823C75.7639 161.002 77.0103 160.552 78.2974 160.551C79.5473 160.551 80.7971 160.442 82.047 160.682C83.1875 160.901 83.2 160.898 83.2531 162.01C83.2781 162.629 83.2562 163.248 83.2562 163.982Z" fill="white"/>
<path d="M108.364 160.52C111.43 160.389 114.926 162.995 114.926 167.27C114.936 169.027 114.253 170.717 113.024 171.974C111.796 173.23 110.121 173.952 108.364 173.981C104.721 173.981 101.802 170.975 101.762 167.238C101.74 163.426 104.908 160.398 108.364 160.52ZM111.82 167.185C111.808 166.04 111.361 164.942 110.57 164.114C110.287 163.804 109.943 163.556 109.558 163.387C109.174 163.217 108.759 163.13 108.339 163.13C107.919 163.13 107.504 163.217 107.12 163.387C106.736 163.556 106.391 163.804 106.108 164.114C104.508 165.732 104.483 168.666 106.055 170.31C106.35 170.646 106.716 170.913 107.125 171.092C107.535 171.271 107.979 171.358 108.426 171.347C108.873 171.336 109.312 171.227 109.712 171.028C110.112 170.829 110.464 170.544 110.742 170.194C111.444 169.35 111.825 168.284 111.817 167.185H111.82Z" fill="white"/>
<path d="M115.713 120.943C116.094 121.568 116.687 121.568 117.294 121.537C118.069 121.515 118.856 121.537 119.615 121.537C120.228 121.556 120.816 121.781 121.286 122.175C121.756 122.568 122.08 123.109 122.206 123.709C122.29 124.1 122.299 124.504 122.234 124.899C122.19 125.13 122.302 125.212 122.515 125.227C123.14 125.227 123.765 125.277 124.39 125.246C124.498 125.252 124.606 125.234 124.707 125.195C124.808 125.156 124.899 125.096 124.975 125.019C125.051 124.942 125.11 124.85 125.148 124.748C125.186 124.647 125.203 124.539 125.196 124.43C125.219 124.032 125.219 123.632 125.196 123.234C125.196 122.893 125.29 122.728 125.661 122.746C126.149 122.768 126.636 122.746 127.293 122.746C126.668 123.371 126.793 123.996 126.814 124.605C126.861 125.855 126.046 126.83 124.577 126.793C120.881 126.746 117.184 126.793 113.488 126.774C113.219 126.774 112.932 126.855 112.694 126.652C112.607 126.574 112.513 126.602 112.416 126.624C111.263 126.911 110.104 126.786 108.941 126.702C108.629 126.68 108.316 126.774 108.004 126.774C106.129 126.774 104.254 126.774 102.38 126.774C102.067 126.789 101.755 126.718 101.48 126.569C101.204 126.42 100.975 126.198 100.817 125.927C100.527 125.501 100.364 125.002 100.347 124.486C100.331 123.971 100.461 123.462 100.724 123.018C100.838 122.779 101.019 122.578 101.244 122.439C101.47 122.3 101.73 122.229 101.995 122.234C102.97 122.234 103.945 122.234 104.917 122.234C105.301 122.234 105.373 122.399 105.367 122.731C105.351 123.431 105.367 124.131 105.367 124.83C105.367 125.143 105.461 125.277 105.795 125.268C106.567 125.246 107.342 125.268 108.116 125.243C108.763 125.221 108.935 125.027 108.948 124.359C108.948 123.809 108.948 123.259 108.948 122.709C108.948 122.159 108.948 122.184 109.507 122.178C110.305 122.178 111.104 122.178 111.904 122.178C112.16 122.163 112.416 122.2 112.657 122.285C112.899 122.371 113.121 122.505 113.31 122.678C113.5 122.851 113.652 123.06 113.76 123.292C113.867 123.525 113.926 123.777 113.935 124.034C113.97 124.282 113.962 124.535 113.913 124.78C113.819 125.162 114.016 125.205 114.303 125.205C116.153 125.205 118 125.24 119.85 125.227C120.475 125.227 120.806 124.855 120.818 124.231C120.831 123.606 120.506 123.177 119.84 123.159C118.74 123.127 117.653 123.159 116.544 123.143C116.344 123.143 116.144 123.143 115.944 123.143C115.694 123.143 115.581 123.037 115.581 122.784C115.581 122.19 115.581 121.596 115.581 121.003L115.713 120.943ZM103.883 124.362C103.883 123.256 103.883 123.256 102.945 123.331C102.301 123.381 101.886 123.806 101.917 124.377C101.952 125.021 102.473 125.377 103.342 125.359C103.873 125.359 103.873 125.359 103.873 124.437L103.883 124.362ZM110.516 124.324C110.516 124.521 110.532 124.724 110.516 124.921C110.485 125.234 110.626 125.383 110.944 125.359C111.044 125.359 111.144 125.359 111.257 125.359C111.654 125.374 112.022 125.309 112.194 124.902C112.289 124.698 112.33 124.472 112.313 124.248C112.296 124.023 112.222 123.806 112.097 123.618C112.051 123.543 111.989 123.48 111.916 123.432C111.842 123.385 111.759 123.354 111.672 123.343C110.685 123.168 110.516 123.306 110.516 124.324Z" fill="white"/>
<path d="M36.1523 120.465C36.671 120.465 37.1897 120.465 37.7147 120.465C38.0271 120.465 38.1521 120.59 38.149 120.909C38.149 121.98 38.149 123.055 38.149 124.13C38.149 124.33 38.149 124.533 38.149 124.73C38.1434 124.906 38.205 125.077 38.3211 125.208C38.4372 125.34 38.5991 125.423 38.7739 125.439C38.9728 125.465 39.1735 125.473 39.3739 125.464H47.7698C48.1193 125.497 48.4716 125.447 48.7978 125.317C48.9512 125.26 49.0842 125.158 49.1798 125.026C49.2755 124.893 49.3296 124.734 49.3353 124.571C49.3343 124.407 49.2876 124.247 49.2003 124.108C49.1131 123.969 48.9888 123.858 48.8416 123.786C48.5719 123.652 48.2704 123.593 47.9698 123.618C47.0324 123.618 46.07 123.618 45.1201 123.618C44.5827 123.618 44.5764 123.618 44.5639 123.086C44.5639 122.668 44.5639 122.252 44.5639 121.793C45.1889 122.183 45.1889 122.183 46.0044 122.187C46.8199 122.19 47.6011 122.187 48.401 122.187C49.9352 122.205 50.8289 123.318 50.532 124.839C50.4678 125.004 50.4453 125.182 50.4664 125.358C50.632 125.502 50.8383 125.439 51.0289 125.442C52.2287 125.442 53.4286 125.442 54.6285 125.442C55.4596 125.442 55.6284 125.261 55.6596 124.427C55.7002 123.408 55.7002 123.405 56.7157 123.411C57.0122 123.38 57.3117 123.396 57.6031 123.458C57.725 123.674 57.5157 123.771 57.4438 123.908C57.3496 124.054 57.2691 124.207 57.2032 124.368C56.9532 125.221 57.1532 125.483 58.0312 125.486C59.1311 125.486 60.2185 125.486 61.3309 125.486C62.2277 125.486 62.4745 125.217 62.4808 124.308C62.4808 123.308 62.4808 122.308 62.4808 121.309C62.4808 120.727 62.4808 120.727 63.0494 120.712C63.1744 120.712 63.2994 120.712 63.4244 120.712C63.7806 120.684 63.9119 120.837 63.9087 121.193C63.9087 122.13 63.9087 123.093 63.9087 124.043C63.9024 124.292 63.9118 124.541 63.9368 124.789C64.0118 125.342 64.3243 125.624 64.8211 125.608C65.0598 125.614 65.2914 125.527 65.4665 125.364C65.6416 125.202 65.7464 124.978 65.7585 124.739C65.7898 124.018 65.7585 123.293 65.7585 122.568C65.7585 122.093 65.7585 121.63 65.7585 121.143C65.7585 120.83 65.846 120.674 66.1804 120.69C66.5772 120.705 66.9771 120.69 67.4708 120.69C67.049 121.337 67.1584 122.002 67.1584 122.652C67.1584 123.452 67.174 124.255 67.1584 125.052C67.124 126.155 66.6303 126.614 65.5242 126.639C65.1002 126.62 64.6755 126.627 64.2524 126.661C63.8181 126.727 63.4994 126.302 63.1557 126.392C62.7894 126.541 62.4007 126.628 62.0058 126.649C61.9308 126.649 61.8558 126.649 61.7808 126.649H38.7614C37.2835 126.649 36.5148 125.874 36.5085 124.383C36.5085 123.533 36.5085 122.683 36.5085 121.833C36.5085 121.371 36.5085 120.937 36.0586 120.63L36.1523 120.465Z" fill="white"/>
<path d="M154.425 163.986C154.084 163.986 153.859 163.749 153.593 163.627C152.534 163.133 151.453 162.777 150.266 163.083C150.024 163.144 149.789 163.228 149.563 163.333C147.375 164.383 146.475 167.664 147.863 169.664C148.76 170.96 150.091 171.27 151.562 171.141C152.31 171.065 153.045 170.895 153.75 170.635C153.99 170.502 154.263 170.438 154.537 170.451C154.597 171.253 154.605 172.057 154.562 172.86C154.562 173.063 154.393 173.173 154.25 173.26C153.922 173.492 153.548 173.65 153.153 173.722C151.682 174.033 150.163 174.043 148.688 173.751C147.48 173.501 146.378 172.888 145.529 171.995C144.68 171.101 144.123 169.969 143.935 168.751C143.229 164.483 146.091 160.861 150.416 160.568C151.637 160.46 152.868 160.554 154.059 160.846C154.396 160.933 154.568 161.058 154.55 161.449C154.506 162.283 154.531 163.13 154.425 163.986Z" fill="white"/>
<path d="M101.071 170.4C101.071 171.25 101.071 171.962 101.071 172.694C101.078 172.831 101.045 172.967 100.975 173.084C100.905 173.202 100.801 173.297 100.677 173.356C100.355 173.548 100.002 173.685 99.6338 173.759C98.116 174.096 96.5427 174.096 95.025 173.759C93.7421 173.437 92.5963 172.712 91.756 171.691C90.9157 170.67 90.4253 169.406 90.3567 168.085C90.138 164.679 92.069 161.995 94.9187 161.02C96.277 160.572 97.7192 160.437 99.137 160.626C99.6307 160.682 100.118 160.798 100.612 160.889C100.924 160.948 101.052 161.123 101.043 161.464C101.021 162.313 101.043 163.16 101.043 164.004C100.699 164.113 100.527 163.879 100.324 163.773C99.4951 163.299 98.5605 163.042 97.6059 163.023C95.7624 163.048 94.2407 164.41 93.8563 166.394C93.7499 166.832 93.7088 167.282 93.7345 167.732C93.9876 170.403 95.953 171.503 98.4652 171.144C99.3535 170.971 100.225 170.722 101.071 170.4Z" fill="white"/>
<path d="M6.49988 160.546C8.06221 160.546 9.64642 160.546 11.2212 160.546C11.7587 160.546 11.7681 160.561 11.7743 161.077C11.7743 161.652 11.7743 162.227 11.7743 162.802C11.7743 163.114 11.6587 163.242 11.3369 163.236C10.5369 163.236 9.73703 163.236 8.94024 163.236C8.29031 163.236 8.28407 163.236 8.28407 163.892C8.28407 166.917 8.28407 169.937 8.28407 172.954C8.28407 173.997 8.36531 173.857 7.34667 173.863C6.69674 173.863 6.0468 173.863 5.39687 173.863C5.01566 173.863 4.86568 173.754 4.87505 173.354C4.89693 172.304 4.87505 171.254 4.87505 170.207C4.87505 168.082 4.87505 165.959 4.87505 163.836C4.87505 163.23 4.87505 163.211 4.25012 163.211C3.37521 163.211 2.50032 163.211 1.62541 163.211C1.23483 163.211 1.09422 163.083 1.11296 162.695C1.13796 162.146 1.11296 161.596 1.11296 161.046C1.11296 160.496 1.11296 160.521 1.67227 160.518C3.30647 160.539 4.9063 160.546 6.49988 160.546Z" fill="white"/>
<path d="M135.549 167.22C135.549 165.195 135.549 163.158 135.549 161.148C135.549 160.542 135.549 160.524 136.174 160.524C136.924 160.524 137.674 160.508 138.424 160.524C139.02 160.524 139.03 160.524 139.03 161.148C139.03 164.098 139.03 167.045 139.03 169.991C139.03 171.376 138.852 171.154 140.226 171.169C141.251 171.169 142.276 171.185 143.298 171.169C143.679 171.169 143.835 171.272 143.817 171.675C143.789 172.247 143.817 172.822 143.817 173.397C143.817 173.972 143.817 173.985 143.242 173.985C141.517 173.985 139.805 173.985 138.07 173.985H136.271C135.568 173.985 135.561 173.985 135.561 173.294C135.553 171.267 135.549 169.242 135.549 167.22Z" fill="white"/>
<path d="M126.092 167.272C126.092 165.223 126.092 163.173 126.092 161.123C126.092 160.545 126.092 160.539 126.661 160.532C127.461 160.532 128.26 160.532 129.06 160.514C129.454 160.514 129.579 160.639 129.573 161.026C129.573 162.476 129.573 163.926 129.573 165.376C129.573 167.1 129.573 168.813 129.573 170.55C129.573 171.175 129.573 171.175 130.198 171.175C131.373 171.175 132.548 171.175 133.722 171.175C134.347 171.175 134.347 171.175 134.347 171.844C134.347 172.394 134.347 172.944 134.347 173.494C134.347 173.837 134.25 173.99 133.882 173.987C131.432 173.987 128.982 173.987 126.533 173.987C126.098 173.987 126.058 173.768 126.061 173.422C126.098 171.372 126.092 169.322 126.092 167.272Z" fill="white"/>
<path d="M52.1977 167.198C52.1977 165.198 52.1977 163.2 52.1977 161.202C52.1977 160.577 52.1977 160.577 52.8695 160.558C53.5413 160.539 54.1694 160.558 54.8193 160.558C55.3787 160.558 55.3849 160.558 55.3911 161.152C55.3974 161.746 55.3911 162.302 55.3911 162.877V172.997C55.3911 173.172 55.3911 173.347 55.3911 173.522C55.4099 173.835 55.2599 173.913 54.9818 173.91C54.1819 173.91 53.382 173.891 52.5852 173.91C52.204 173.91 52.1259 173.754 52.129 173.416C52.1477 171.854 52.1509 170.266 52.1571 168.695V167.195L52.1977 167.198Z" fill="white"/>
<path d="M92.1555 125.23C93.0929 125.343 93.3429 125.168 93.3804 124.346C93.4241 123.409 93.4022 122.446 93.4116 121.496C93.4116 121.246 93.4273 120.996 93.4273 120.746C93.4273 120.496 93.5522 120.346 93.8366 120.353C94.3865 120.353 94.9333 120.353 95.4864 120.353C95.4864 120.431 95.4864 120.509 95.4864 120.518C95.024 120.775 94.9802 121.184 94.9958 121.662C95.024 122.534 94.9958 123.409 94.9958 124.284C95.0006 124.609 94.9575 124.933 94.8677 125.246C94.6953 125.804 94.3093 126.272 93.7937 126.547C93.2781 126.822 92.6747 126.882 92.1149 126.715C92.0536 126.704 91.998 126.672 91.9575 126.625C91.917 126.577 91.8943 126.517 91.893 126.455C91.8774 126.286 91.868 126.118 91.8462 125.849C91.09 126.596 90.2057 126.786 89.2621 126.765C88.9546 126.775 88.6482 126.723 88.3614 126.612C88.0746 126.5 87.8134 126.332 87.5937 126.117C87.374 125.901 87.2003 125.644 87.0831 125.359C86.966 125.075 86.9079 124.769 86.9123 124.462C86.8967 124.04 86.9123 123.612 86.9123 123.187C86.9123 122.896 86.7686 122.843 86.5374 122.918C86.3311 122.976 86.1459 123.093 86.004 123.253C85.8622 123.414 85.7696 123.612 85.7374 123.824C85.6974 124.021 85.69 124.222 85.7156 124.421C85.9124 125.693 84.6657 126.674 83.4908 126.749C83.3172 126.763 83.1427 126.763 82.969 126.749C82.7003 126.727 82.3284 126.886 82.191 126.64C82.0003 126.296 82.1066 125.862 82.1378 125.468C82.1378 125.312 82.2941 125.293 82.4191 125.287C82.694 125.287 82.969 125.287 83.244 125.262C84.0845 125.205 84.4251 124.88 84.3907 124.034C84.3494 123.647 84.4016 123.257 84.543 122.895C84.6844 122.534 84.9108 122.211 85.2031 121.956C85.5127 121.659 85.9274 121.497 86.3561 121.506C86.8811 121.521 87.406 121.531 87.9185 121.506C88.3309 121.484 88.4278 121.662 88.4184 122.034C88.3965 122.709 88.4184 123.384 88.4184 124.059C88.4032 124.334 88.4524 124.609 88.5621 124.862C88.6517 125.097 88.8184 125.296 89.0351 125.425C89.2519 125.553 89.5059 125.605 89.7558 125.571C90.0318 125.536 90.2867 125.405 90.4749 125.2C90.6632 124.995 90.7726 124.73 90.7838 124.452C90.8166 123.903 90.8166 123.352 90.7838 122.802C90.7682 122.412 90.9088 122.284 91.2994 122.293C92.4336 122.321 92.2742 122.206 92.2805 123.231C92.3367 123.9 92.2946 124.573 92.1555 125.23Z" fill="white"/>
<path d="M139.657 119.547C139.857 120.187 140.229 120.672 140.063 121.069C139.898 121.465 139.292 121.425 138.879 121.584C138.367 121.781 137.848 121.959 137.342 122.172C137.129 122.262 136.867 122.328 136.77 122.681C137.255 122.77 137.751 122.788 138.242 122.734C139.004 122.697 139.623 122.834 139.941 123.631C140.285 124.499 140.138 125.587 139.56 126.159C139.447 126.275 139.311 126.367 139.162 126.429C139.012 126.492 138.851 126.523 138.688 126.521C136.292 126.521 133.895 126.521 131.502 126.521C131.27 126.523 131.039 126.478 130.825 126.387C130.611 126.297 130.418 126.163 130.258 125.995C130.098 125.827 129.974 125.628 129.894 125.41C129.814 125.192 129.779 124.959 129.793 124.728C129.778 124.502 129.81 124.276 129.887 124.064C129.965 123.852 130.086 123.658 130.242 123.495C130.398 123.333 130.587 123.204 130.796 123.118C131.005 123.032 131.229 122.991 131.455 122.997C132.13 122.972 132.805 122.997 133.477 122.997C133.814 122.997 133.908 123.137 133.895 123.45C133.877 123.896 133.895 124.346 133.895 124.796C133.895 125.109 133.983 125.256 134.314 125.253C135.489 125.253 136.661 125.253 137.835 125.253H137.91C138.442 125.181 138.798 124.868 138.779 124.487C138.76 124.106 138.42 123.862 137.898 123.837C137.526 123.815 137.151 123.837 136.776 123.837C136.401 123.837 136.076 123.837 135.726 123.837C135.376 123.837 135.005 123.796 134.867 123.396C134.776 123.203 134.743 122.988 134.772 122.777C134.802 122.565 134.892 122.367 135.033 122.206C135.28 121.954 135.566 121.743 135.879 121.581C136.669 121.151 137.499 120.8 138.357 120.531C138.848 120.353 139.363 120.247 139.657 119.547ZM132.411 124.546C132.411 123.84 132.411 123.84 131.883 123.846C131.258 123.846 130.871 124.159 130.874 124.603C130.877 125.046 131.224 125.278 131.842 125.278C132.424 125.284 132.424 125.284 132.424 124.549L132.411 124.546Z" fill="white"/>
<path d="M144.543 123.199C143.468 123.149 143.149 123.431 143.127 124.39C143.127 124.415 143.127 124.44 143.127 124.465C143.096 126.13 142.412 126.708 140.756 126.48C140.534 126.452 140.443 126.359 140.443 126.168C140.443 125.977 140.443 125.768 140.443 125.568C140.443 125.368 140.543 125.284 140.756 125.227C141.656 124.971 141.693 124.899 141.693 123.996C141.693 123.871 141.693 123.746 141.693 123.621C141.693 122.775 142.031 122.371 142.859 122.109C143.222 122.015 143.596 121.972 143.971 121.984C144.676 122.009 145.382 121.985 146.083 121.912C146.14 122.615 146.154 123.32 146.127 124.024C146.109 124.248 146.129 124.473 146.186 124.69C146.218 124.812 146.287 124.921 146.383 125.002C146.479 125.084 146.598 125.133 146.724 125.143C146.851 125.147 146.975 125.103 147.072 125.021C147.168 124.938 147.23 124.822 147.246 124.696C147.391 124.039 147.407 123.36 147.293 122.696C147.293 122.628 147.293 122.559 147.274 122.425C147.761 122.425 148.233 122.425 148.702 122.425C148.952 122.425 149.064 122.515 149.058 122.775C149.058 123.174 149.058 123.574 149.058 123.974C149.041 124.223 149.079 124.473 149.171 124.706C149.292 124.974 149.452 125.187 149.795 125.162C149.948 125.156 150.092 125.092 150.199 124.983C150.307 124.875 150.369 124.73 150.374 124.577C150.405 124.179 150.414 123.78 150.402 123.381C150.402 122.35 150.289 122.471 151.339 122.462H152.22C152.026 123.265 152.105 124.024 152.089 124.787C152.098 125.006 152.063 125.224 151.987 125.43C151.911 125.635 151.795 125.824 151.645 125.984C151.496 126.144 151.316 126.273 151.117 126.364C150.917 126.455 150.702 126.505 150.483 126.512C149.764 126.571 149.024 126.612 148.418 126.084C147.812 126.452 147.099 126.605 146.396 126.518C145.18 126.346 144.584 125.705 144.58 124.477L144.543 123.199Z" fill="white"/>
<path d="M70.2416 127.392C71.3727 127.411 72.6413 127.933 73.635 126.745C73.1558 126.488 72.7469 126.118 72.4441 125.666C72.1412 125.215 71.9536 124.696 71.8977 124.155C71.7619 123.282 71.9605 122.389 72.4539 121.655C72.9364 121.028 73.6252 120.592 74.3983 120.424C75.1714 120.256 75.9791 120.367 76.6784 120.737C78.2407 121.621 78.6719 123.508 77.7689 125.699C78.1533 125.917 78.6345 125.927 78.9813 126.233C79.0032 126.299 78.9813 126.336 78.925 126.333C77.8127 126.252 76.8159 126.614 75.8535 127.117C75.1186 127.54 74.3566 127.914 73.5725 128.236C73.0275 128.467 72.4262 128.531 71.8449 128.42C71.2635 128.308 70.7283 128.027 70.3072 127.611C70.2697 127.591 70.2418 127.556 70.2295 127.515C70.2172 127.474 70.2216 127.43 70.2416 127.392ZM76.719 123.802C76.7451 123.511 76.7132 123.217 76.6253 122.938C76.5373 122.66 76.395 122.401 76.2066 122.177C76.0679 122.007 75.8934 121.87 75.6955 121.775C75.4977 121.681 75.2813 121.631 75.0619 121.629C74.8426 121.628 74.6256 121.675 74.4264 121.767C74.2273 121.859 74.051 121.994 73.91 122.162C73.6278 122.574 73.4598 123.054 73.423 123.552C73.3862 124.05 73.482 124.549 73.7006 124.999C73.8399 125.268 74.0544 125.49 74.3179 125.639C74.5814 125.789 74.8826 125.858 75.1848 125.839C75.4872 125.82 75.7765 125.709 76.0151 125.522C76.2537 125.336 76.4304 125.081 76.5222 124.793C76.6642 124.482 76.7316 124.143 76.719 123.802Z" fill="white"/>
<path d="M29.9347 124.549C29.9347 125.099 29.9347 125.649 29.9347 126.195C29.9347 126.508 29.8253 126.639 29.5003 126.636C28.5629 126.636 27.6037 126.636 26.6569 126.636C26.4042 126.644 26.1559 126.568 25.9507 126.42C25.1727 125.852 25.0133 125.042 25.1227 124.155C25.1524 123.802 25.2923 123.466 25.5228 123.197C25.7532 122.927 26.0624 122.737 26.4069 122.652C27.4818 122.358 28.5942 122.536 29.6847 122.521C29.9316 122.521 29.9315 122.724 29.9315 122.902L29.9347 124.549ZM28.4255 124.549V124.208C28.4255 123.611 28.4255 123.611 27.8005 123.614C27.6768 123.605 27.5525 123.605 27.4287 123.614C27.229 123.627 27.0407 123.712 26.8984 123.853C26.756 123.993 26.6692 124.18 26.6538 124.38C26.6458 124.582 26.7019 124.782 26.8141 124.95C26.9264 125.118 27.089 125.247 27.2787 125.317C27.6055 125.449 27.9705 125.449 28.2974 125.317C28.5911 125.152 28.3723 124.771 28.4348 124.527L28.4255 124.549Z" fill="white"/>
<path d="M9.33008 127.758V123.78C9.33008 123.564 9.43319 123.468 9.64254 123.468C10.9643 123.468 12.2829 123.439 13.6046 123.468C13.9093 123.467 14.2046 123.573 14.4395 123.767C14.6745 123.961 14.8345 124.231 14.892 124.53C15.0732 125.205 15.0295 125.877 14.467 126.405C14.2797 126.576 14.033 126.666 13.7796 126.658C13.1547 126.658 12.5297 126.658 11.9048 126.673C11.5923 126.673 11.4549 126.567 11.4674 126.239C11.4861 125.792 11.4674 125.342 11.4674 124.896C11.4674 124.502 11.2018 124.555 10.958 124.546C10.7143 124.536 10.5143 124.58 10.5268 124.902C10.5393 125.224 10.5268 125.602 10.5268 125.949C10.5393 126.827 10.305 127.205 9.33008 127.758ZM12.5454 125.186C12.5454 125.811 12.5797 125.864 12.8922 125.864C12.9852 125.872 13.0788 125.86 13.1665 125.828C13.2542 125.796 13.334 125.746 13.4003 125.68C13.4666 125.614 13.5178 125.535 13.5504 125.448C13.583 125.36 13.5961 125.267 13.589 125.174C13.5896 125.085 13.5714 124.998 13.5356 124.917C13.4998 124.836 13.4472 124.763 13.3813 124.704C13.3155 124.645 13.2378 124.601 13.1535 124.574C13.0691 124.547 12.9801 124.539 12.8922 124.549C12.3673 124.567 12.5922 124.961 12.5454 125.186Z" fill="white"/>
<path d="M1.41211 127.696V126.134C1.41211 125.387 1.41211 124.637 1.41211 123.89C1.41211 123.578 1.49961 123.44 1.83395 123.443C3.0307 123.443 4.22744 123.396 5.42419 123.428C6.78029 123.465 7.50522 124.796 6.85842 126.002C6.76975 126.196 6.62646 126.36 6.44609 126.474C6.26573 126.588 6.05612 126.647 5.8429 126.643C5.21797 126.643 4.59303 126.643 3.9681 126.643C3.63064 126.643 3.53376 126.506 3.54313 126.196C3.55876 125.771 3.54313 125.346 3.54313 124.924C3.55876 124.581 3.39004 124.506 3.09007 124.512C2.7901 124.518 2.59324 124.512 2.61199 124.896C2.63074 125.281 2.61199 125.646 2.61199 126.018C2.61511 126.818 2.30264 127.271 1.41211 127.696ZM4.60865 125.171C4.60865 125.796 4.6399 125.846 4.95862 125.849C5.0515 125.86 5.14561 125.85 5.23403 125.819C5.32244 125.789 5.40289 125.739 5.46946 125.673C5.53603 125.608 5.58702 125.528 5.61866 125.44C5.6503 125.352 5.66179 125.258 5.65228 125.165C5.65339 125.078 5.63596 124.993 5.60111 124.913C5.56627 124.834 5.51484 124.763 5.4503 124.705C5.38575 124.648 5.30959 124.604 5.22693 124.579C5.14427 124.553 5.05704 124.545 4.97111 124.556C4.45866 124.556 4.65552 124.943 4.62427 125.171H4.60865Z" fill="white"/>
<path d="M36.159 121.993C35.5778 122.556 35.5997 123.124 35.6184 123.696C35.6184 124.093 35.6403 124.493 35.6184 124.893C35.5341 126.227 34.7279 126.718 33.7593 126.652C32.9406 126.599 32.1157 126.652 31.2939 126.652C30.7721 126.652 30.7471 126.615 30.7502 126.108C30.7533 125.602 30.7502 125.602 31.3252 125.593C31.9501 125.593 32.575 125.593 33.2 125.574C33.9874 125.54 34.1374 125.365 34.1374 124.568C34.1374 123.871 34.153 123.171 34.1374 122.474C34.1374 122.121 34.253 121.981 34.6123 121.999C35.0466 122.009 35.4966 121.993 36.159 121.993Z" fill="white"/>
<path d="M98.4295 126.818C97.9587 126.67 97.549 126.373 97.2625 125.972C96.976 125.57 96.8284 125.086 96.8421 124.593C96.8109 123.656 96.8421 122.693 96.8765 121.747C96.9015 121.253 96.8546 120.862 96.3453 120.656C96.2922 120.634 96.2703 120.544 96.1953 120.419C96.8838 120.32 97.5819 120.309 98.2732 120.384C98.5576 120.384 98.4732 120.697 98.4701 120.869C98.4701 122.218 98.4451 123.568 98.4326 124.915C98.4263 125.509 98.4295 126.09 98.4295 126.818Z" fill="white"/>
<path d="M18.8693 122.986C19.3537 123.299 19.8849 123.164 20.3973 123.174C21.7378 123.199 22.5283 124.267 22.1502 125.567C22.0841 125.863 21.9208 126.129 21.6864 126.321C21.452 126.514 21.1599 126.622 20.8566 126.63C19.7849 126.658 18.71 126.63 17.6351 126.63C17.2164 126.63 17.2289 126.386 17.2195 126.092C17.2101 125.799 17.282 125.583 17.6695 125.589C18.6069 125.611 19.5193 125.589 20.441 125.589C20.9535 125.589 21.166 125.427 21.2035 125.067C21.2094 124.967 21.1953 124.867 21.1621 124.772C21.1289 124.678 21.0772 124.591 21.01 124.516C20.9428 124.442 20.8615 124.382 20.7708 124.339C20.6801 124.296 20.5818 124.272 20.4817 124.267C20.057 124.244 19.6314 124.244 19.2068 124.267C18.9287 124.267 18.785 124.18 18.81 123.883C18.7864 123.583 18.8064 123.281 18.8693 122.986Z" fill="white"/>
<path d="M82.0873 120.344C82.0498 120.478 82.0466 120.553 82.0216 120.566C81.3623 120.841 81.3655 121.391 81.3967 121.981C81.4405 122.778 81.4405 123.575 81.4561 124.371C81.478 124.721 81.4275 125.071 81.3076 125.4C81.1876 125.73 81.001 126.03 80.7593 126.284C80.6685 126.4 80.5536 126.495 80.4225 126.562C80.2914 126.63 80.1473 126.668 80 126.674C79.8219 126.527 79.8844 126.343 79.8812 126.181C79.8646 124.462 79.8521 122.742 79.8438 121.022C79.8438 120.353 79.8438 120.35 80.5468 120.344H82.0873Z" fill="white"/>
<path d="M117.156 173.916C116.951 173.926 116.745 173.894 116.553 173.823C116.36 173.751 116.184 173.641 116.035 173.499C115.886 173.358 115.767 173.187 115.686 172.998C115.605 172.809 115.563 172.606 115.563 172.4C115.562 172.194 115.604 171.991 115.684 171.801C115.765 171.612 115.883 171.441 116.031 171.298C116.179 171.155 116.355 171.044 116.547 170.971C116.739 170.898 116.944 170.864 117.15 170.872C117.362 170.859 117.575 170.889 117.775 170.962C117.975 171.035 118.157 171.148 118.311 171.295C118.465 171.442 118.587 171.619 118.67 171.815C118.752 172.011 118.793 172.222 118.79 172.435C118.783 172.64 118.734 172.842 118.647 173.028C118.561 173.214 118.438 173.381 118.285 173.519C118.133 173.658 117.955 173.764 117.761 173.832C117.567 173.9 117.361 173.928 117.156 173.916Z" fill="white"/>
<path d="M91.4284 127.052C92.1033 127.052 92.1283 127.09 92.0752 127.755C92.0565 127.989 91.994 128.13 91.7315 128.114C91.5596 128.114 91.3878 128.114 91.2159 128.114C90.6754 128.099 90.6754 128.099 90.6722 127.583C90.6691 127.068 90.6691 127.049 91.4284 127.052Z" fill="white"/>
<path d="M55.128 121.715C55.2509 121.722 55.3739 121.722 55.4967 121.715C55.8498 121.675 55.9717 121.825 55.9779 122.178C55.9842 122.531 55.803 122.64 55.478 122.618C55.2311 122.603 54.9843 122.618 54.7374 122.618C54.2656 122.618 54.15 122.444 54.2344 121.975C54.2365 121.937 54.2465 121.9 54.2638 121.867C54.2811 121.833 54.3053 121.804 54.3348 121.78C54.3643 121.756 54.3984 121.739 54.4349 121.73C54.4715 121.72 54.5096 121.719 54.5468 121.725H55.1405L55.128 121.715Z" fill="white"/>
<path d="M27.0719 121.3C26.9719 121.3 26.875 121.3 26.7782 121.3C26.4657 121.328 26.3407 121.197 26.3501 120.875C26.3595 120.553 26.3751 120.328 26.7751 120.362C26.9467 120.375 27.119 120.375 27.2906 120.362C27.7781 120.337 27.8281 120.362 27.8218 120.987C27.8218 121.203 27.7249 121.3 27.5093 121.3H27.0688H27.0719Z" fill="white"/>
<path d="M102.207 121.565C102.133 121.56 102.059 121.56 101.985 121.565C101.588 121.615 101.473 121.431 101.485 121.053C101.485 120.725 101.504 120.45 101.951 120.503C102.099 120.511 102.247 120.511 102.395 120.503C102.5 120.506 102.603 120.537 102.693 120.592C102.783 120.648 102.857 120.726 102.908 120.819C102.958 120.912 102.984 121.016 102.981 121.122C102.979 121.228 102.949 121.331 102.894 121.421C102.871 121.464 102.836 121.5 102.794 121.524C102.751 121.547 102.703 121.559 102.654 121.556H102.207V121.565Z" fill="white"/>
<path d="M118.235 127.093H118.457C118.562 127.103 118.662 127.139 118.749 127.197C118.836 127.256 118.907 127.336 118.955 127.43C119.002 127.523 119.026 127.627 119.023 127.732C119.02 127.837 118.991 127.939 118.938 128.03C118.913 128.072 118.876 128.107 118.833 128.129C118.789 128.152 118.74 128.162 118.691 128.158C118.379 128.158 118.098 128.158 117.801 128.158C117.62 128.158 117.57 128.033 117.545 127.865C117.454 127.205 117.548 127.096 118.235 127.093Z" fill="white"/>
<path d="M74.0102 120.065C73.9363 120.06 73.8622 120.06 73.7884 120.065C73.3947 120.115 73.2728 119.937 73.2884 119.556C73.3134 119.034 73.2884 119.021 73.8227 119.006H74.1946C74.3 119.009 74.4029 119.04 74.4929 119.095C74.5829 119.15 74.6569 119.227 74.7078 119.32C74.7586 119.412 74.7844 119.516 74.7826 119.622C74.7808 119.727 74.7515 119.831 74.6976 119.921C74.6741 119.965 74.6388 120.001 74.5956 120.025C74.5525 120.05 74.5034 120.061 74.4539 120.059H74.0102V120.065Z" fill="white"/>
<path d="M126.34 122.259C125.749 122.259 125.649 122.119 125.74 121.49C125.765 121.315 125.828 121.219 126.012 121.222C126.196 121.225 126.359 121.222 126.534 121.222C127.102 121.222 127.299 121.512 127.127 122.056C127.114 122.116 127.08 122.169 127.032 122.206C126.983 122.243 126.923 122.262 126.862 122.259C126.687 122.262 126.515 122.259 126.34 122.259Z" fill="white"/>
<path d="M104.226 121.565C103.548 121.565 103.57 121.565 103.551 121.009C103.551 120.619 103.673 120.456 104.063 120.503C104.187 120.519 104.312 120.519 104.435 120.503C104.807 120.462 104.976 120.59 104.96 120.997C104.941 121.568 104.963 121.568 104.226 121.565Z" fill="white"/>
<path d="M76.2167 120.065H75.9917C75.5012 120.046 75.5012 120.046 75.498 119.562C75.498 119.028 75.498 119.021 76.0199 119.006H76.3323C76.901 119.006 76.9166 119.031 76.9041 119.59C76.8823 120.062 76.8823 120.062 76.2167 120.065Z" fill="white"/>
<path d="M46.6134 128.305C46.0165 128.305 45.9291 128.199 45.9884 127.68C46.0165 127.459 46.1322 127.39 46.3321 127.39C46.5321 127.39 46.779 127.39 46.9977 127.39C47.3914 127.352 47.4445 127.574 47.4383 127.89C47.432 128.205 47.3414 128.309 47.0508 128.293C46.9102 128.296 46.7602 128.302 46.6134 128.305Z" fill="white"/>
<path d="M19.4634 122.603C19.3634 122.603 19.2634 122.603 19.1666 122.603C18.8385 122.634 18.7353 122.471 18.7447 122.165C18.7541 121.859 18.7853 121.671 19.1415 121.7C19.338 121.717 19.5356 121.717 19.7321 121.7C20.1008 121.665 20.1914 121.843 20.1914 122.181C20.1914 122.518 20.0727 122.634 19.7571 122.606C19.6602 122.596 19.5603 122.603 19.4634 122.603Z" fill="white"/>
<path d="M29.1867 121.253C29.0867 121.253 28.9898 121.253 28.8899 121.253C28.5774 121.275 28.4461 121.159 28.4493 120.831C28.4524 120.503 28.5118 120.296 28.8961 120.337C29.068 120.337 29.2398 120.337 29.4148 120.337C29.8866 120.353 29.996 120.503 29.921 120.981C29.9203 121.017 29.912 121.054 29.8968 121.087C29.8816 121.12 29.8597 121.15 29.8324 121.175C29.8052 121.199 29.7733 121.218 29.7385 121.23C29.7038 121.242 29.667 121.246 29.6304 121.243H29.1867V121.253Z" fill="white"/>
<path d="M150.106 121.962C149.602 121.962 149.559 121.918 149.565 121.499C149.571 121.08 149.609 121.09 150.234 121.09C150.546 121.09 150.762 121.115 150.737 121.518C150.712 121.921 150.684 121.968 150.106 121.962Z" fill="white"/>
<path d="M133.361 122.29C132.998 122.29 132.673 122.368 132.692 121.881C132.711 121.44 132.73 121.402 133.295 121.406C133.583 121.406 133.92 121.331 133.889 121.815C133.858 122.299 133.836 122.29 133.361 122.29Z" fill="white"/>
<path d="M131.199 121.403C131.386 121.403 131.699 121.341 131.671 121.825C131.643 122.309 131.639 122.294 131.046 122.287C130.543 122.287 130.502 122.25 130.508 121.831C130.515 121.412 130.549 121.403 131.199 121.403Z" fill="white"/>
<path d="M57.2277 122.602C56.6434 122.602 56.5528 122.506 56.6246 121.996C56.6465 121.834 56.6965 121.718 56.8808 121.712H57.2496C57.8339 121.712 57.8557 121.734 57.8526 122.174C57.8495 122.615 57.8339 122.606 57.2277 122.602Z" fill="white"/>
<path d="M149.35 120.778C148.775 120.778 148.76 120.75 148.725 120.312C148.691 119.875 149.016 119.894 149.309 119.894C149.884 119.894 149.897 119.922 149.934 120.359C149.972 120.797 149.644 120.778 149.35 120.778Z" fill="white"/>
<path d="M148.54 121.962C148.003 121.962 147.915 121.862 147.969 121.381C147.99 121.159 148.093 121.068 148.281 121.084C148.429 121.092 148.577 121.092 148.725 121.084C149.037 121.056 149.162 121.19 149.156 121.512C149.15 121.834 149.087 121.993 148.747 121.965C148.69 121.955 148.615 121.962 148.54 121.962Z" fill="white"/>
<path d="M8.06187 126.643C7.49006 126.643 7.3932 126.565 7.43694 126.193C7.45881 126.015 7.54006 125.924 7.71504 125.921C7.89002 125.918 8.11186 125.921 8.30872 125.921C8.50557 125.921 8.73993 125.921 8.75243 126.262C8.76493 126.602 8.55557 126.665 8.2806 126.649L8.06187 126.643Z" fill="white"/>
<path d="M15.7203 126.63C15.2048 126.63 15.1235 126.558 15.1485 126.202C15.1641 125.99 15.2579 125.89 15.461 125.89C15.6641 125.89 15.8078 125.89 15.9797 125.89C16.2609 125.89 16.4515 125.924 16.439 126.283C16.4265 126.643 16.2546 126.643 16.0078 126.63H15.7203Z" fill="white"/>
<path d="M79.0845 15.8611C79.0564 15.9454 79.0157 15.9548 78.972 15.8954C78.9283 15.8361 78.8783 15.7829 78.8751 15.7204C78.872 15.658 78.9251 15.6423 78.972 15.7048C79.0189 15.7673 79.0501 15.8142 79.0845 15.8611Z" fill="white"/>
<path d="M112.138 59.296C112.194 59.2157 112.061 59.2558 112.157 59.2342C112.171 59.2305 112.186 59.2305 112.2 59.2342C112.2 59.2867 112.179 59.3021 112.123 59.2774L112.138 59.296Z" fill="white"/>
<path d="M112.112 59.2812C112.175 59.4094 112.084 59.4344 111.996 59.4625C111.96 59.4312 111.927 59.3967 111.896 59.3594C111.923 59.3258 111.96 59.3016 112.002 59.2904C112.043 59.2792 112.088 59.2814 112.128 59.2969L112.112 59.2812Z" fill="white"/>
<path d="M60.9871 105.336C61.0236 105.345 61.0554 105.367 61.0762 105.398C61.097 105.43 61.1054 105.468 61.0996 105.505C61.0935 105.515 61.0853 105.524 61.0757 105.531C61.066 105.538 61.055 105.543 61.0434 105.545C61.0124 105.525 60.9887 105.495 60.9758 105.46C60.9629 105.425 60.9613 105.387 60.9715 105.352L60.9871 105.336Z" fill="white"/>
<path d="M60.8687 105.173L61.0031 105.335L60.9875 105.351C60.9501 105.348 60.9141 105.335 60.8833 105.314C60.8525 105.293 60.8281 105.263 60.8125 105.229L60.8687 105.173Z" fill="white"/>
<path d="M109.434 98.7487L109.359 98.8135L109.424 98.7363L109.434 98.7487Z" fill="white"/>
<path d="M53.1994 98.7266L53.2553 98.8198L53.1621 98.7638L53.1994 98.7266Z" fill="white"/>
<path d="M114.989 93.6492L114.918 93.711L114.974 93.6338L114.989 93.6492Z" fill="white"/>
<path d="M139.976 72.3799L140.02 72.4203C140.02 72.4203 139.989 72.4544 139.973 72.4544C139.958 72.4544 139.945 72.4296 139.93 72.4172L139.976 72.3799Z" fill="white"/>
<path d="M101.595 54.825C101.574 54.7908 101.527 54.7442 101.536 54.7287C101.583 54.6541 101.636 54.679 101.679 54.7287L101.595 54.825Z" fill="white"/>
<path d="M102.064 36.274C102.048 36.274 102.029 36.305 102.017 36.3019C102.005 36.2988 101.989 36.2771 101.977 36.2615C101.964 36.246 102.011 36.2305 102.026 36.2305C102.042 36.2305 102.051 36.2584 102.064 36.274Z" fill="white"/>
<g clip-path="url(#clip1_519_2525)">
<path d="M57.4399 108.06C57.4399 108.06 57.3699 108.05 57.3499 108.03C57.3199 108.01 57.2899 107.98 57.2799 107.94L57.3299 107.89C57.2599 107.54 56.9599 107.35 56.7699 107.1C54.1799 103.72 52.2599 99.8803 51.0899 95.7903C50.3699 93.3003 49.9899 90.7203 49.9399 88.1203C49.8899 86.4503 49.9399 84.7803 50.0699 83.1203C50.2799 81.1103 50.6399 79.1203 51.1299 77.1703C51.7599 74.6803 52.6299 72.2503 53.7199 69.9203C53.9599 69.4003 53.9399 69.3703 53.4499 69.1003C51.9399 68.2703 50.4299 67.4503 48.9199 66.6003C46.1099 65.0403 43.3399 63.3803 40.6399 61.6303C36.0499 58.7003 31.6399 55.5103 27.4299 52.0603C24.8099 49.9003 22.2999 47.6203 19.8399 45.2803C18.2099 43.7203 16.7199 42.0603 15.1899 40.4003C13.0099 38.0003 10.9499 35.4903 9.02993 32.8903C8.59993 32.3203 8.16993 31.7403 7.66993 31.0703C7.41993 31.9103 7.26993 32.7803 7.21993 33.6603C7.07993 34.9503 7.06993 36.2503 7.16993 37.5403C7.28993 38.5803 7.36993 39.6203 7.56993 40.6603C8.14993 43.5803 9.15993 46.3903 10.5699 49.0103C12.0499 51.8203 13.8799 54.4303 16.0199 56.7703C18.3799 59.3903 20.9799 61.7803 23.7999 63.9003C26.5799 65.9803 29.4999 67.8603 32.5499 69.5203C35.7199 71.2703 38.9899 72.8403 42.3499 74.2103C43.5699 74.7003 44.7999 75.1903 46.0499 75.6503C46.4199 75.7803 46.5899 75.9603 46.5399 76.3603C46.5199 76.5103 46.5399 76.6703 46.5399 76.8103C46.5099 79.4303 46.4399 82.0603 46.6999 84.6703C46.9099 86.8703 47.2399 89.0703 47.6999 91.2303C48.7899 96.2303 50.6499 100.86 53.9199 104.85C54.8099 105.9 55.7699 106.87 56.8099 107.77C56.9399 107.89 57.1099 107.97 57.2899 107.97C57.3099 108 57.3299 108.03 57.3599 108.06C57.3899 108.08 57.4199 108.09 57.4499 108.09L57.4399 108.06Z" fill="white"/>
<path d="M57.5109 108.07C57.5109 108.07 57.4809 108.06 57.4609 108.05C57.4609 108.05 57.5209 108.08 57.5409 108.11C57.5609 108.14 57.5709 108.18 57.5609 108.22C57.5609 108.23 57.5509 108.24 57.5409 108.25C57.5409 108.25 57.5209 108.25 57.5109 108.26C57.5109 108.26 57.5109 108.27 57.5209 108.28C57.5309 108.28 57.5409 108.28 57.5509 108.27C57.5509 108.27 57.5709 108.25 57.5709 108.24C57.5709 108.22 57.5709 108.2 57.5709 108.18C57.5709 108.16 57.5609 108.14 57.5409 108.12C57.5309 108.1 57.5109 108.09 57.4909 108.08L57.5109 108.07Z" fill="white"/>
<path d="M83.5302 85.5898C82.3102 85.5898 82.5902 85.7998 82.1902 84.5798C80.7902 80.2598 79.4002 75.9298 78.0102 71.5998C77.9402 71.3998 77.9302 71.1798 77.7302 71.0498C77.5302 71.1298 77.5402 71.2998 77.5002 71.4398C77.0102 72.9298 76.5202 74.4298 76.0302 75.9198C75.0402 78.9598 74.0502 81.9998 73.0602 85.0298C72.8502 85.6798 72.8402 85.6898 72.2002 85.6698C71.2602 85.6498 70.3002 85.6198 69.3502 85.5998C65.6002 85.5298 61.8502 85.5698 58.1002 85.4298C57.9702 85.4298 57.7902 85.3498 57.7402 85.6398C57.9102 85.7698 58.0902 85.9298 58.2902 86.0798L69.4102 94.2398C69.9402 94.6298 69.9402 94.6398 69.7402 95.2698C69.7102 95.3598 69.6802 95.4598 69.6502 95.5598C68.2402 99.8498 66.8302 104.15 65.4202 108.44C65.3402 108.68 65.1702 108.92 65.2902 109.22C65.5602 109.13 65.8002 108.98 66.0102 108.79C69.7302 106.09 73.4602 103.4 77.1802 100.7C77.8002 100.25 77.6702 100.19 78.3802 100.7L89.3302 108.71C89.5702 108.87 89.7502 109.11 90.0902 109.11C90.1002 108.84 90.0402 108.57 89.9202 108.32C88.5002 103.9 87.0802 99.4798 85.6602 95.0598C85.4802 94.4998 85.4902 94.4998 85.9502 94.1498L86.6802 93.6298C90.1602 91.1598 93.6402 88.6798 97.1302 86.1998C97.4302 86.0498 97.6702 85.8098 97.8402 85.5198H96.9502C92.4802 85.5398 88.0002 85.5598 83.5102 85.5698L83.5302 85.5898Z" fill="white"/>
<path d="M49.3506 100.78C48.6106 99.5897 47.9706 98.3497 47.4206 97.0597C46.2206 94.2097 45.3906 91.2097 44.9606 88.1497C44.6606 86.0697 44.5406 83.9797 44.4306 81.8997C44.3606 80.5797 44.4006 79.2497 44.3906 77.9297C44.3906 77.6497 44.3706 77.3797 44.3506 77.1097C44.3506 76.9097 44.2806 76.7297 44.1506 76.5797C44.0206 76.4297 43.8506 76.3297 43.6606 76.2897C41.3206 75.4997 39.0206 74.6097 36.7306 73.6597C32.9606 72.1197 29.3006 70.3297 25.7606 68.3097C20.9706 65.5597 16.5406 62.3497 12.7206 58.3297C12.5706 58.1797 12.4606 57.9597 12.2006 57.9297C12.1206 58.1697 12.1206 58.4197 12.2006 58.6597C12.3306 59.2197 12.4706 59.7797 12.6106 60.3297C13.2006 62.5497 14.0906 64.6897 15.2506 66.6797C17.1406 69.9297 19.6206 72.7897 22.5706 75.1197C25.9306 77.7697 29.6706 79.8897 33.6606 81.4297C36.1806 82.4497 38.7906 83.2497 41.4406 83.8397C41.6106 83.8597 41.7706 83.9397 41.9006 84.0697C42.0206 84.1997 42.0906 84.3597 42.1106 84.5297C42.2206 85.2197 42.3306 85.8997 42.4406 86.5897C42.9106 89.3997 43.5206 92.1697 44.5906 94.8197C45.5306 97.1397 46.8106 99.2397 48.6906 100.92C48.9706 101.15 49.2206 101.45 49.6206 101.5L49.7106 101.56L49.6506 101.47C49.5906 101.23 49.4906 101 49.3406 100.8L49.3506 100.78ZM49.6206 101.49L49.6606 101.45L49.7206 101.54L49.6306 101.48L49.6206 101.49Z" fill="white"/>
<path d="M98.4902 38.9502C98.4902 38.9502 98.5102 38.9702 98.5202 38.9802C98.5202 38.9702 98.5002 38.9502 98.4902 38.9502Z" fill="white"/>
<path d="M132.679 80.3403C132.219 80.5903 131.769 80.8503 131.299 81.1003C128.769 82.4603 126.089 83.5303 123.309 84.2703C121.089 84.8603 118.819 85.1903 116.519 85.2503C116.069 85.2503 115.629 85.1303 115.179 85.1103C115.109 85.1003 115.039 85.1003 114.979 85.1103C114.909 85.1303 114.849 85.1603 114.799 85.2003C114.749 85.2403 114.699 85.3003 114.669 85.3603C114.639 85.4203 114.619 85.4903 114.619 85.5603C114.579 85.8603 114.599 86.1603 114.539 86.4503C114.079 88.8503 113.399 91.2103 112.489 93.4803C112.129 94.4203 111.649 95.3503 111.419 96.3303H111.429L111.379 96.3903L111.359 96.4203L111.429 96.3503C111.919 96.2503 112.149 95.8303 112.419 95.5003C113.479 94.2603 114.329 92.8703 114.939 91.3603C114.979 91.2303 115.049 91.1203 115.159 91.0403C115.269 90.9603 115.399 90.9203 115.529 90.9203C116.619 90.8403 117.709 90.6703 118.769 90.4003C122.029 89.5703 125.099 88.1503 127.829 86.2003C129.619 84.9703 131.159 83.4103 132.379 81.6103C132.659 81.1603 132.909 80.7003 133.119 80.2103C133.039 80.1903 132.949 80.1903 132.869 80.2103C132.789 80.2303 132.709 80.2703 132.649 80.3203L132.679 80.3403Z" fill="white"/>
<path d="M98.4795 39.0205C98.4795 39.0205 98.5094 39.0005 98.5294 38.9905C98.5294 38.9905 98.4995 39.0205 98.4795 39.0205C98.4695 39.0205 98.4495 39.0005 98.4395 38.9805C98.4395 38.9805 98.4595 39.0205 98.4795 39.0205Z" fill="white"/>
<path d="M42.5694 91.98C41.8694 89.87 41.1994 87.76 40.9294 85.55C40.8794 85.15 40.6394 85.09 40.3094 85.09C39.2894 85.09 38.2694 85.09 37.2494 85C35.5294 84.85 33.8394 84.56 32.1694 84.13C28.8694 83.32 25.7094 82.03 22.7794 80.3C22.5994 80.13 22.3594 80.04 22.1094 80.04C22.1394 80.33 22.2494 80.61 22.4194 80.84C23.6394 82.97 25.3294 84.79 27.3594 86.18C29.6294 87.77 32.1194 89.02 34.7594 89.9C36.1394 90.4 37.5794 90.75 39.0294 90.95C40.3894 91.11 40.3794 91.09 41.0094 92.27C41.6694 93.59 42.4694 94.83 43.3994 95.98C43.6194 96.25 43.7994 96.56 44.1594 96.65C44.3194 96.41 44.1594 96.24 44.0894 96.07C43.5594 94.72 43.0194 93.38 42.5694 92.01V91.98Z" fill="white"/>
<path d="M136.481 75.1398L136.441 75.0898L136.391 75.1298H136.401L136.441 75.0998L136.481 75.1398Z" fill="white"/>
<path d="M143.18 58.1198C143.03 58.2498 142.89 58.3898 142.75 58.5398C140.06 61.3298 137.06 63.7998 133.82 65.9198C131.94 67.1698 130.03 68.3198 128.05 69.3898C125.37 70.8498 122.64 72.1798 119.83 73.3698C117.19 74.4898 114.5 75.4898 111.76 76.3698C111.16 76.5598 111.18 76.5798 111.16 77.2098C111.15 77.8398 111.31 78.3898 111.3 78.9998C111.27 80.1998 111.25 81.3898 111.19 82.5898C111.12 83.9598 111 85.3298 110.81 86.6798C110.52 88.8798 110.07 91.0498 109.48 93.1898C108.79 95.5898 108.02 97.9598 106.73 100.13C106.46 100.58 106.07 100.94 105.9 101.45L105.83 101.53L105.85 101.51L105.89 101.46H105.9C106.6 101.2 107.07 100.66 107.54 100.11C108.92 98.4598 110.03 96.5998 110.83 94.5998C112.15 91.4198 113.02 88.1398 113.1 84.6798C113.1 84.0998 113.14 84.0598 113.72 83.9498C115.02 83.7098 116.3 83.3798 117.57 83.0098C122.69 81.5898 127.5 79.5198 131.83 76.3998C134.27 74.6498 136.43 72.5498 138.24 70.1498C140.64 66.9398 142.32 63.2498 143.18 59.3398C143.27 58.9298 143.49 58.5098 143.35 58.0498C143.25 58.0798 143.2 58.0898 143.17 58.1198H143.18Z" fill="white"/>
<path d="M147.951 31.46C147.731 31.5 147.671 31.64 147.581 31.77C145.201 35.07 142.581 38.19 139.741 41.12C137.721 43.26 135.571 45.28 133.381 47.26C131.201 49.24 129.041 51.09 126.791 52.92C123.541 55.57 120.181 58.08 116.721 60.45C112.011 63.73 107.051 66.66 101.901 69.2C101.731 69.25 101.581 69.35 101.461 69.47C101.461 69.62 101.511 69.77 101.601 69.89C102.801 72.28 103.751 74.78 104.441 77.36C105.031 79.45 105.411 81.59 105.561 83.75C105.641 85.11 105.791 86.47 105.651 87.86C105.531 89.11 105.501 90.34 105.321 91.58C104.861 94.67 103.951 97.67 102.621 100.5C101.461 102.97 100.031 105.3 98.3608 107.45C98.1908 107.61 98.0808 107.82 98.0508 108.04C98.4308 108.04 98.6508 107.78 98.9008 107.61C100.681 106.39 102.021 104.75 103.191 102.96C105.181 99.86 106.451 96.45 107.401 92.91C107.971 90.82 108.381 88.69 108.651 86.54C108.871 85.06 109.001 83.57 109.051 82.08C109.051 80.23 109.171 78.38 108.931 76.54C108.831 75.77 108.881 75.77 109.621 75.49C112.021 74.55 114.391 73.58 116.721 72.49C121.791 70.1 126.691 67.41 131.241 64.12C133.711 62.34 136.041 60.37 138.211 58.23C139.581 56.88 140.851 55.43 142.011 53.9C143.941 51.38 145.501 48.6 146.641 45.63C147.471 43.41 148.011 41.09 148.241 38.73C148.431 36.72 148.401 34.69 148.171 32.68C148.171 32.27 148.101 31.86 147.951 31.47V31.46Z" fill="white"/>
<path d="M149.139 25.2098C148.919 25.3698 148.759 25.5798 148.659 25.8298C147.869 27.1998 147.019 28.5098 146.109 29.7998C143.419 33.5698 140.439 37.1198 137.199 40.4198C131.009 46.7898 124.229 52.5598 116.969 57.6598C111.279 61.6698 105.359 65.2798 98.9493 68.0598L98.7393 68.1498C98.5193 68.2498 98.4993 68.3698 98.6193 68.5598C98.6993 68.6798 98.7693 68.8198 98.8393 68.9498C101.759 74.1898 103.409 79.7898 103.529 85.8098C103.569 86.0998 103.549 86.3998 103.459 86.6798C103.419 86.6498 103.379 86.6398 103.379 86.6198C103.349 86.5298 103.329 86.4298 103.309 86.3398C102.859 83.8298 102.049 81.3998 100.879 79.1198C99.2793 75.9698 97.0493 73.1798 94.3193 70.9398C94.1693 70.8398 94.0493 70.6998 93.9893 70.5298C93.9293 70.3598 93.9193 70.1798 93.9793 69.9998C94.3193 68.3398 94.5493 66.6498 94.6793 64.9598C94.9993 60.8198 94.7493 56.6498 93.9593 52.5798C92.9393 47.4998 91.2493 42.5898 88.9193 37.9598C85.4893 31.0098 80.9593 24.8098 75.8993 18.9698C75.8393 18.8998 75.7793 18.7498 75.6193 18.8498C76.1593 19.6598 76.6993 20.4398 77.1793 21.2498C77.6593 22.0598 78.1593 22.8798 78.5993 23.7198C83.9793 34.1298 87.7993 45.0298 88.8793 56.7698C89.0293 58.5598 89.0293 60.3598 88.8793 62.1498C88.7793 61.9898 88.7093 61.8098 88.6593 61.6198C88.0093 59.0298 86.6793 56.6698 84.7993 54.7798C84.1293 54.0998 83.4793 53.4098 82.8193 52.7298C82.7093 52.6198 82.6693 52.4098 82.3793 52.4598C84.6993 56.9098 86.3493 61.6798 87.2593 66.6098C86.9693 66.7398 86.7793 66.5798 86.5693 66.5098C82.2593 64.9798 77.6293 64.5998 73.1293 65.4198C67.9593 66.3598 63.1893 68.8598 59.4693 72.5798C55.7493 76.2998 53.2493 81.0598 52.2993 86.2398C52.2093 86.7598 52.2393 87.3298 51.9293 87.8698C51.7993 84.2998 52.2193 80.7298 53.1793 77.2798C53.9793 74.4198 55.0793 71.6398 56.4393 68.9998C56.8593 68.1698 56.8493 68.1798 56.0493 67.7998C54.8793 67.2398 53.6993 66.6898 52.5493 66.0798C41.2693 60.1498 30.8993 52.6398 21.7293 43.7898C16.0093 38.2998 10.8893 32.2998 6.63931 25.5898C6.54931 25.4698 6.49931 25.3198 6.32931 25.2798C6.14931 25.3898 6.17931 25.5798 6.15931 25.7598C6.02931 26.5498 5.89931 27.3398 5.76931 28.1298C5.22931 31.5098 4.83931 34.9098 5.06931 38.3498C5.28931 42.0298 6.27931 45.6198 7.97931 48.8898C8.18931 49.2898 8.32931 49.7198 8.39931 50.1598C8.88931 53.0698 9.36931 55.9698 10.0493 58.8398C11.1193 63.3498 12.8893 67.5198 15.7493 71.1998C16.6393 72.3498 17.5893 73.4398 18.5993 74.4798C18.7093 74.5898 18.9793 74.7798 18.7893 74.8698C18.4893 75.0098 18.6093 75.1998 18.6393 75.3598C19.3493 78.9798 20.6793 82.2998 23.1793 85.0798C25.0393 87.0998 27.2793 88.7398 29.7693 89.9098C32.5493 91.2298 35.4793 92.1898 38.4993 92.7598C38.7393 92.7998 38.9693 92.8798 39.1793 93.0098C39.3893 93.1398 39.5693 93.3098 39.7093 93.5098C42.3593 97.0598 45.3193 100.36 48.5393 103.4C51.1793 105.96 54.0993 108.22 57.2293 110.14C59.3793 111.41 61.5993 112.46 64.0693 112.92C64.3393 112.98 64.5893 113.09 64.8293 113.23C68.3493 115.27 72.2993 116.45 76.3593 116.67C80.7993 116.95 85.2293 116.05 89.2093 114.07C90.5793 113.36 92.0093 112.77 93.4793 112.3C96.6293 111.36 99.3993 109.64 101.999 107.68C107.249 103.72 111.689 98.9598 115.589 93.6898C115.759 93.4398 115.979 93.2298 116.239 93.0698C116.499 92.9098 116.789 92.8098 117.089 92.7698C119.599 92.3298 122.059 91.6198 124.419 90.6598C130.019 88.3798 134.029 84.5498 135.979 78.7398C136.389 77.5198 136.769 76.2798 137.089 75.0598C136.929 74.8898 136.739 75.2198 136.619 74.9398C136.699 74.8498 136.769 74.7598 136.859 74.6698C140.819 70.7898 143.419 66.0998 144.979 60.7898C145.899 57.6498 146.429 54.4198 146.999 51.1998C147.139 50.3898 147.149 49.5398 147.549 48.7998C149.849 44.6198 150.599 40.0798 150.519 35.3598C150.469 33.0398 150.239 30.7198 149.809 28.4298C149.639 27.3498 149.409 26.2898 149.129 25.2298L149.139 25.2098ZM44.1593 96.6198C43.7993 96.5298 43.6093 96.2198 43.3993 95.9498C42.4793 94.7998 41.6793 93.5598 41.0093 92.2398C40.3693 91.0698 40.3793 91.0798 39.0293 90.9198C37.5693 90.7198 36.1393 90.3698 34.7593 89.8698C32.1293 88.9998 29.6393 87.7398 27.3593 86.1498C25.3293 84.7598 23.6493 82.9398 22.4193 80.8098C22.2393 80.5798 22.1393 80.2998 22.1093 80.0098C22.3593 80.0098 22.5893 80.0998 22.7793 80.2698C25.7093 81.9998 28.8693 83.2898 32.1693 84.0998C33.8393 84.5298 35.5393 84.8298 37.2493 84.9698C38.2693 85.0598 39.2893 85.0598 40.3093 85.0598C40.6393 85.0598 40.8893 85.1198 40.9293 85.5198C41.1993 87.7298 41.8693 89.8398 42.5693 91.9498C43.0193 93.3198 43.5493 94.6698 44.0893 96.0098C44.1593 96.1898 44.3193 96.3498 44.1593 96.5898V96.6198ZM49.6293 101.48C49.2293 101.42 48.9793 101.13 48.6993 100.9C46.8093 99.2198 45.5293 97.1298 44.5993 94.7998C43.5293 92.1498 42.9293 89.3798 42.4493 86.5698C42.3293 85.8798 42.2193 85.1998 42.1193 84.5098C42.1093 84.3398 42.0293 84.1698 41.9093 84.0498C41.7893 83.9198 41.6293 83.8398 41.4493 83.8198C38.7893 83.2298 36.1893 82.4298 33.6693 81.4098C29.6793 79.8798 25.9393 77.7498 22.5793 75.0998C19.6293 72.7698 17.1493 69.9098 15.2593 66.6598C14.0993 64.6698 13.2093 62.5398 12.6193 60.3098C12.4693 59.7598 12.3393 59.1998 12.2093 58.6398C12.1293 58.3998 12.1293 58.1498 12.2093 57.9098C12.4693 57.9398 12.5793 58.1598 12.7293 58.3098C16.5493 62.3298 20.9793 65.5398 25.7693 68.2898C29.3093 70.3098 32.9693 72.0998 36.7393 73.6398C39.0193 74.5798 41.3293 75.4798 43.6693 76.2698C43.8593 76.3098 44.0393 76.4098 44.1593 76.5598C44.2893 76.7098 44.3593 76.8998 44.3593 77.0898C44.3793 77.3698 44.3993 77.6398 44.3993 77.9098C44.4093 79.2298 44.3693 80.5598 44.4393 81.8798C44.5493 83.9598 44.6793 86.0498 44.9693 88.1298C45.3993 91.1998 46.2193 94.1898 47.4293 97.0398C47.9793 98.3298 48.6193 99.5698 49.3593 100.76C49.5093 100.96 49.6193 101.19 49.6693 101.43L49.7293 101.52L49.6393 101.46L49.6293 101.48ZM57.5893 108.24C57.5893 108.24 57.5793 108.26 57.5693 108.27C57.5693 108.27 57.5493 108.28 57.5393 108.28C57.5393 108.28 57.5393 108.27 57.5293 108.26C57.5293 108.26 57.4793 108.21 57.4593 108.18C57.4493 108.15 57.4493 108.11 57.4593 108.08C57.4293 108.08 57.3993 108.07 57.3693 108.05C57.3393 108.03 57.3093 108 57.2993 107.96C57.1193 107.96 56.9493 107.89 56.8193 107.76C55.7793 106.86 54.8193 105.88 53.9293 104.84C50.6593 100.85 48.7893 96.2198 47.7093 91.2198C47.2493 89.0498 46.9093 86.8598 46.7093 84.6598C46.4493 82.0398 46.5293 79.4198 46.5493 76.7998C46.5493 76.6598 46.5293 76.4998 46.5493 76.3498C46.5893 75.9598 46.4293 75.7798 46.0593 75.6398C44.8193 75.1898 43.5893 74.6998 42.3593 74.1998C38.9993 72.8298 35.7293 71.2698 32.5593 69.5098C29.5193 67.8398 26.5893 65.9598 23.8093 63.8898C20.9893 61.7698 18.3893 59.3798 16.0293 56.7598C13.8893 54.4098 12.0593 51.7998 10.5793 48.9998C9.16931 46.3798 8.15931 43.5698 7.57931 40.6498C7.37931 39.6098 7.29931 38.5698 7.17931 37.5298C7.07931 36.2398 7.08931 34.9398 7.22931 33.6498C7.26931 32.7698 7.41931 31.8998 7.67931 31.0598C8.17931 31.7298 8.60931 32.2998 9.03931 32.8798C10.9693 35.4898 13.0193 37.9898 15.1993 40.3898C16.7193 42.0598 18.2193 43.7098 19.8493 45.2698C22.3093 47.6098 24.8193 49.8898 27.4393 52.0498C31.6493 55.4998 36.0593 58.6898 40.6493 61.6198C43.3593 63.3698 46.1193 65.0198 48.9293 66.5898C50.4393 67.4398 51.9493 68.2598 53.4593 69.0898C53.9393 69.3598 53.9593 69.3998 53.7293 69.9098C52.6393 72.2398 51.7693 74.6698 51.1393 77.1598C50.6493 79.1198 50.2893 81.1098 50.0793 83.1098C49.9493 84.7698 49.8993 86.4398 49.9493 88.1098C49.9993 90.7098 50.3793 93.2798 51.0993 95.7798C52.2593 99.8798 54.1893 103.71 56.7793 107.09C56.9693 107.35 57.2593 107.53 57.3393 107.87H57.3593L57.4893 108.03C57.4893 108.03 57.5193 108.04 57.5393 108.05C57.5593 108.06 57.5693 108.08 57.5893 108.09C57.5993 108.11 57.6093 108.13 57.6193 108.15C57.6193 108.17 57.6193 108.19 57.6193 108.21L57.5893 108.24ZM97.1493 86.2198C93.6693 88.6998 90.1893 91.1698 86.6993 93.6498L85.9693 94.1698C85.4993 94.5098 85.4993 94.5198 85.6793 95.0798C87.0993 99.4998 88.5293 103.92 89.9393 108.34C90.0593 108.58 90.1193 108.86 90.1093 109.13C89.7693 109.13 89.5893 108.9 89.3493 108.73L78.3993 100.72C77.6893 100.21 77.8193 100.27 77.1993 100.72C73.4793 103.42 69.7493 106.11 66.0293 108.81C65.8193 109 65.5793 109.15 65.3093 109.24C65.1893 108.94 65.3593 108.7 65.4393 108.46C66.8493 104.17 68.2593 99.8698 69.6693 95.5798C69.6993 95.4798 69.7293 95.3898 69.7593 95.2898C69.9593 94.6498 69.9693 94.6498 69.4293 94.2598L58.3093 86.0998C58.1093 85.9598 57.9293 85.7998 57.7593 85.6598C57.8093 85.3698 57.9893 85.4498 58.1193 85.4498C61.8693 85.5798 65.6193 85.5498 69.3693 85.6198C70.3193 85.6398 71.2793 85.6698 72.2193 85.6898C72.8593 85.6998 72.8693 85.6898 73.0793 85.0498C74.0693 82.0098 75.0593 78.9698 76.0493 75.9398C76.5393 74.4398 77.0293 72.9498 77.5193 71.4598C77.5693 71.3198 77.5593 71.1498 77.7493 71.0698C77.9493 71.1898 77.9593 71.4198 78.0293 71.6198C79.4093 75.9498 80.8093 80.2798 82.2093 84.5998C82.6193 85.8198 82.3293 85.6098 83.5493 85.6098C88.0393 85.6098 92.5093 85.5798 96.9893 85.5598H97.8793C97.7193 85.8498 97.4693 86.0898 97.1693 86.2398L97.1493 86.2198ZM132.419 81.6298C131.199 83.4298 129.659 84.9898 127.869 86.2198C125.139 88.1698 122.059 89.5898 118.809 90.4198C117.749 90.6898 116.659 90.8598 115.569 90.9398C115.439 90.9398 115.309 90.9798 115.199 91.0598C115.089 91.1398 115.019 91.2498 114.979 91.3798C114.369 92.8898 113.519 94.2798 112.459 95.5198C112.179 95.8498 111.949 96.2698 111.469 96.3698L111.399 96.4398L111.419 96.4098L111.399 96.4298L111.459 96.3498C111.689 95.3698 112.169 94.4298 112.529 93.4998C113.429 91.2298 114.119 88.8698 114.579 86.4698C114.629 86.1798 114.609 85.8698 114.659 85.5798C114.659 85.5098 114.679 85.4398 114.709 85.3798C114.739 85.3198 114.779 85.2598 114.839 85.2198C114.889 85.1798 114.959 85.1498 115.019 85.1298C115.089 85.1098 115.159 85.1098 115.219 85.1298C115.669 85.1498 116.099 85.2698 116.559 85.2698C118.849 85.2098 121.129 84.8798 123.349 84.2898C126.129 83.5498 128.809 82.4798 131.339 81.1198C131.799 80.8698 132.249 80.5998 132.719 80.3598C132.789 80.3098 132.859 80.2698 132.939 80.2498C133.019 80.2298 133.109 80.2298 133.189 80.2498C132.979 80.7298 132.729 81.1998 132.449 81.6498L132.419 81.6298ZM136.449 75.1798C136.449 75.1798 136.419 75.1598 136.409 75.1398L136.459 75.0998L136.499 75.1398C136.499 75.1398 136.469 75.1798 136.449 75.1798ZM143.199 59.3398C142.339 63.2598 140.659 66.9398 138.259 70.1498C136.449 72.5498 134.289 74.6498 131.849 76.3998C127.519 79.5198 122.709 81.5798 117.589 83.0098C116.319 83.3798 115.039 83.7098 113.739 83.9498C113.149 84.0598 113.119 84.0998 113.119 84.6798C113.029 88.1398 112.169 91.4198 110.849 94.5998C110.049 96.5998 108.939 98.4598 107.559 100.11C107.089 100.66 106.619 101.2 105.919 101.47L105.849 101.53L105.869 101.5L105.849 101.52L105.919 101.44C106.089 100.93 106.479 100.57 106.749 100.12C108.039 97.9598 108.809 95.5798 109.499 93.1798C110.099 91.0398 110.539 88.8698 110.829 86.6698C111.019 85.3198 111.129 83.9498 111.209 82.5798C111.269 81.3798 111.299 80.1898 111.319 78.9898C111.329 78.3798 111.169 77.8298 111.179 77.1998C111.189 76.5698 111.179 76.5598 111.779 76.3598C114.509 75.4798 117.199 74.4798 119.849 73.3598C122.659 72.1798 125.399 70.8398 128.069 69.3798C130.049 68.3098 131.969 67.1598 133.839 65.9098C137.079 63.7898 140.079 61.3198 142.769 58.5298C142.909 58.3798 143.049 58.2398 143.199 58.1098C143.229 58.0798 143.279 58.0698 143.379 58.0398C143.529 58.4998 143.309 58.9198 143.209 59.3298L143.199 59.3398ZM148.249 38.7198C148.019 41.0798 147.479 43.3998 146.649 45.6198C145.509 48.5798 143.949 51.3698 142.019 53.8898C140.859 55.4198 139.589 56.8698 138.219 58.2198C136.049 60.3598 133.719 62.3298 131.249 64.1098C126.699 67.3998 121.799 70.0898 116.729 72.4798C114.399 73.5798 112.019 74.5498 109.629 75.4798C108.889 75.7698 108.839 75.7598 108.939 76.5298C109.169 78.3698 109.059 80.2198 109.059 82.0698C109.009 83.5598 108.879 85.0498 108.659 86.5298C108.389 88.6798 107.979 90.8098 107.409 92.8998C106.459 96.4398 105.189 99.8498 103.199 102.95C102.039 104.74 100.699 106.38 98.9093 107.6C98.6593 107.77 98.4393 108.03 98.0593 108.03C98.0993 107.8 98.2093 107.6 98.3693 107.44C100.039 105.29 101.469 102.96 102.629 100.49C103.959 97.6598 104.869 94.6598 105.329 91.5698C105.509 90.3298 105.539 89.0998 105.659 87.8498C105.799 86.4698 105.659 85.0998 105.569 83.7398C105.419 81.5798 105.039 79.4298 104.449 77.3498C103.759 74.7698 102.809 72.2598 101.609 69.8798C101.519 69.7598 101.469 69.6098 101.469 69.4598C101.589 69.3298 101.749 69.2398 101.909 69.1898C107.059 66.6498 112.019 63.7298 116.729 60.4398C120.189 58.0798 123.549 55.5698 126.799 52.9098C129.039 51.0798 131.199 49.2298 133.389 47.2498C135.569 45.2698 137.719 43.2498 139.749 41.1098C142.579 38.1898 145.199 35.0598 147.589 31.7598C147.679 31.6298 147.739 31.4798 147.959 31.4498C148.109 31.8398 148.179 32.2498 148.179 32.6598C148.409 34.6698 148.439 36.6998 148.249 38.7098V38.7198Z" fill="black"/>
<path d="M74.639 12.2097C75.589 14.2497 76.759 16.1797 78.129 17.9697C79.849 20.2097 81.579 22.4397 83.319 24.6697C91.369 34.9497 95.659 46.7197 97.219 59.5797C97.469 61.6397 97.689 63.6997 97.819 65.7697C97.849 66.2897 97.879 66.3197 98.389 66.3397C98.989 66.3397 99.589 66.2797 100.169 66.1397C103.049 65.4797 105.769 64.2397 108.159 62.4997C108.289 62.4297 108.399 62.3197 108.469 62.1897H108.459C108.459 62.1897 108.399 62.1297 108.379 62.0997H108.369C107.859 62.3097 107.369 62.5397 106.849 62.7197C105.869 63.0997 104.819 63.2497 103.779 63.1597C100.939 62.8097 98.529 60.4397 98.059 57.5697C98.039 57.5397 97.999 57.4897 97.999 57.4697C98.049 57.3897 98.099 57.4097 98.139 57.4697H98.129V57.4897C98.429 57.5397 98.719 57.6397 98.979 57.7697C100.579 58.4097 102.279 58.7797 104.009 58.8497C104.389 58.8997 104.769 58.8497 105.139 58.7397C104.919 58.5797 104.669 58.4697 104.399 58.4297C103.489 58.1597 102.629 57.7497 101.839 57.2197C101.039 56.6897 100.399 55.9697 99.959 55.1197C99.529 54.2897 99.429 53.3297 99.679 52.4197C100.189 50.5097 102.019 49.5197 103.959 50.0997C105.009 50.4497 105.949 51.0497 106.719 51.8497C106.919 52.0497 107.059 52.3297 107.439 52.4197C107.499 50.4597 106.169 49.2697 105.109 47.8497C105.959 47.8497 106.809 47.9397 107.639 48.1297C110.009 48.7097 112.049 49.9597 113.919 51.4997C113.949 51.3997 113.979 51.3397 113.969 51.3097C113.909 51.1697 113.849 51.0397 113.769 50.9097C113.199 49.9597 112.479 49.1197 111.629 48.4097C109.969 47.0397 108.119 45.9197 106.129 45.0897C104.959 44.5897 103.749 44.1497 102.529 43.7797C102.809 43.6297 103.119 43.5597 103.439 43.5697C104.459 43.4697 105.459 43.2197 106.409 42.8197C107.769 42.2597 108.859 41.1997 109.469 39.8697C109.519 39.7297 109.689 39.5797 109.519 39.3597C107.839 40.4797 106.029 41.2897 103.959 41.3297C102.949 41.3597 101.939 41.1797 101.009 40.7897C100.079 40.3997 99.239 39.8197 98.549 39.0797C98.659 39.0597 98.779 39.0497 98.899 39.0497C99.099 39.0797 99.289 39.1197 99.489 39.1597C101.039 39.5197 102.639 39.6897 104.229 39.6397C105.519 39.5697 106.759 39.3397 107.849 38.5897C108.229 38.3697 108.549 38.0397 108.759 37.6497C108.699 37.6097 108.669 37.5897 108.649 37.5897C108.579 37.6097 108.509 37.6297 108.439 37.6597C106.649 38.4197 104.669 38.5797 102.779 38.1297C100.949 37.7897 99.269 36.8697 98.009 35.4997C97.579 35.0597 97.249 34.5297 97.029 33.9597C96.819 33.3797 96.719 32.7697 96.759 32.1497C96.779 31.8297 96.739 31.3997 97.029 31.2697C97.399 31.0997 97.719 31.4397 98.009 31.6797C98.349 31.9797 98.629 32.3397 98.839 32.7397C99.069 33.1597 99.259 33.5997 99.459 34.0197C99.519 34.1497 99.529 34.3197 99.709 34.3597C99.929 33.7497 99.959 33.0897 99.779 32.4597C99.479 30.9697 98.449 29.9997 97.159 29.0397C97.599 29.0097 97.839 28.9997 98.079 28.9797C99.329 28.9297 100.569 28.7297 101.769 28.3797C102.709 28.0997 103.569 27.5897 104.279 26.9097C104.989 26.2297 105.519 25.3897 105.839 24.4597C105.889 24.3697 105.919 24.2797 105.929 24.1797C105.929 24.0797 105.919 23.9797 105.869 23.8897L105.219 24.3697C104.079 25.2697 102.819 25.9997 101.469 26.5597C100.269 26.9997 99.029 27.1697 97.799 26.7397C95.159 25.8297 92.819 24.2297 91.009 22.0997C90.769 21.8697 90.599 21.5697 90.539 21.2497C91.119 21.2697 91.709 21.1997 92.279 21.0597C93.579 20.7397 94.739 20.0297 95.619 19.0297C96.049 18.5797 96.309 17.9897 96.349 17.3697C95.369 17.6297 94.459 17.7597 93.579 17.3197C92.759 16.8897 92.139 16.1697 91.809 15.2997C94.399 14.2397 95.589 12.7997 95.559 10.7197C94.219 11.6397 92.789 12.0497 91.089 11.6197C92.139 10.4197 92.769 8.90973 92.899 7.30973C93.049 5.76973 92.899 4.20973 92.479 2.71973C92.269 2.93973 92.109 3.20973 92.019 3.50973C91.699 4.26973 91.329 5.00973 90.919 5.71973C90.329 6.71973 89.419 7.48973 88.329 7.90973C88.169 7.96973 88.019 8.07973 87.809 7.94973C87.819 7.20973 87.859 6.40973 87.279 5.75973C87.219 5.79973 87.189 5.81973 87.189 5.83973C87.149 5.89973 87.119 5.96973 87.099 6.04973C86.799 7.14973 86.099 8.08973 85.129 8.68973C84.089 9.39973 82.869 9.79973 81.609 9.81973C80.159 9.85973 78.709 9.85973 77.259 9.85973C76.629 9.85973 76.009 9.89973 75.389 9.97973C74.519 10.1097 74.179 10.6297 74.399 11.4697C74.469 11.7297 74.569 11.9897 74.679 12.2397L74.639 12.2097ZM98.439 38.9797C98.439 38.9797 98.469 38.9497 98.489 38.9497C98.489 38.9497 98.509 38.9697 98.519 38.9797H98.529C98.529 38.9797 98.499 39.0197 98.479 39.0197C98.459 39.0197 98.419 38.9897 98.439 38.9797Z" fill="white" stroke="black" stroke-miterlimit="10" stroke-linecap="round"/>
<path d="M54.3299 28.8401C55.5499 32.0001 57.4499 34.7501 59.5599 37.3601C59.6199 37.4401 59.6799 37.5201 59.7999 37.5001C59.8699 37.2301 59.6799 37.0301 59.5799 36.8201C58.5999 34.5501 57.6999 32.2401 57.3499 29.7701C57.1299 28.2801 57.1199 26.7801 57.6599 25.3301C57.7199 25.2001 57.6899 24.9601 57.9699 24.9801C58.1999 26.1401 58.8899 27.0101 59.7799 27.7401C61.0399 28.7701 62.5099 29.5201 64.0899 29.9301C64.2499 29.9601 64.3999 30.1001 64.5599 29.9601C64.5599 29.9301 64.5799 29.8801 64.5599 29.8801L63.9899 29.4001C63.1099 28.7101 62.3899 27.8501 61.8699 26.8601C61.3499 25.8701 61.0599 24.7801 60.9999 23.6701C60.9099 21.9401 61.1499 20.2201 61.7099 18.5801C62.7099 15.4801 64.3299 12.7101 66.1699 10.0401L66.8099 9.12012C66.1599 9.16012 65.6599 9.17012 65.1499 9.20012C63.0499 9.34012 60.9999 9.84012 59.0699 10.6901C56.3999 11.9301 54.5999 13.9401 53.8199 16.7801C52.6999 20.8501 52.7799 24.8701 54.3199 28.8401H54.3299Z" fill="white" stroke="black" stroke-miterlimit="10" stroke-linecap="round"/>
<path d="M49.411 38.4203C50.001 41.1903 50.681 43.9703 50.921 46.8203C51.151 49.5703 50.921 52.2703 49.801 54.8203C49.441 55.5903 49.331 56.4503 49.491 57.2803C49.901 59.6303 50.941 61.6303 52.811 63.1403C53.461 63.7003 54.261 64.0603 55.111 64.1603C56.251 64.3003 57.411 64.2803 58.551 64.1103C60.321 63.7703 61.671 62.7703 62.741 61.3703L62.641 61.2503C62.171 61.5303 61.711 61.8203 61.231 62.0903C60.361 62.6303 59.411 63.0403 58.421 63.3003C57.051 63.6103 55.741 63.5403 54.581 62.6303C54.151 62.2903 53.691 61.9803 53.281 61.6103C51.641 60.1703 50.971 58.4003 51.411 56.2303C51.601 55.3003 51.881 54.4003 52.141 53.4803C52.331 52.9703 52.461 52.4303 52.521 51.8803C52.531 50.7403 52.521 49.5903 52.441 48.4403C52.281 46.1003 52.061 43.7603 51.751 41.4303C51.541 39.8903 51.371 38.3003 51.061 36.7603C50.671 34.7803 50.211 32.8103 50.031 30.7903C49.821 28.6803 49.871 26.5403 50.181 24.4403C50.641 21.5503 51.631 18.7603 53.091 16.2203C53.161 16.0903 53.311 15.9703 53.211 15.7803C53.151 15.8103 53.111 15.8303 53.111 15.8303C49.941 20.1203 48.201 24.8903 48.301 30.2703C48.351 33.0303 48.841 35.7303 49.411 38.4203Z" fill="white"/>
<path d="M63.9793 16.0398C63.6393 16.8198 63.5093 17.6798 63.5893 18.5298C63.6693 19.3798 63.9693 20.1898 64.4593 20.8998C65.0393 21.7698 65.7593 22.5598 66.5693 23.2198C66.6893 23.3198 66.7893 23.4998 67.0393 23.4098C67.0793 22.7198 66.8893 22.0398 66.7993 21.3498C66.6093 19.8598 66.4893 18.3698 66.8293 16.8798C67.3493 14.5698 68.6193 12.6698 70.0893 10.8798C70.1193 10.8298 70.2193 10.8498 70.2993 10.8298C70.4393 11.2098 70.5093 11.6098 70.5093 12.0198C70.5293 13.1698 70.3393 14.3198 69.9793 15.4098C69.4593 17.0998 68.8893 18.7798 68.3393 20.4698C68.2893 20.5798 68.2693 20.6898 68.2693 20.8098C68.2693 20.9298 68.2893 21.0398 68.3393 21.1498C72.4593 15.6898 73.0393 9.69984 71.7193 3.33984C71.3393 4.97984 70.6593 6.52984 69.6993 7.90984C69.2793 8.52984 68.8393 9.13984 68.3793 9.72984C67.5893 10.7598 66.7593 11.7598 65.9593 12.7898C65.1493 13.7698 64.4793 14.8698 63.9793 16.0398Z" fill="white" stroke="black" stroke-miterlimit="10" stroke-linecap="round"/>
<path d="M68.5395 23.46C68.5595 23.76 68.6495 24.04 68.7995 24.3C69.2595 25.38 69.6595 26.48 69.9995 27.61C70.8995 30.56 71.2095 33.65 70.9195 36.72C70.5895 39.88 69.5795 42.94 67.9595 45.68C67.8395 45.88 67.6295 46.06 67.6995 46.41C68.6695 45.76 69.5395 44.98 70.2795 44.09C72.5195 41.44 73.9195 38.19 74.2995 34.74C74.5795 32.57 74.2595 30.37 73.3595 28.38C72.3695 26.21 70.7495 24.64 68.5495 23.48L68.5395 23.46Z" fill="white"/>
<path d="M48.0703 22.8102C48.0703 22.8102 48.1603 22.8502 48.2703 22.8502C48.8903 20.3402 50.3103 18.2002 51.6503 15.9502C51.3103 15.8402 51.0603 15.7602 50.8003 15.6802C49.4703 15.3102 48.2203 14.7102 47.1103 13.9002C46.3603 13.3702 45.7603 12.6502 45.3903 11.8102C45.0203 10.9702 44.8703 10.0502 44.9603 9.1402C44.9803 8.8802 44.9603 8.6202 44.9603 8.2002C44.1703 9.2902 43.5803 10.5002 43.2003 11.7902C42.6003 13.7502 42.7603 15.8602 43.6603 17.7002C44.6703 19.8002 46.2603 21.4102 48.0803 22.8202L48.0703 22.8102Z" fill="white" stroke="black" stroke-miterlimit="10" stroke-linecap="round"/>
<path d="M68.1895 48.5104C68.2595 48.3604 68.4295 48.2204 68.3095 47.9404C67.5495 48.9204 66.8795 49.9704 66.2895 51.0604C64.9295 53.5904 63.8495 56.1904 63.9295 59.1604C63.9695 60.4404 63.6995 61.7104 63.1295 62.8604C62.8595 63.4504 62.4495 63.9704 61.9295 64.3804C61.4195 64.7904 60.8195 65.0704 60.1795 65.2004C59.1695 65.3904 58.1395 65.4104 57.1295 65.2504C56.2195 65.1404 55.3395 64.8504 54.2695 64.7904C55.6095 66.0004 57.2595 66.8204 59.0295 67.1504C61.4595 67.5504 63.3595 66.6104 64.4795 64.4304C64.8195 63.7604 65.0695 63.0504 65.2395 62.3204C65.7395 60.2804 65.7395 58.2104 65.6595 56.1404C65.6395 55.6704 65.6795 55.1904 65.7895 54.7304C66.3495 52.5804 67.1495 50.5004 68.1695 48.5204L68.1895 48.5104Z" fill="white"/>
<path d="M56.141 55.0097C55.271 55.2597 54.501 55.7697 53.931 56.4797C53.881 56.5297 53.841 56.5997 53.821 56.6697C53.801 56.7397 53.811 56.8197 53.841 56.8897C54.921 56.8597 56.061 56.8397 56.961 57.6397C57.861 58.4397 58.231 59.5197 58.651 60.5997C58.831 59.7497 58.891 58.8697 58.841 57.9997C58.821 57.3797 58.701 56.7597 58.481 56.1797C58.041 55.1297 57.211 54.6997 56.121 55.0097H56.141Z" fill="white"/>
<path d="M62.5604 30.2497C61.7704 30.4297 61.0604 30.8497 60.5404 31.4597C60.1204 31.9697 59.9004 32.5997 59.9004 33.2597C59.9004 33.5197 59.9404 33.7497 60.2704 33.8097C61.5704 34.0597 63.3404 33.2097 63.3004 31.4797C63.3004 31.1697 63.2304 30.8597 63.1304 30.5597C63.0504 30.2497 62.8604 30.1697 62.5604 30.2497Z" fill="white"/>
<path d="M75.3398 18.4403C75.3398 18.5003 75.3898 18.5603 75.4398 18.6103C75.4798 18.6703 75.5199 18.6603 75.5499 18.5803C75.5199 18.5303 75.4798 18.4903 75.4398 18.4203C75.3898 18.3603 75.3398 18.3703 75.3398 18.4403Z" fill="black"/>
<path d="M108.6 62.0102C108.6 62.0102 108.6 62.0002 108.6 61.9902C108.6 61.9902 108.59 61.9902 108.58 61.9902V62.0102H108.6Z" fill="white"/>
<path d="M108.66 61.9502C108.66 61.9502 108.63 61.9502 108.62 61.9502C108.53 61.9702 108.62 61.9502 108.61 62.0002C108.65 62.0002 108.67 62.0002 108.67 61.9502H108.66Z" fill="white"/>
<path d="M108.579 62.0099C108.579 62.0099 108.499 61.9899 108.469 62.0099C108.429 62.0199 108.389 62.0499 108.359 62.0799L108.379 62.0999C108.379 62.0999 108.439 62.1599 108.469 62.1799C108.549 62.1499 108.629 62.1299 108.579 62.0199V62.0099Z" fill="white"/>
<path d="M108.58 62C108.58 62 108.58 62 108.58 62.02H108.59L108.57 62H108.58Z" fill="white"/>
<path d="M108.471 62.1796C108.471 62.1796 108.411 62.1296 108.381 62.0996C108.411 62.1296 108.431 62.1596 108.461 62.1896L108.471 62.1796Z" fill="white"/>
<path d="M57.5595 108.22C57.5595 108.22 57.5595 108.14 57.5395 108.11C57.5195 108.08 57.4895 108.06 57.4595 108.05H57.4395V108.07C57.4395 108.07 57.4495 108.07 57.4595 108.07C57.4495 108.11 57.4595 108.14 57.4595 108.18C57.4695 108.21 57.4895 108.23 57.5095 108.25C57.5195 108.25 57.5295 108.25 57.5395 108.24C57.5395 108.24 57.5595 108.22 57.5595 108.21V108.22Z" fill="white"/>
<path d="M57.4497 108.08C57.4497 108.08 57.4397 108.08 57.4297 108.08C57.4297 108.11 57.4297 108.15 57.4297 108.18C57.4397 108.21 57.4697 108.25 57.4997 108.26C57.4997 108.26 57.4597 108.22 57.4497 108.19C57.4397 108.15 57.4397 108.12 57.4497 108.08Z" fill="white"/>
<path d="M57.4592 108.06L57.4492 108.05L57.4592 108.06Z" fill="white"/>
<path d="M57.3495 108.03C57.3495 108.03 57.4095 108.06 57.4395 108.06H57.4495L57.3195 107.9L57.2695 107.95C57.2695 107.95 57.3095 108.01 57.3395 108.04L57.3495 108.03Z" fill="white"/>
<path d="M57.4503 108.05L57.4603 108.06L57.4703 108.05L57.3303 107.89L57.3203 107.9L57.4503 108.05Z" fill="white"/>
<path d="M105.89 101.45L105.85 101.5L105.9 101.47L105.89 101.45Z" fill="white"/>
<path d="M105.82 101.53L105.9 101.47L105.85 101.5L105.82 101.53Z" fill="white"/>
<path d="M49.6309 101.48L49.7209 101.54L49.6609 101.44L49.6309 101.48Z" fill="white"/>
<path d="M111.44 96.3496V96.3596L111.4 96.4096L111.45 96.3696L111.44 96.3496Z" fill="white"/>
<path d="M111.441 96.3496L111.381 96.4296L111.401 96.4096L111.441 96.3596V96.3496Z" fill="white"/>
<path d="M136.481 75.1396L136.441 75.0996L136.391 75.1396C136.391 75.1396 136.421 75.1696 136.431 75.1796C136.441 75.1796 136.461 75.1596 136.481 75.1496V75.1396Z" fill="white"/>
<path d="M136.44 75.1699C136.44 75.1699 136.4 75.1399 136.4 75.1299C136.4 75.1299 136.43 75.1699 136.44 75.1699Z" fill="white"/>
<path d="M98 57.4503C98 57.4503 98.04 57.5103 98.06 57.5403L98.13 57.4603C98.09 57.4103 98.04 57.3903 98 57.4603V57.4503Z" fill="white"/>
<path d="M98 57.4499C98.04 57.3899 98.09 57.4099 98.13 57.4599H98.14C98.1 57.3999 98.04 57.3699 98 57.4499Z" fill="white"/>
<path d="M98.5294 38.9902C98.5294 38.9902 98.5294 38.9902 98.5194 38.9802C98.5194 38.9702 98.4994 38.9502 98.4894 38.9502C98.4794 38.9502 98.4595 38.9702 98.4395 38.9802C98.4495 39.0002 98.4695 39.0202 98.4795 39.0202C98.4895 39.0202 98.5094 38.9902 98.5294 38.9902Z" fill="white"/>
<path d="M98.4906 38.9502C98.4906 38.9502 98.4306 38.9702 98.4406 38.9802C98.4406 38.9802 98.4806 38.9502 98.4906 38.9502Z" fill="white"/>
</g>
</g>
<defs>
<clipPath id="clip0_519_2525">
<rect width="154.587" height="174.009" fill="white"/>
</clipPath>
<clipPath id="clip1_519_2525">
<rect width="145.53" height="115.7" fill="white" transform="translate(5 1)"/>
</clipPath>
</defs>
</svg>
