<svg width="264" height="39" viewBox="0 0 264 39" fill="none" xmlns="http://www.w3.org/2000/svg">
<g clip-path="url(#clip0_442_2108)">
<path opacity="0.07" d="M56.6992 0.251953H5.69922C2.98984 0.251953 0.917969 2.31029 0.917969 5.00195V33.502C0.917969 36.1936 3.14922 38.252 5.69922 38.252H56.6992C59.4086 38.252 61.4805 36.1936 61.4805 33.502V5.00195C61.4805 2.31029 59.2492 0.251953 56.6992 0.251953Z" fill="white"/>
<path d="M56.7012 1.83496C58.4543 1.83496 59.8887 3.25996 59.8887 5.00163V33.5016C59.8887 35.2433 58.4543 36.6683 56.7012 36.6683H5.70117C3.94805 36.6683 2.51367 35.2433 2.51367 33.5016V5.00163C2.51367 3.25996 3.94805 1.83496 5.70117 1.83496H56.7012Z" fill="white"/>
<path d="M46.0211 16.2439H45.543C44.9055 17.8273 44.4273 18.6189 43.9492 20.9939H46.9773C46.4992 18.6189 46.4992 17.5106 46.0211 16.2439ZM50.643 25.5856H47.9336C47.7742 25.5856 47.7742 25.5856 47.6148 25.4273L47.2961 24.0023L47.1367 23.6856H43.3117C43.1523 23.6856 42.993 23.6856 42.993 24.0023L42.5148 25.4273C42.5148 25.5856 42.3555 25.5856 42.3555 25.5856H39.0086L39.3273 24.7939L43.9492 14.0273C43.9492 13.2356 44.4273 12.9189 45.2242 12.9189H47.6148C47.7742 12.9189 47.9336 12.9189 47.9336 13.2356L50.1648 23.5273C50.3242 24.1606 50.4836 24.6356 50.4836 25.2689C50.643 25.4273 50.643 25.4273 50.643 25.5856ZM29.2867 25.1106L29.9242 22.2606C30.0836 22.2606 30.243 22.4189 30.243 22.4189C31.3586 22.8939 32.4742 23.2106 33.5898 23.0523C33.9086 23.0523 34.3867 22.8939 34.7055 22.7356C35.5023 22.4189 35.5023 21.6273 34.8648 20.9939C34.5461 20.6773 34.068 20.5189 33.5898 20.2023C32.9523 19.8856 32.3148 19.5689 31.8367 19.0939C29.9242 17.5106 30.5617 15.2939 31.6773 14.1856C32.6336 13.5523 33.1117 12.9189 34.3867 12.9189C36.2992 12.9189 38.3711 12.9189 39.3273 13.2356H39.4867C39.3273 14.1856 39.168 14.9773 38.8492 15.9273C38.0523 15.6106 37.2555 15.2939 36.4586 15.2939C35.9805 15.2939 35.5023 15.2939 35.0242 15.4523C34.7055 15.4523 34.5461 15.6106 34.3867 15.7689C34.068 16.0856 34.068 16.5606 34.3867 16.8773L35.1836 17.5106C35.8211 17.8273 36.4586 18.1439 36.9367 18.4606C37.7336 18.9356 38.5305 19.7273 38.6898 20.6773C39.0086 22.1023 38.5305 23.3689 37.2555 24.3189C36.4586 24.9523 36.1398 25.2689 35.0242 25.2689C32.793 25.2689 31.0398 25.4273 29.6055 24.9523C29.4461 25.2689 29.4461 25.2689 29.2867 25.1106ZM23.7086 25.5856C23.868 24.4773 23.868 24.4773 24.0273 24.0023C24.8242 20.5189 25.6211 16.8773 26.2586 13.3939C26.418 13.0773 26.418 12.9189 26.7367 12.9189H29.6055C29.2867 14.8189 28.968 16.2439 28.4898 17.9856C28.0117 20.3606 27.5336 22.7356 26.8961 25.1106C26.8961 25.4273 26.7367 25.4273 26.418 25.4273M8.88672 13.2356C8.88672 13.0773 9.20547 12.9189 9.36484 12.9189H14.7836C15.5805 12.9189 16.218 13.3939 16.3773 14.1856L17.8117 21.1523C17.8117 21.3106 17.8117 21.3106 17.9711 21.4689C17.9711 21.3106 18.1305 21.3106 18.1305 21.3106L21.4773 13.2356C21.318 13.0773 21.4773 12.9189 21.6367 12.9189H24.9836C24.9836 13.0773 24.9836 13.0773 24.8242 13.2356L19.8836 24.7939C19.7242 25.1106 19.7242 25.2689 19.5648 25.4273C19.4055 25.5856 19.0867 25.4273 18.768 25.4273H16.3773C16.218 25.4273 16.0586 25.4273 16.0586 25.1106L13.5086 15.2939C13.1898 14.9773 12.7117 14.5023 12.0742 14.3439C11.118 13.8689 9.36484 13.5523 9.04609 13.5523L8.88672 13.2356Z" fill="#142688"/>
</g>
<g clip-path="url(#clip1_442_2108)">
<path opacity="0.07" d="M124.184 0.251953H73.1836C70.4742 0.251953 68.4023 2.31029 68.4023 5.00195V33.502C68.4023 36.1936 70.6336 38.252 73.1836 38.252H124.184C126.893 38.252 128.965 36.1936 128.965 33.502V5.00195C128.965 2.31029 126.734 0.251953 124.184 0.251953Z" fill="white"/>
<path d="M124.186 1.83496C125.939 1.83496 127.373 3.25996 127.373 5.00163V33.5016C127.373 35.2433 125.939 36.6683 124.186 36.6683H73.1855C71.4324 36.6683 69.998 35.2433 69.998 33.5016V5.00163C69.998 3.25996 71.4324 1.83496 73.1855 1.83496H124.186Z" fill="white"/>
<path d="M106.493 13.3939C106.812 11.8106 106.493 10.7023 105.537 9.75228C104.58 8.64395 102.827 8.16895 100.596 8.16895H94.0617C93.5836 8.16895 93.2648 8.48561 93.1055 8.96061L90.7148 24.9523C90.7148 25.2689 90.8742 25.5856 91.193 25.5856H95.4961L96.1336 20.2023L99.0023 16.7189L106.493 13.3939Z" fill="#003087"/>
<path d="M106.492 13.3936L106.173 13.7102C105.376 18.1436 102.667 19.7269 98.8418 19.7269H97.0887C96.6105 19.7269 96.2918 20.0436 96.1324 20.5186L95.1762 26.6936L94.8574 28.2769C94.8574 28.5936 95.0168 28.9102 95.3355 28.9102H98.6824C99.1605 28.9102 99.4793 28.5936 99.4793 28.2769V28.1186L100.117 24.3186V24.1602C100.117 23.8436 100.595 23.5269 100.914 23.5269H101.392C104.739 23.5269 107.289 22.2602 107.926 18.4602C108.245 16.8769 108.086 15.6102 107.289 14.6602C107.129 13.8686 106.811 13.5519 106.492 13.3936Z" fill="#3086C8"/>
<path d="M105.536 13.0775C105.377 12.9192 105.217 12.9192 105.058 12.9192C104.898 12.9192 104.739 12.9192 104.58 12.7609C104.102 12.6025 103.464 12.6025 102.827 12.6025H98.0453C97.8859 12.6025 97.7266 12.6025 97.7266 12.7609C97.4078 12.9192 97.2484 13.0775 97.2484 13.3942L96.1328 20.3609V20.5192C96.1328 20.0442 96.6109 19.7275 97.0891 19.7275H99.1609C103.145 19.7275 105.695 18.1442 106.492 13.7109V13.3942C106.333 13.2359 106.014 13.0775 105.695 13.0775H105.536Z" fill="#012169"/>
</g>
<g clip-path="url(#clip2_442_2108)">
<path opacity="0.07" d="M191.668 0.251953H140.668C137.959 0.251953 135.887 2.31029 135.887 5.00195V33.502C135.887 36.1936 138.118 38.252 140.668 38.252H191.668C194.377 38.252 196.449 36.1936 196.449 33.502V5.00195C196.449 2.31029 194.218 0.251953 191.668 0.251953Z" fill="white"/>
<path d="M191.67 1.83496C193.423 1.83496 194.857 3.25996 194.857 5.00163V33.5016C194.857 35.2433 193.423 36.6683 191.67 36.6683H140.67C138.917 36.6683 137.482 35.2433 137.482 33.5016V5.00163C137.482 3.25996 138.917 1.83496 140.67 1.83496H191.67Z" fill="white"/>
<path d="M159.795 30.3356C165.956 30.3356 170.951 25.3734 170.951 19.2523C170.951 13.1311 165.956 8.16895 159.795 8.16895C153.633 8.16895 148.639 13.1311 148.639 19.2523C148.639 25.3734 153.633 30.3356 159.795 30.3356Z" fill="#EB001B"/>
<path d="M172.543 30.3356C178.704 30.3356 183.699 25.3734 183.699 19.2523C183.699 13.1311 178.704 8.16895 172.543 8.16895C166.382 8.16895 161.387 13.1311 161.387 19.2523C161.387 25.3734 166.382 30.3356 172.543 30.3356Z" fill="#F79E1B"/>
<path d="M170.949 19.2516C170.949 15.4516 169.037 12.1266 166.168 10.2266C163.299 12.2849 161.387 15.6099 161.387 19.2516C161.387 22.8932 163.299 26.3766 166.168 28.2766C169.037 26.3766 170.949 23.0516 170.949 19.2516Z" fill="#FF5F00"/>
</g>
<g clip-path="url(#clip3_442_2108)">
<path opacity="0.07" d="M259.15 0.251953H208.15C205.441 0.251953 203.369 2.31029 203.369 5.00195V33.502C203.369 36.1936 205.6 38.252 208.15 38.252H259.15C261.86 38.252 263.932 36.1936 263.932 33.502V5.00195C263.932 2.31029 261.7 0.251953 259.15 0.251953Z" fill="white"/>
<path d="M259.152 1.83496C260.905 1.83496 262.34 3.25996 262.34 5.00163V33.5016C262.34 35.2433 260.905 36.6683 259.152 36.6683H208.152C206.399 36.6683 204.965 35.2433 204.965 33.5016V5.00163C204.965 3.25996 206.399 1.83496 208.152 1.83496H259.152Z" fill="white"/>
<path d="M217.665 16.5099L218.898 19.4803H216.441L217.665 16.5099ZM243.284 16.6334H238.54V17.9429H243.208V19.9046H238.549V21.3644H243.294V22.5345L246.604 18.9799L243.294 15.2749L243.284 16.6334ZM220.871 12.9284H227.238L228.652 15.9922L229.962 12.9189H246.489L248.207 14.8031L249.984 12.9189H257.575L251.967 19.0179L257.518 25.0789H249.814L248.096 23.1948L246.303 25.0789H219.352L218.565 23.1948H216.764L215.975 25.0789H209.742L214.979 12.9189H220.446L220.871 12.9284ZM234.678 14.6353H231.11L228.719 20.2339L226.129 14.6353H222.588V22.2511L219.305 14.6353H216.128L212.332 23.3626H214.81L215.598 21.4784H219.735L220.522 23.3626H224.857V17.1322L227.648 23.3721H229.545L232.318 17.1512V23.3737H234.641L234.68 14.6337L234.678 14.6353ZM249.564 19.0179L253.597 14.6353H250.694L248.142 17.3681L245.675 14.6353H236.281V23.3721H245.541L248.113 20.6203L250.58 23.3721H253.569L249.564 19.0179Z" fill="#006FCF"/>
</g>
<defs>
<clipPath id="clip0_442_2108">
<rect width="60.5625" height="38" fill="white" transform="translate(0.917969 0.251953)"/>
</clipPath>
<clipPath id="clip1_442_2108">
<rect width="60.5625" height="38" fill="white" transform="translate(68.4023 0.251953)"/>
</clipPath>
<clipPath id="clip2_442_2108">
<rect width="60.5625" height="38" fill="white" transform="translate(135.887 0.251953)"/>
</clipPath>
<clipPath id="clip3_442_2108">
<rect width="60.5625" height="38" fill="white" transform="translate(203.369 0.251953)"/>
</clipPath>
</defs>
</svg>
