<svg width="308" height="62" viewBox="0 0 308 62" fill="none" xmlns="http://www.w3.org/2000/svg">
<g clip-path="url(#clip0_1031_2478)">
<path d="M91.1622 61.2597C81.1985 60.7401 70.4708 56.6548 64.8878 44.5415C59.3049 32.4281 60.3032 20.6816 69.0749 10.5854C78.3254 -0.0710663 90.7954 -1.76225 103.866 1.41636C116.571 4.55421 124.099 12.9082 126.015 25.9894C128.959 46.1511 115.205 61.2189 91.1622 61.2597ZM113.188 31.3176L113.26 30.2988C110.203 29.2801 107.269 28.0168 104.172 27.2425C102.69 26.9467 101.322 26.2364 100.227 25.194C99.1323 24.1516 98.3559 22.8201 97.988 21.354C97.0303 18.3995 95.6448 15.5775 94.0351 11.7366C92.7718 15.2005 91.641 17.4724 91.1316 19.8869C90.1128 24.6141 87.2602 26.9369 82.635 27.8232C79.9413 28.4847 77.288 29.3011 74.6884 30.2683C77.9471 32.1449 81.4563 33.5479 85.1105 34.4351C86.1759 34.6433 87.1617 35.1461 87.9558 35.8862C88.75 36.6263 89.3208 37.5742 89.6034 38.6224C90.7648 42.0557 92.3032 45.3667 94.1065 49.829C95.5022 46.2632 96.7247 43.7163 97.499 41.0471C98.64 37.1044 100.902 34.7102 105.089 33.9156C107.831 33.2091 110.528 32.3416 113.168 31.3176H113.188Z" fill="#E21B1B"/>
<path d="M246.505 1.56911H263.611L267.461 12.898C270.63 9.67862 273.574 6.90753 276.254 3.9225C277.112 2.8852 278.21 2.07168 279.452 1.55176C280.694 1.03185 282.044 0.821002 283.385 0.937408C287.236 1.14116 291.107 0.937408 294.969 0.937408C295.101 1.28379 295.223 1.64037 295.356 1.95619C289.844 8.00777 284.791 14.5687 278.699 19.9785C272.382 25.592 270.365 31.1851 273.605 39.1928C275.734 44.3988 276.417 50.1854 277.986 56.6751C272.158 56.6751 266.85 56.8279 261.563 56.5324C260.636 56.5324 259.434 54.6579 259.006 53.4761C257.987 50.6439 257.396 47.6792 256.428 44.0218C253.005 47.7404 249.887 50.9699 246.953 54.3726C246.132 55.4277 245.059 56.2602 243.833 56.794C242.606 57.3279 241.266 57.5462 239.934 57.429C235.563 57.2048 231.173 57.378 225.926 57.378C226.759 56.1302 227.657 54.9265 228.615 53.7716C235.553 46.416 242.399 38.9788 249.551 31.8269C252.19 29.1883 252.547 26.5802 251.701 23.2488C249.938 16.3313 248.349 9.30168 246.505 1.56911Z" fill="#E21B1B"/>
<path d="M179.877 1.68138C176.963 6.36779 174.59 10.1984 172.206 14.0086C163.882 27.2528 155.498 40.497 147.296 53.8431C145.707 56.4206 143.955 57.7348 140.827 57.5718C136.66 57.3579 132.473 57.5718 127.797 57.5718C129.926 38.7243 131.974 20.5696 134.073 2.08886H149.049C147.948 10.5448 146.858 18.8988 145.778 27.2528L146.899 27.6807C148.336 25.3069 149.782 22.9434 151.219 20.5492C154.458 15.2312 157.8 9.9743 160.877 4.56456C161.33 3.58599 162.083 2.77658 163.025 2.25295C163.968 1.72933 165.053 1.51847 166.124 1.65079C170.341 1.80361 174.579 1.68138 179.877 1.68138Z" fill="#E21B1B"/>
<path d="M216.513 45.7941C216.556 46.3944 216.556 46.9971 216.513 47.5974C214.037 57.3981 214.037 57.3981 203.941 57.3981H173.602C173.716 56.175 173.923 54.9625 174.223 53.7712C178.298 41.8617 182.496 29.9928 186.449 18.0527C187.325 15.4038 188.557 14.1711 191.471 14.3341C195.149 14.548 198.857 14.385 203.279 14.385C202.341 17.7572 201.577 20.4977 200.599 24.0635H216.278C214.822 27.9858 213.833 31.0829 212.489 34.017C212.159 34.4647 211.741 34.8403 211.261 35.1207C210.781 35.401 210.249 35.5801 209.697 35.647C208.005 35.8229 206.302 35.8637 204.603 35.7693C195.241 35.7693 195.241 35.7693 193.091 45.7941H216.513Z" fill="#E21B1B"/>
<path d="M37.32 29.4935C40.3763 21.5368 43.6059 13.6311 46.489 5.61326C47.5689 2.62823 49.0462 1.29362 52.3368 1.53813C55.6275 1.78264 59.0711 1.60945 63.1156 1.60945C62.5451 3.59608 62.1884 5.15482 61.6484 6.64224C55.9738 22.2806 50.1872 37.868 44.6552 53.5063C43.5243 56.6951 42.0063 58.2233 38.5425 57.9686C35.0786 57.7139 31.472 57.9074 27.7637 57.9074C24.8296 41.3318 28.5074 26.1927 36.4437 11.5935V29.2287L37.32 29.4935Z" fill="#E21B1B"/>
<path d="M0 57.8973C1.0901 54.841 1.92555 52.294 2.85264 49.8082C8.36426 35.1988 13.9573 20.62 19.3467 6.00047C20.5081 2.83205 22.0975 1.40576 25.6022 1.74196C28.9438 2.05779 32.3463 1.80309 36.1362 1.80309C35.7287 3.3822 35.5351 4.66587 35.1174 5.87822C29.1372 21.7509 23.0348 37.5624 17.187 53.486C16.0256 56.6544 14.5075 58.2131 11.0233 57.9992C7.53907 57.7852 4.25851 57.8973 0 57.8973Z" fill="#E21B1B"/>
<path d="M232.13 0.295331C230.724 4.82892 229.552 8.58818 228.381 12.4086H188.557C189.728 8.72062 190.655 5.35867 191.908 2.12913C192.167 1.6538 192.535 1.24633 192.981 0.94003C193.427 0.633732 193.939 0.437236 194.476 0.366592C206.722 0.254525 219.018 0.295331 232.13 0.295331Z" fill="#E21B1B"/>
<path d="M302.661 9.96397C301.395 9.96397 300.182 9.46192 299.286 8.56805C298.39 7.67419 297.886 6.46153 297.883 5.19607C297.883 3.92884 298.386 2.71349 299.282 1.81743C300.178 0.921362 301.394 0.417969 302.661 0.417969C303.926 0.420667 305.139 0.92526 306.033 1.82103C306.927 2.71681 307.429 3.9306 307.429 5.19607C307.426 6.45977 306.923 7.67093 306.029 8.56451C305.136 9.45808 303.925 9.96127 302.661 9.96397ZM302.661 1.43675C301.664 1.43675 300.708 1.83279 300.003 2.5378C299.298 3.24281 298.902 4.19903 298.902 5.19607C298.904 6.19133 299.301 7.14487 300.006 7.84768C300.711 8.55048 301.666 8.94519 302.661 8.94518C303.655 8.94518 304.609 8.55015 305.312 7.84705C306.015 7.14396 306.41 6.1904 306.41 5.19607C306.41 4.2008 306.015 3.24612 305.313 2.54141C304.61 1.83669 303.656 1.43945 302.661 1.43675Z" fill="#E21B1B"/>
<path d="M300.46 1.3547C301.068 1.24591 301.686 1.19472 302.304 1.20186C303.075 1.1243 303.847 1.34285 304.464 1.81317C304.658 1.99295 304.811 2.21245 304.913 2.45681C305.015 2.70117 305.064 2.9646 305.055 3.22923C305.061 3.6568 304.927 4.07463 304.673 4.4187C304.419 4.76277 304.059 5.01419 303.649 5.13441C303.946 5.26827 304.204 5.478 304.395 5.74261C304.587 6.00722 304.705 6.31742 304.739 6.64219C304.868 7.33802 305.063 8.02018 305.319 8.67976H304.301C304.08 8.10201 303.913 7.50521 303.801 6.89689C303.577 5.8781 303.18 5.4808 302.304 5.45023H301.397V8.67976H300.439L300.46 1.3547ZM301.418 4.75741H302.436C303.455 4.75741 304.117 4.18693 304.117 3.34134C304.117 2.49575 303.425 1.9558 302.406 1.94561C302.084 1.9334 301.762 1.9642 301.448 2.03727L301.418 4.75741Z" fill="#E21B1B"/>
</g>
<defs>
<clipPath id="clip0_1031_2478">
<rect width="307.377" height="61.2696" fill="white"/>
</clipPath>
</defs>
</svg>
