<svg width="351" height="54" viewBox="0 0 351 54" fill="none" xmlns="http://www.w3.org/2000/svg">
<path d="M15.3731 53.8266C13.4332 53.8266 11.3826 53.5218 9.22101 52.9121C7.1149 52.3579 5.23048 51.4157 3.56776 50.0855C1.96046 48.7553 0.879687 46.9818 0.325446 44.7648C0.270022 44.4877 0.214597 44.1828 0.159173 43.8503C0.159173 43.5177 0.159173 43.1852 0.159173 42.8527C0.159173 41.1345 0.547142 39.4718 1.32308 37.8645C2.09902 36.2572 3.04123 35.0379 4.14971 34.2065H4.23284C4.34369 34.2065 4.48225 34.3451 4.64853 34.6222C4.87022 34.8439 4.87022 35.0101 4.64853 35.121C4.09428 35.6752 3.6786 36.3126 3.40148 37.0331C3.17979 37.6982 3.06894 38.4187 3.06894 39.1947C3.06894 40.2477 3.23521 41.3285 3.56776 42.437C3.95572 43.49 4.42683 44.4045 4.98107 45.1805C6.36667 47.1203 8.2788 48.6722 10.7175 49.8361C13.2115 50.9446 15.6502 51.4988 18.0334 51.4988C21.3035 51.4988 23.8253 50.5289 25.5988 48.5891C27.4278 46.6492 28.3423 44.266 28.3423 41.4393C28.3423 39.7212 28.0098 38.003 27.3447 36.2849C26.4579 33.9017 25.2663 31.5739 23.7698 29.3015C22.3288 26.9737 20.9986 24.7013 19.7793 22.4843C18.7262 20.489 18.1997 18.4661 18.1997 16.4154C18.1997 14.2538 18.8648 12.1754 20.195 10.1802C21.5252 8.40658 23.271 6.99327 25.4326 5.94021C27.6495 4.83173 29.8942 4.27749 32.1666 4.27749C33.7185 4.27749 35.2149 4.55461 36.6559 5.10885C38.097 5.66309 39.3994 6.57759 40.5633 7.85234C40.8959 8.35116 41.0622 8.98853 41.0622 9.76447C41.0622 10.873 40.8405 11.732 40.3971 12.3417C39.8982 13.0622 39.344 14.0044 38.7343 15.1683C38.1247 16.3322 37.7644 17.1359 37.6536 17.5793C37.5427 17.6347 37.2656 17.7455 36.8222 17.9118C36.4342 18.0227 36.1848 17.995 36.074 17.8287C36.2957 17.3853 36.6005 16.5816 36.9885 15.4177C37.3765 14.2538 37.5704 13.2008 37.5704 12.2586C37.5704 11.6489 37.5427 10.9838 37.4873 10.2633C37.4873 9.48735 37.127 8.82227 36.4065 8.26802C35.7414 7.65836 34.8824 7.13183 33.8293 6.68843C32.7763 6.24504 31.5015 6.02335 30.005 6.02335C26.9567 6.02335 24.6289 6.91013 23.0216 8.68371C21.4143 10.4573 20.6107 12.3971 20.6107 14.5032C20.6107 15.5563 20.8324 16.6093 21.2758 17.6624C22.1071 19.6577 23.271 21.5421 24.7675 23.3157C26.2639 25.0892 27.7327 26.9182 29.1737 28.8026C30.6701 30.6316 31.834 32.6269 32.6654 34.7885C33.2196 36.2295 33.4968 37.6982 33.4968 39.1947C33.4968 41.3562 32.9425 43.3238 31.834 45.0973C30.781 46.8709 29.34 48.4228 27.511 49.753C25.7374 51.0277 23.7975 52.0253 21.6914 52.7459C19.5853 53.4664 17.4792 53.8266 15.3731 53.8266ZM41.9909 51.2494C41.4367 51.2494 40.9656 51.1386 40.5776 50.9169C40.1897 50.6952 39.9957 50.2795 39.9957 49.6698C39.9957 48.8939 40.1897 47.9794 40.5776 46.9263C41.021 45.8733 41.4921 44.8202 41.9909 43.7672C42.4898 42.7141 42.9054 41.855 43.238 41.1899C43.9031 39.9152 44.5404 38.6404 45.1501 37.3657C45.7598 36.0909 46.2863 35.0101 46.7297 34.1234C47.1731 33.292 47.3948 32.7378 47.3948 32.4606C47.3948 32.0172 47.0622 32.0172 46.3972 32.4606C45.7875 32.904 45.2055 33.3474 44.6513 33.7908C43.432 34.9547 42.1572 36.3403 40.827 37.9476C39.4969 39.4995 38.4715 40.7465 37.751 41.6888C37.5847 41.9104 37.4462 42.0213 37.3353 42.0213C37.2245 42.0213 37.169 41.8827 37.169 41.6056C37.169 41.1622 37.3076 40.7465 37.5847 40.3586C38.3607 39.2501 39.2752 38.0308 40.3282 36.7006C41.3813 35.3704 42.462 34.0957 43.5705 32.8763C44.6236 31.7678 45.7044 30.6871 46.8128 29.634C47.9213 28.581 49.3346 28.0544 51.0528 28.0544C52.2167 28.0544 52.7986 28.4978 52.7986 29.3846C52.7986 30.1605 52.4661 31.0473 51.801 32.045C51.413 32.6546 50.8034 33.68 49.972 35.121C49.1406 36.562 48.2816 38.1416 47.3948 39.8598C46.5634 41.5225 45.8429 43.0744 45.2332 44.5154C44.6236 45.9564 44.3188 47.0095 44.3188 47.6746C44.3188 48.4505 44.7067 48.8385 45.4827 48.8385C46.0923 48.8385 46.8405 48.5336 47.7273 47.924C48.6141 47.2589 49.5286 46.4829 50.4708 45.5962C52.189 43.9334 53.7408 42.1321 55.1264 40.1923C56.5675 38.197 57.7868 36.2849 58.7844 34.4559C59.8375 32.6269 60.6689 31.1305 61.2785 29.9666C61.3894 29.7449 61.5002 29.4955 61.6111 29.2183C61.7773 28.8858 62.0267 28.6918 62.3593 28.6364C62.6918 28.581 63.4124 28.5532 64.5208 28.5532C65.6293 28.5532 66.6547 28.3315 67.5969 27.8882H67.7631C67.9294 27.8882 68.0126 27.9713 68.0126 28.1376C68.0126 28.581 67.6523 28.9135 66.9318 29.1352C66.2667 29.3569 65.4908 30.022 64.604 31.1305C63.7726 32.2389 62.9412 33.5968 62.1099 35.2041C61.2785 36.756 60.5303 38.3633 59.8652 40.026C59.2001 41.6888 58.7013 43.2129 58.3688 44.5985C58.0362 45.9841 57.9531 47.0095 58.1194 47.6746C58.341 48.4505 58.729 48.8385 59.2833 48.8385C60.0038 48.8385 61.0014 48.3951 62.2762 47.5083C63.6063 46.6215 64.9642 45.5684 66.3498 44.3491C67.7354 43.0744 68.8716 41.9104 69.7584 40.8574C70.1464 40.414 70.5066 39.9706 70.8392 39.5272C71.1717 39.0838 71.3934 38.8067 71.5043 38.6959C71.5597 38.7513 71.6151 38.8621 71.6705 39.0284C71.726 39.1392 71.7537 39.2501 71.7537 39.3609C71.6983 39.7489 71.5597 40.1369 71.338 40.5248C71.1163 40.8574 70.8669 41.1622 70.5898 41.4393C69.5367 42.8249 68.262 44.2937 66.7655 45.8456C65.3245 47.342 63.7449 48.6168 62.0268 49.6698C60.364 50.7229 58.6459 51.2494 56.8723 51.2494C56.3181 51.2494 55.6807 51.1108 54.9602 50.8337C54.2951 50.5566 53.9625 49.9469 53.9625 49.0047C53.9625 48.2842 54.1565 47.3143 54.5445 46.095C54.9325 44.8202 55.3481 43.5732 55.7915 42.3538C56.2904 41.0791 56.706 40.1369 57.0386 39.5272C56.3181 40.5803 55.4313 41.7719 54.3782 43.1021C53.3806 44.3768 52.3552 45.513 51.3022 46.5106C49.9166 47.8408 48.4201 48.977 46.8128 49.9192C45.261 50.806 43.6537 51.2494 41.9909 51.2494ZM70.4716 52.247C70.2499 52.247 70.2499 51.9976 70.4716 51.4988C70.7487 51 70.9981 50.4458 71.2198 49.8361C71.4969 49.2264 71.774 48.5613 72.0512 47.8408C72.6054 46.5106 73.2151 45.0142 73.8801 43.3515C74.5452 41.6888 75.1826 40.0815 75.7923 38.5296C76.4019 36.9223 76.9285 35.5644 77.3719 34.4559C77.8707 33.292 78.2032 32.5438 78.3695 32.2112C77.5936 33.0426 76.6514 34.0957 75.5429 35.3704C74.4898 36.5897 73.4922 37.7814 72.55 38.9453C71.6078 40.1092 70.8872 41.0237 70.3884 41.6888C70.2222 41.9104 70.0836 42.0213 69.9727 42.0213C69.8619 42.0213 69.8065 41.8827 69.8065 41.6056C69.8065 41.1622 69.945 40.7465 70.2222 40.3586C71.2752 39.0284 72.4391 37.5319 73.7139 35.8692C75.0441 34.2065 76.2357 32.6823 77.2887 31.2967C78.3418 29.8557 79.0069 28.9135 79.284 28.4701C79.8937 28.3593 80.7804 28.193 81.9444 27.9713C83.1637 27.7496 83.995 27.4448 84.4384 27.0568C84.6047 26.8905 84.771 26.8074 84.9373 26.8074C85.0481 26.8074 85.1035 26.9182 85.1035 27.1399C85.1589 27.3062 85.1035 27.5002 84.9373 27.7219C84.6047 28.1098 84.0228 29.0243 83.1914 30.4654C82.4155 31.851 81.5564 33.4028 80.6142 35.121C79.7274 36.8391 78.896 38.391 78.1201 39.7766C79.0069 38.7236 79.8659 37.7259 80.6973 36.7837C81.5841 35.8415 82.1938 35.1764 82.5263 34.7885C83.1914 34.1234 84.1059 33.292 85.2698 32.2944C86.4337 31.2967 87.653 30.3822 88.9278 29.5509C90.2025 28.7195 91.311 28.2484 92.2532 28.1376C92.4749 28.0821 92.6689 28.0544 92.8352 28.0544C93.0015 28.0544 93.1677 28.0544 93.334 28.0544C94.3871 28.0544 94.9136 28.4424 94.9136 29.2183C94.9136 29.5509 94.8305 29.9388 94.6642 30.3822C94.4979 30.8256 94.2762 31.269 93.9991 31.7124C93.6665 32.3775 93.1123 33.4306 92.3364 34.8716C91.5604 36.2572 90.8676 37.5319 90.258 38.6959L94.1654 34.7885C94.8305 34.1234 95.745 33.292 96.9089 32.2944C98.0728 31.2967 99.2921 30.3822 100.567 29.5509C101.842 28.7195 102.95 28.2484 103.892 28.1376C104.114 28.0821 104.308 28.0544 104.474 28.0544C104.696 28.0544 104.862 28.0544 104.973 28.0544C106.192 28.0544 106.802 28.4978 106.802 29.3846C106.802 30.0497 106.442 30.9365 105.721 32.045C105.333 32.6546 104.724 33.68 103.892 35.121C103.061 36.562 102.202 38.1416 101.315 39.8598C100.484 41.5225 99.7632 43.0744 99.1535 44.5154C98.5439 45.9564 98.239 47.0095 98.239 47.6746C98.239 48.4505 98.627 48.8385 99.4029 48.8385C100.123 48.8385 101.038 48.4228 102.146 47.5914C103.31 46.7046 104.474 45.6516 105.638 44.4322C106.857 43.2129 107.911 42.049 108.797 40.9405C109.185 40.4971 109.546 40.0537 109.878 39.6103C110.266 39.1115 110.488 38.8344 110.543 38.779C110.654 38.8898 110.709 39.0838 110.709 39.3609C110.709 39.7489 110.571 40.1369 110.294 40.5248C110.072 40.8574 109.85 41.1622 109.629 41.4393C108.576 42.8249 107.356 44.266 105.971 45.7624C104.641 47.2589 103.172 48.5336 101.564 49.5867C99.9572 50.5843 98.239 51.1663 96.41 51.3325C95.8558 51.388 95.3016 51.2771 94.7473 51C94.1931 50.7229 93.916 50.2795 93.916 49.6698C93.916 48.8939 94.1099 47.9794 94.4979 46.9263C94.9413 45.8733 95.4124 44.8202 95.9112 43.7672C96.4655 42.7141 96.8811 41.855 97.1583 41.1899C98.1559 39.2501 99.0704 37.4211 99.9018 35.7029C100.733 33.9848 101.315 32.7655 101.648 32.045C101.814 31.7124 101.897 31.4353 101.897 31.2136C101.897 30.8256 101.592 30.7979 100.983 31.1305C100.373 31.463 99.6246 31.9618 98.7379 32.6269C97.9065 33.292 97.1306 33.9571 96.41 34.6222C95.6895 35.2318 95.2184 35.6475 94.9967 35.8692C94.0545 36.8114 92.9183 38.0862 91.5881 39.6935C90.3134 41.3008 89.1218 42.9912 88.0133 44.7648C86.9048 46.4829 86.1289 48.0902 85.6855 49.5867C85.1312 50.0855 84.6047 50.3349 84.1059 50.3349C83.7179 50.3349 83.3854 50.1964 83.1083 49.9192C82.8866 49.6421 82.7757 49.3096 82.7757 48.9216C82.7757 47.8131 83.1083 46.5106 83.7733 45.0142C84.4939 43.4623 85.0758 42.1876 85.5192 41.1899C86.5168 39.2501 87.4313 37.4211 88.2627 35.7029C89.0941 33.9848 89.676 32.7655 90.0086 32.045C90.1748 31.7124 90.258 31.4353 90.258 31.2136C90.258 30.8256 89.9531 30.7979 89.3435 31.1305C88.7338 31.463 87.9856 31.9618 87.0988 32.6269C86.2674 33.292 85.4915 33.9571 84.771 34.6222C84.0505 35.2318 83.5794 35.6475 83.3577 35.8692C82.0275 37.2548 80.7804 38.6681 79.6165 40.1092C78.5081 41.5502 77.5658 43.1021 76.7899 44.7648C76.3465 45.7624 75.8754 46.8709 75.3766 48.0902C74.8778 49.3096 74.4621 50.3349 74.1296 51.1663C73.409 51.2217 72.6885 51.4157 71.968 51.7482C71.2475 52.0808 70.7487 52.247 70.4716 52.247ZM120.331 51.2494C119.776 51.2494 119.305 51.1386 118.917 50.9169C118.529 50.6952 118.335 50.2795 118.335 49.6698C118.335 48.8939 118.529 48.0071 118.917 47.0095C119.305 46.0118 119.749 45.0419 120.247 44.0997C120.746 43.1021 121.19 42.2984 121.578 41.6888C119.638 43.7394 117.615 45.6793 115.509 47.5083C114.456 48.3951 113.292 49.2264 112.017 50.0024C110.742 50.7783 109.384 51.1663 107.943 51.1663C107.389 51.1663 107.001 51 106.779 50.6675C106.558 50.2795 106.447 49.8361 106.447 49.3373C106.447 49.0602 106.474 48.8662 106.53 48.7553C106.807 46.5938 107.5 44.3491 108.608 42.0213C109.717 39.6935 111.075 37.5042 112.682 35.4535C114.289 33.4029 115.924 31.7401 117.587 30.4654C119.471 29.0243 121.55 28.3038 123.822 28.3038H133.383C133.66 28.3038 133.799 28.4147 133.799 28.6364C133.799 29.0798 133.549 29.3015 133.05 29.3015C132.496 29.3015 131.942 29.6617 131.388 30.3822C130.833 31.0473 130.418 31.6016 130.141 32.045C129.753 32.6546 129.143 33.68 128.312 35.121C127.48 36.562 126.621 38.1416 125.734 39.8598C124.903 41.5225 124.182 43.0744 123.573 44.5154C122.963 45.9564 122.658 47.0095 122.658 47.6746C122.658 48.4505 123.046 48.8385 123.822 48.8385C124.654 48.8385 125.596 48.4505 126.649 47.6746C127.702 46.8986 128.755 45.9564 129.808 44.8479C130.917 43.684 131.914 42.5478 132.801 41.4393C133.743 40.2754 134.491 39.3609 135.046 38.6959C135.378 39.0284 135.35 39.4995 134.962 40.1092C134.63 40.6634 134.325 41.1068 134.048 41.4393C132.939 42.8804 131.665 44.3768 130.224 45.9287C128.783 47.4251 127.203 48.6999 125.485 49.753C123.822 50.7506 122.104 51.2494 120.331 51.2494ZM111.352 48.3396C112.017 48.3396 112.931 47.8685 114.095 46.9263C115.315 45.9287 116.617 44.7094 118.003 43.2683C119.388 41.7719 120.691 40.22 121.91 38.6127C123.129 36.95 124.127 35.4535 124.903 34.1234C125.734 32.7378 126.15 31.6847 126.15 30.9642C126.15 30.3545 125.956 29.9388 125.568 29.7171C125.236 29.4955 124.792 29.3846 124.238 29.3846C123.351 29.3846 122.381 29.7171 121.328 30.3822C120.331 30.9919 119.527 31.6016 118.917 32.2112C118.252 32.8209 117.448 33.7908 116.506 35.121C115.619 36.3958 114.733 37.8091 113.846 39.3609C112.959 40.9128 112.211 42.4093 111.601 43.8503C110.992 45.2913 110.687 46.4552 110.687 47.342C110.687 48.0071 110.908 48.3396 111.352 48.3396ZM150.754 19.242C149.978 19.242 149.424 18.9926 149.091 18.4938C148.869 18.2166 148.759 17.8564 148.759 17.413C148.759 16.5262 149.174 15.8057 150.006 15.2515C150.615 14.9189 151.169 14.7526 151.668 14.7526C152.5 14.7526 153.082 15.0021 153.414 15.5009C153.636 15.778 153.747 16.1382 153.747 16.5816C153.747 17.4684 153.303 18.1889 152.417 18.7432C151.918 19.0757 151.363 19.242 150.754 19.242ZM136.288 51.2494C135.734 51.2494 135.263 51.1386 134.875 50.9169C134.542 50.6952 134.376 50.2795 134.376 49.6698C134.376 48.8939 134.57 47.9794 134.958 46.9263C135.401 45.8733 135.872 44.8202 136.371 43.7672C136.925 42.7141 137.341 41.855 137.618 41.1899C138.006 40.414 138.477 39.4164 139.032 38.197C139.641 36.9223 140.195 35.7307 140.694 34.6222C141.249 33.4583 141.637 32.6546 141.858 32.2112C141.082 33.0426 140.14 34.0957 139.032 35.3704C137.979 36.5897 136.981 37.7814 136.039 38.9453C135.096 40.1092 134.376 41.0237 133.877 41.6888C133.711 41.9104 133.572 42.0213 133.461 42.0213C133.351 42.0213 133.295 41.8827 133.295 41.6056C133.295 41.1622 133.434 40.7465 133.711 40.3586C134.764 39.0284 135.928 37.5319 137.203 35.8692C138.533 34.2065 139.724 32.6823 140.777 31.2967C141.831 29.8557 142.496 28.9135 142.773 28.4701C143.382 28.3593 144.269 28.193 145.433 27.9713C146.652 27.7496 147.484 27.4448 147.927 27.0568C148.093 26.8905 148.26 26.8074 148.426 26.8074C148.537 26.8074 148.592 26.9182 148.592 27.1399C148.648 27.3062 148.592 27.5002 148.426 27.7219C148.093 28.1098 147.511 29.0521 146.68 30.5485C145.849 32.045 144.962 33.7077 144.02 35.5367C143.133 37.3102 142.302 38.9175 141.526 40.3586C140.75 41.855 140.085 43.2961 139.53 44.6817C138.976 46.0673 138.699 47.0649 138.699 47.6746C138.699 48.4505 139.087 48.8385 139.863 48.8385C140.583 48.8385 141.498 48.3951 142.606 47.5083C143.77 46.6215 144.934 45.5684 146.098 44.3491C147.262 43.0744 148.287 41.9104 149.174 40.8574C149.451 40.5248 149.784 40.1369 150.172 39.6935C150.615 39.1947 150.892 38.8898 151.003 38.779C151.114 38.8898 151.169 39.0838 151.169 39.3609C151.114 39.7489 150.975 40.1369 150.754 40.5248C150.532 40.8574 150.31 41.1622 150.089 41.4393C148.925 42.8804 147.65 44.3768 146.264 45.9287C144.879 47.4251 143.355 48.6999 141.692 49.753C140.029 50.7506 138.228 51.2494 136.288 51.2494ZM149.954 52.1639C149.733 52.1639 149.733 51.9422 149.954 51.4988C150.231 51 150.481 50.4458 150.702 49.8361C150.98 49.2264 151.257 48.5613 151.534 47.8408C152.088 46.5106 152.698 45.0142 153.363 43.3515C154.028 41.6888 154.665 40.0815 155.275 38.5296C155.885 36.9223 156.411 35.5644 156.855 34.4559C157.353 33.292 157.686 32.5438 157.852 32.2112C157.076 33.0426 156.134 34.0957 155.026 35.3704C153.973 36.5897 152.975 37.7814 152.033 38.9453C151.09 40.1092 150.37 41.0237 149.871 41.6888C149.705 41.9104 149.566 42.0213 149.455 42.0213C149.345 42.0213 149.289 41.8827 149.289 41.6056C149.289 41.1622 149.428 40.7465 149.705 40.3586C150.758 39.0284 151.922 37.5319 153.197 35.8692C154.527 34.2065 155.718 32.6823 156.771 31.2967C157.824 29.8557 158.49 28.9135 158.767 28.4701C159.376 28.3593 160.263 28.193 161.427 27.9713C162.646 27.7496 163.478 27.4448 163.921 27.0568C164.087 26.8905 164.254 26.8074 164.42 26.8074C164.531 26.8074 164.586 26.9182 164.586 27.1399C164.642 27.3062 164.586 27.5002 164.42 27.7219C164.087 28.0544 163.589 28.7749 162.923 29.8834C162.314 30.9919 161.621 32.2667 160.845 33.7077C160.069 35.1487 159.321 36.5343 158.6 37.8645C159.155 37.0331 159.875 36.0632 160.762 34.9547C161.704 33.7908 162.73 32.6823 163.838 31.6293C164.946 30.5208 166.055 29.6063 167.163 28.8858C168.327 28.1653 169.408 27.805 170.406 27.805C171.126 27.805 171.736 27.9713 172.235 28.3038C172.734 28.581 173.122 29.1075 173.399 29.8834C173.565 30.2714 173.648 30.7148 173.648 31.2136C173.648 32.1558 173.399 33.0703 172.9 33.9571C172.456 34.7885 172.124 35.4258 171.902 35.8692C171.847 36.0355 171.653 36.2018 171.32 36.368C170.988 36.4789 170.849 36.4235 170.905 36.2018C170.96 35.9246 170.988 35.6475 170.988 35.3704C171.043 35.0933 171.071 34.7885 171.071 34.4559C171.071 33.5137 170.877 32.6546 170.489 31.8787C170.156 31.1027 169.519 30.7148 168.577 30.7148C167.69 30.7148 166.609 31.269 165.334 32.3775C164.06 33.486 162.785 34.7607 161.51 36.2018C159.903 38.0862 158.628 39.8875 157.686 41.6056C156.744 43.2683 155.968 44.9033 155.358 46.5106C155.026 47.3974 154.693 48.2842 154.36 49.171C154.028 50.0024 153.779 50.6675 153.612 51.1663C152.892 51.2217 152.171 51.388 151.451 51.6651C150.73 51.9976 150.231 52.1639 149.954 52.1639ZM192.969 51.8314C191.251 51.8314 189.616 51.3603 188.064 50.418C186.513 49.4204 185.349 47.924 184.573 45.9287C184.296 45.2082 184.102 44.46 183.991 43.684C183.88 42.8527 183.824 42.049 183.824 41.2731C183.824 40.4971 183.963 40.1092 184.24 40.1092C184.573 40.1092 184.739 40.3309 184.739 40.7743C184.739 43.3792 185.376 45.3467 186.651 46.6769C187.981 48.0071 189.616 48.6722 191.556 48.6722C193.496 48.6722 195.353 48.1179 197.126 47.0095C198.955 45.901 200.646 44.4877 202.198 42.7695C204.747 39.9983 206.909 37.1994 208.682 34.3728C210.456 31.4907 212.063 28.5532 213.504 25.5603C215 22.512 216.497 19.3528 217.993 16.0828C218.936 14.0876 220.1 12.3417 221.485 10.8452C222.926 9.34879 224.644 8.32344 226.64 7.7692L226.723 7.68607H222.15C220.21 7.68607 218.16 7.76921 215.998 7.93548C213.837 8.10175 211.869 8.46201 210.095 9.01625C208.377 9.57049 207.13 10.4018 206.354 11.5103C205.856 12.2308 205.606 13.0622 205.606 14.0044C205.606 14.9466 205.856 15.8611 206.354 16.7479C206.853 17.6347 207.491 18.2721 208.266 18.66C208.377 18.7709 208.433 18.854 208.433 18.9094C208.433 19.0203 208.294 19.1589 208.017 19.3251C207.795 19.436 207.546 19.4637 207.269 19.4083C206.825 19.1311 206.271 18.6878 205.606 18.0781C204.941 17.413 204.331 16.7202 203.777 15.9997C203.278 15.2792 202.946 14.6695 202.779 14.1707C202.558 13.5056 202.447 12.8405 202.447 12.1754C202.447 10.8452 202.918 9.76447 203.86 8.93311C204.858 8.10175 206.133 7.46437 207.685 7.02098C209.236 6.57759 210.899 6.27276 212.673 6.10648C214.502 5.88479 216.248 5.77394 217.91 5.77394C219.628 5.71851 221.097 5.6908 222.316 5.6908H231.295C231.406 5.6908 231.461 5.71851 231.461 5.77394C231.461 5.94021 231.267 6.18962 230.879 6.52216C230.547 6.79928 230.325 6.93784 230.214 6.93784C228.829 7.21496 227.803 7.96319 227.138 9.18252C226.473 10.3464 226.168 12.2308 226.224 14.8358C226.224 14.8358 226.224 15.4454 226.224 16.6648C226.279 17.8841 226.335 19.4637 226.39 21.4035C226.446 23.3434 226.501 25.4218 226.556 27.6387C226.612 29.8557 226.667 31.9895 226.723 34.0402C226.778 36.0909 226.834 37.8091 226.889 39.1947V39.6935L255.737 9.26566C257.566 7.32581 259.367 5.6908 261.141 4.36062C262.97 2.97502 264.854 2.36536 266.794 2.53163C266.85 2.53163 266.877 2.55934 266.877 2.61477C266.933 2.61477 266.961 2.61477 266.961 2.61477C266.961 2.78104 266.85 2.97502 266.628 3.19672C266.406 3.41841 266.157 3.55697 265.88 3.6124C264.439 3.55697 263.136 4.11122 261.972 5.27512C260.809 6.43903 259.728 7.82463 258.73 9.43193C258.231 10.2633 257.483 11.5935 256.485 13.4225C255.488 15.196 254.352 17.3022 253.077 19.7408C251.858 22.1795 250.61 24.7567 249.336 27.4725C248.061 30.1883 246.869 32.8486 245.761 35.4535C244.708 38.0585 243.849 40.4417 243.184 42.6032C242.519 44.7094 242.186 46.4275 242.186 47.7577C242.186 49.3096 242.713 50.0855 243.766 50.0855C244.209 50.0855 244.68 49.9747 245.179 49.753C245.899 49.4758 246.703 49.0602 247.59 48.5059C248.477 47.9517 249.28 47.3143 250.001 46.5938C251.442 45.2082 252.717 43.7949 253.825 42.3538C254.934 40.8574 255.599 39.9983 255.82 39.7766C255.987 39.5549 256.125 39.4441 256.236 39.4441C256.458 39.4441 256.569 39.6103 256.569 39.9429C256.569 40.2754 256.458 40.5803 256.236 40.8574C255.793 41.4116 255.044 42.3816 253.991 43.7672C252.938 45.0973 251.691 46.4552 250.25 47.8408C248.865 49.2264 247.368 50.2795 245.761 51C245.262 51.2217 244.736 51.388 244.181 51.4988C243.627 51.6651 243.073 51.7482 242.519 51.7482C241.299 51.7482 240.191 51.388 239.193 50.6675C238.251 49.8915 237.78 48.6168 237.78 46.8432C237.78 45.125 238.168 43.1852 238.944 41.0237C239.775 38.8067 240.69 36.6729 241.687 34.6222C242.74 32.5161 243.599 30.7425 244.264 29.3015C244.985 27.805 245.899 25.8929 247.008 23.5651C248.116 21.2373 249.391 18.8817 250.832 16.4985L226.889 41.7719C226.834 42.2153 226.64 42.6587 226.307 43.1021C225.974 43.49 225.448 43.8226 224.727 44.0997C224.339 44.266 223.813 44.7094 223.148 45.4299C222.483 46.1504 222.039 46.6492 221.818 46.9263C221.818 46.9818 221.735 47.0095 221.568 47.0095C221.402 47.0095 221.236 46.954 221.069 46.8432C220.903 46.7323 220.848 46.6492 220.903 46.5938C222.344 44.7648 223.092 42.243 223.148 39.0284L223.231 37.0331C223.342 34.7053 223.425 32.2667 223.48 29.7171C223.536 27.1122 223.564 24.7013 223.564 22.4843C223.619 20.2119 223.647 18.3829 223.647 16.9973C223.647 15.5563 223.647 14.8358 223.647 14.8358C223.647 13.5056 223.841 12.3417 224.229 11.3441C224.617 10.3464 225.088 9.48735 225.642 8.76684C224.7 9.48735 223.785 10.3464 222.898 11.3441C222.012 12.3417 221.263 13.4502 220.654 14.6695C219.822 16.3877 218.88 18.6046 217.827 21.3204C216.774 24.0362 215.555 26.9182 214.169 29.9666C212.839 33.0149 211.343 36.0078 209.68 38.9453C208.072 41.8273 206.271 44.3214 204.276 46.4275C202.89 47.924 201.117 49.1987 198.955 50.2518C196.849 51.3048 194.854 51.8314 192.969 51.8314ZM266.468 51.2494C265.914 51.2494 265.443 51.1386 265.055 50.9169C264.667 50.6952 264.473 50.2795 264.473 49.6698C264.473 48.8939 264.667 48.0071 265.055 47.0095C265.443 46.0118 265.886 45.0419 266.385 44.0997C266.884 43.1021 267.327 42.2984 267.715 41.6888C265.775 43.7394 263.752 45.6793 261.646 47.5083C260.593 48.3951 259.429 49.2264 258.155 50.0024C256.88 50.7783 255.522 51.1663 254.081 51.1663C253.527 51.1663 253.139 51 252.917 50.6675C252.695 50.2795 252.585 49.8361 252.585 49.3373C252.585 49.0602 252.612 48.8662 252.668 48.7553C252.945 46.5938 253.638 44.3491 254.746 42.0213C255.855 39.6935 257.212 37.5042 258.82 35.4535C260.427 33.4029 262.062 31.7401 263.725 30.4654C265.609 29.0243 267.688 28.3038 269.96 28.3038H279.521C279.798 28.3038 279.936 28.4147 279.936 28.6364C279.936 29.0798 279.687 29.3015 279.188 29.3015C278.634 29.3015 278.08 29.6617 277.525 30.3822C276.971 31.0473 276.555 31.6016 276.278 32.045C275.89 32.6546 275.281 33.68 274.449 35.121C273.618 36.562 272.759 38.1416 271.872 39.8598C271.041 41.5225 270.32 43.0744 269.711 44.5154C269.101 45.9564 268.796 47.0095 268.796 47.6746C268.796 48.4505 269.184 48.8385 269.96 48.8385C270.791 48.8385 271.734 48.4505 272.787 47.6746C273.84 46.8986 274.893 45.9564 275.946 44.8479C277.054 43.684 278.052 42.5478 278.939 41.4393C279.881 40.2754 280.629 39.3609 281.183 38.6959C281.516 39.0284 281.488 39.4995 281.1 40.1092C280.768 40.6634 280.463 41.1068 280.186 41.4393C279.077 42.8804 277.802 44.3768 276.361 45.9287C274.92 47.4251 273.341 48.6999 271.623 49.753C269.96 50.7506 268.242 51.2494 266.468 51.2494ZM257.49 48.3396C258.155 48.3396 259.069 47.8685 260.233 46.9263C261.452 45.9287 262.755 44.7094 264.14 43.2683C265.526 41.7719 266.829 40.22 268.048 38.6127C269.267 36.95 270.265 35.4535 271.041 34.1234C271.872 32.7378 272.288 31.6847 272.288 30.9642C272.288 30.3545 272.094 29.9388 271.706 29.7171C271.373 29.4955 270.93 29.3846 270.376 29.3846C269.489 29.3846 268.519 29.7171 267.466 30.3822C266.468 30.9919 265.665 31.6016 265.055 32.2112C264.39 32.8209 263.586 33.7908 262.644 35.121C261.757 36.3958 260.87 37.8091 259.984 39.3609C259.097 40.9128 258.349 42.4093 257.739 43.8503C257.129 45.2913 256.824 46.4552 256.824 47.342C256.824 48.0071 257.046 48.3396 257.49 48.3396ZM285.086 51.1663C283.423 51.1663 282.287 50.7783 281.678 50.0024C281.068 49.171 280.763 48.1734 280.763 47.0095C280.763 45.4576 281.096 43.7949 281.761 42.0213C282.481 40.2477 283.063 38.8621 283.507 37.8645C282.786 38.6404 282.093 39.3887 281.428 40.1092C280.763 40.8297 280.292 41.3562 280.015 41.6888C279.849 41.9104 279.71 42.0213 279.599 42.0213C279.488 42.0213 279.433 41.8827 279.433 41.6056C279.433 41.1622 279.571 40.7465 279.849 40.3586C280.625 39.3609 281.511 38.3079 282.509 37.1994C283.507 36.0909 284.477 34.927 285.419 33.7077C286.527 31.657 287.747 29.2738 289.077 26.558C290.462 23.7868 291.876 20.9601 293.317 18.0781C294.813 15.1406 296.254 12.4525 297.64 10.0139C299.081 7.5198 300.356 5.52453 301.464 4.02808C302.406 3.64011 303.293 3.14129 304.124 2.53163C305.011 1.92196 305.87 1.36772 306.702 0.868905C307.588 0.314664 308.503 0.0375439 309.445 0.0375439C310.055 0.0375439 310.498 0.203816 310.775 0.536359C311.108 0.868906 311.33 1.25687 311.44 1.70027C311.496 1.86654 311.523 2.17137 311.523 2.61477C311.523 3.88952 311.08 5.44139 310.193 7.27039C309.362 9.09938 308.364 10.9007 307.2 12.6742C306.092 14.3924 305.122 15.8057 304.291 16.9142C302.074 20.0179 299.801 22.8446 297.473 25.3941C295.146 27.8882 293.04 29.9943 291.155 31.7124C289.326 33.3751 287.996 34.5945 287.165 35.3704C286.777 36.0909 286.306 37.0608 285.751 38.2802C285.252 39.4441 284.809 40.6911 284.421 42.0213C284.033 43.2961 283.839 44.4877 283.839 45.5962C283.839 46.5384 284.061 47.342 284.504 48.0071C284.948 48.6168 285.696 48.9216 286.749 48.9216C286.915 48.9216 287.081 48.9216 287.248 48.9216C287.414 48.9216 287.608 48.8939 287.83 48.8385C288.772 48.6722 289.797 48.1457 290.906 47.2589C292.014 46.3721 293.123 45.3467 294.231 44.1828C295.34 43.0189 296.337 41.9104 297.224 40.8574C297.612 40.414 297.972 39.9983 298.305 39.6103C298.637 39.167 298.859 38.8621 298.97 38.6959C299.358 39.0838 299.33 39.5826 298.887 40.1923C298.499 40.7465 298.166 41.2176 297.889 41.6056C297.501 42.1044 296.947 42.7972 296.226 43.684C295.506 44.5154 294.675 45.4299 293.732 46.4275C292.679 47.4806 291.377 48.5336 289.825 49.5867C288.273 50.6397 286.693 51.1663 285.086 51.1663ZM288.578 32.045C290.296 30.6039 292.458 28.5532 295.063 25.8929C297.723 23.1771 300.328 19.9071 302.877 16.0828C303.154 15.6394 303.598 14.8912 304.208 13.8381C304.873 12.7851 305.538 11.5935 306.203 10.2633C306.923 8.87769 307.533 7.54751 308.032 6.27275C308.531 4.94258 308.78 3.80638 308.78 2.86417C308.78 1.97739 308.531 1.53399 308.032 1.53399C307.422 1.53399 306.618 2.06052 305.621 3.11358C304.457 4.33291 303.127 6.13419 301.63 8.51743C300.189 10.8452 298.665 13.4502 297.058 16.3322C295.451 19.2143 293.899 22.0409 292.402 24.8121C290.961 27.5833 289.686 29.9943 288.578 32.045ZM314.672 19.242C313.896 19.242 313.341 18.9926 313.009 18.4938C312.787 18.2166 312.676 17.8564 312.676 17.413C312.676 16.5262 313.092 15.8057 313.923 15.2515C314.533 14.9189 315.087 14.7526 315.586 14.7526C316.417 14.7526 316.999 15.0021 317.332 15.5009C317.554 15.778 317.665 16.1382 317.665 16.5816C317.665 17.4684 317.221 18.1889 316.334 18.7432C315.836 19.0757 315.281 19.242 314.672 19.242ZM300.206 51.2494C299.652 51.2494 299.181 51.1386 298.793 50.9169C298.46 50.6952 298.294 50.2795 298.294 49.6698C298.294 48.8939 298.488 47.9794 298.876 46.9263C299.319 45.8733 299.79 44.8202 300.289 43.7672C300.843 42.7141 301.259 41.855 301.536 41.1899C301.924 40.414 302.395 39.4164 302.949 38.197C303.559 36.9223 304.113 35.7307 304.612 34.6222C305.166 33.4583 305.554 32.6546 305.776 32.2112C305 33.0426 304.058 34.0957 302.949 35.3704C301.896 36.5897 300.899 37.7814 299.957 38.9453C299.014 40.1092 298.294 41.0237 297.795 41.6888C297.629 41.9104 297.49 42.0213 297.379 42.0213C297.268 42.0213 297.213 41.8827 297.213 41.6056C297.213 41.1622 297.352 40.7465 297.629 40.3586C298.682 39.0284 299.846 37.5319 301.12 35.8692C302.451 34.2065 303.642 32.6823 304.695 31.2967C305.748 29.8557 306.413 28.9135 306.691 28.4701C307.3 28.3593 308.187 28.193 309.351 27.9713C310.57 27.7496 311.402 27.4448 311.845 27.0568C312.011 26.8905 312.178 26.8074 312.344 26.8074C312.455 26.8074 312.51 26.9182 312.51 27.1399C312.566 27.3062 312.51 27.5002 312.344 27.7219C312.011 28.1098 311.429 29.0521 310.598 30.5485C309.767 32.045 308.88 33.7077 307.938 35.5367C307.051 37.3102 306.219 38.9175 305.444 40.3586C304.668 41.855 304.002 43.2961 303.448 44.6817C302.894 46.0673 302.617 47.0649 302.617 47.6746C302.617 48.4505 303.005 48.8385 303.781 48.8385C304.501 48.8385 305.416 48.3951 306.524 47.5083C307.688 46.6215 308.852 45.5684 310.016 44.3491C311.18 43.0744 312.205 41.9104 313.092 40.8574C313.369 40.5248 313.702 40.1369 314.09 39.6935C314.533 39.1947 314.81 38.8898 314.921 38.779C315.032 38.8898 315.087 39.0838 315.087 39.3609C315.032 39.7489 314.893 40.1369 314.672 40.5248C314.45 40.8574 314.228 41.1622 314.007 41.4393C312.843 42.8804 311.568 44.3768 310.182 45.9287C308.797 47.4251 307.273 48.6999 305.61 49.753C303.947 50.7506 302.146 51.2494 300.206 51.2494ZM328.255 51.4157C326.869 51.4157 325.816 50.9446 325.095 50.0024C324.652 49.3373 324.209 48.3396 323.765 47.0095C323.322 45.6793 322.934 44.2937 322.601 42.8527C322.269 41.4116 321.992 40.2477 321.77 39.3609C320.218 41.3562 318.833 43.3515 317.613 45.3467C316.449 47.342 315.673 48.8939 315.285 50.0024C315.175 50.3349 314.787 50.612 314.122 50.8337C313.512 51.0554 312.902 51.1663 312.293 51.1663C311.406 51.1663 311.073 50.8892 311.295 50.3349C313.013 46.5106 314.648 42.8249 316.2 39.2778C317.752 35.7307 319.387 32.1558 321.105 28.5532C322.879 24.9507 324.874 21.2095 327.091 17.3299C328.643 14.5032 330.499 11.7875 332.661 9.18252C334.878 6.52217 337.233 4.36063 339.727 2.6979C342.222 0.979753 344.743 0.120679 347.293 0.120679C348.124 0.120679 348.9 0.342376 349.621 0.785769C350.341 1.22916 350.701 1.92196 350.701 2.86417V5.27512C350.701 5.49682 350.535 5.60767 350.203 5.60767C350.036 5.60767 349.953 5.55224 349.953 5.44139C349.953 4.55461 349.565 3.97266 348.789 3.69554C348.013 3.36299 347.265 3.19672 346.545 3.19672C344.605 3.19672 342.637 3.58468 340.642 4.36062C338.425 5.24741 336.568 6.57759 335.072 8.35116C333.575 10.1247 332.19 12.0091 330.915 14.0044C329.252 16.5539 327.617 19.5468 326.01 22.9831C324.403 26.364 322.906 29.7726 321.521 33.2089C320.19 36.6452 318.999 39.7489 317.946 42.5201C318.555 41.7442 319.165 40.9682 319.775 40.1923C320.384 39.4164 320.966 38.6959 321.521 38.0308C321.521 37.9199 321.493 37.8091 321.437 37.6982C321.437 37.5874 321.437 37.4765 321.437 37.3657C321.437 36.9777 321.521 36.6452 321.687 36.368C321.853 36.0909 322.075 35.7584 322.352 35.3704C322.74 34.8162 323.1 34.4005 323.433 34.1234C323.765 33.7908 324.126 33.3751 324.514 32.8763L324.763 34.2896C327.202 31.7956 329.335 29.9943 331.164 28.8858C332.439 28.1098 333.686 27.7219 334.906 27.7219C336.125 27.7219 336.735 28.193 336.735 29.1352C336.735 29.9111 336.347 30.8811 335.571 32.045C335.294 32.4329 335.127 32.71 335.072 32.8763C335.016 33.0426 334.906 33.2089 334.739 33.3751C334.684 33.4306 334.573 33.4306 334.407 33.3751C334.24 33.3197 334.157 33.2366 334.157 33.1257C334.157 32.4606 333.936 32.045 333.492 31.8787C333.049 31.657 332.55 31.5461 331.996 31.5461C330.943 31.5461 329.807 31.9341 328.587 32.71C327.423 33.4306 326.232 34.4282 325.012 35.7029C325.289 37.0886 325.594 38.6127 325.927 40.2754C326.315 41.8827 326.73 43.3792 327.174 44.7648C327.617 46.1504 328.033 47.1757 328.421 47.8408C328.698 48.2842 329.086 48.5891 329.585 48.7553C330.084 48.8662 330.499 48.9216 330.832 48.9216C331.608 48.9216 332.495 48.5336 333.492 47.7577C334.545 46.9263 335.598 45.9564 336.651 44.8479C337.76 43.684 338.758 42.5478 339.644 41.4393C340.587 40.3309 341.307 39.4441 341.806 38.779C342.028 39.0561 342.083 39.3332 341.972 39.6103C341.917 39.9429 341.75 40.3031 341.473 40.6911C341.252 41.0237 341.03 41.3285 340.808 41.6056C339.7 42.9912 338.508 44.4045 337.233 45.8456C335.959 47.2312 334.601 48.4782 333.16 49.5867C332.55 50.0855 331.802 50.5289 330.915 50.9169C330.028 51.2494 329.141 51.4157 328.255 51.4157Z" fill="#02ADEC"/>
</svg>
