<svg width="464" height="557" viewBox="0 0 464 557" fill="none" xmlns="http://www.w3.org/2000/svg">
<g opacity="0.1">
<path d="M6.49761 110.144C7.33608 110.373 7.59524 111.104 8.0221 111.668C28.7703 144.414 53.7566 173.669 81.6394 200.454C126.349 243.653 176.976 280.272 231.999 309.211C237.609 312.153 243.342 314.852 249.058 317.581C252.961 319.456 253.007 319.41 250.964 323.45C244.328 336.355 239.006 349.894 235.079 363.864C230.397 380.663 228.34 398.086 228.981 415.514C230.505 412.876 230.353 410.132 230.81 407.571C235.43 382.326 247.629 359.087 265.782 340.947C283.936 322.807 307.184 310.626 332.432 306.025C354.373 302.035 376.976 303.87 397.985 311.346C398.976 311.681 399.906 312.458 401.339 311.833C396.889 287.762 388.868 264.491 377.542 242.789C378.96 242.561 379.173 243.597 379.691 244.131C382.939 247.454 386.11 250.823 389.357 254.132C398.522 263.357 405.027 274.887 408.184 287.503C408.401 288.408 408.761 289.273 409.251 290.064C409.991 281.324 409.991 272.537 409.251 263.797C403.977 206.507 385.317 153.333 359.08 102.552C356.946 98.4359 354.507 94.4418 352.174 90.4934C349.842 86.5449 347.174 82.7337 344.552 78.8006C345.33 78.3127 345.619 79.014 345.924 79.3646C370.605 107.857 392.711 138.118 409.434 172.038C420.789 194.601 429.06 218.587 434.024 243.353C437.906 263.242 439.09 283.564 437.546 303.769C436.915 312.034 435.769 320.252 434.116 328.374C433.859 329.215 433.885 330.117 434.187 330.942C434.49 331.767 435.053 332.471 435.793 332.947C449.101 343.902 460.001 357.49 467.807 372.858C473.467 383.948 477.454 395.816 479.637 408.074C479.73 408.537 479.847 408.995 479.987 409.446C479.987 409.538 480.185 409.583 480.399 409.721C480.808 408.352 480.917 406.912 480.719 405.498C480.155 376.121 472.106 348.817 457.852 323.252C457.486 322.611 457.166 321.956 456.769 321.346C456.175 320.416 456.312 319.822 457.364 319.349L458.37 318.922C489.622 305.385 518.511 287.777 546.272 268.203C581.739 243.317 614.792 215.158 644.998 184.097C660.829 167.988 675.367 150.657 688.476 132.264C692.897 125.968 697.074 119.535 700.916 112.873C701.372 111.647 702.184 110.585 703.248 109.824C704.644 114.957 705.754 120.163 706.572 125.419C708.633 136.573 709.785 147.877 710.017 159.217C710.398 182.222 706.724 204.372 695.504 224.77C693.522 228.383 693.491 232.53 692.805 236.463C690 252.165 687.439 267.928 682.927 283.264C675.304 309.181 662.605 332.048 643.29 350.997C642.863 351.424 642.482 351.897 642.116 352.324C642.696 353.696 643.641 352.11 644.418 352.918C642.894 358.894 641.019 364.901 639.022 370.877C629.494 399.247 609.95 417.907 582.616 429.036C571.091 433.72 559.103 437.169 546.851 439.326C545.384 439.526 543.974 440.029 542.712 440.803C541.449 441.577 540.362 442.606 539.518 443.823C520.493 469.541 498.86 492.79 473.219 512.09C460.504 521.663 447.013 530.033 431.646 534.637C424.468 536.912 417.501 539.805 410.821 543.281C391.404 552.944 369.782 557.319 348.135 555.964C328.325 554.908 309.049 549.161 291.896 539.195C290.763 538.48 289.515 537.964 288.207 537.671C276.148 535.43 265.34 530.292 254.851 524.103C239.548 514.729 225.325 503.696 212.44 491.204C196.701 476.408 182.281 460.269 169.343 442.97C168.652 441.998 167.775 441.174 166.762 440.546C165.749 439.918 164.621 439.498 163.443 439.311C148.699 436.528 134.377 431.85 120.834 425.392C108.68 419.71 97.7536 411.71 88.6673 401.839C76.4714 388.256 69.9619 372.051 66.5165 354.412C66.3641 353.635 65.8 352.735 67.2483 352.034C68.1477 351.592 66.8367 350.662 66.3183 350.128C61.394 345.052 56.7526 339.708 52.415 334.121C38.4813 316.163 29.8222 295.811 24.6237 273.828C21.3155 259.833 18.9526 245.655 16.5744 231.478C16.2198 229.319 15.5251 227.23 14.5163 225.288C6.22573 209.342 1.39454 191.825 0.338632 173.883C-0.804732 157.113 1.10086 140.527 3.75346 124.017C4.36326 120.175 5.00353 116.318 5.64381 112.476C5.78101 111.592 5.62865 110.662 6.49761 110.144ZM255.903 514.01L255.248 513.218C254.897 511.556 253.464 510.641 252.534 509.391C239.908 492.898 230.51 474.17 224.834 454.19C221.334 442.019 219.448 429.441 219.224 416.779C218.998 408.643 219.212 400.5 219.864 392.387C220.896 382.596 222.623 372.891 225.032 363.346C228.111 351.183 232.338 339.341 237.655 327.978C238.814 325.462 238.722 325.279 236.359 323.968C228.996 319.913 221.602 315.904 214.254 311.772C200.524 304.14 187.052 296.06 173.84 287.533C151.46 273.242 129.938 257.65 109.385 240.838C96.5946 230.289 84.353 219.16 72.3401 207.741C64.3975 200.119 57.0952 192.039 49.671 183.914C39.0416 172.204 29.008 159.968 19.6081 147.25C17.5196 144.445 15.4158 141.655 12.9767 138.393C11.74 142.496 11.0079 146.735 10.7966 151.015C10.1357 157.301 10.0541 163.634 10.5527 169.934C11.1168 175.011 11.5436 180.103 12.504 185.179C15.3271 199.405 20.26 213.13 27.1391 225.898C34.3622 239.597 43.2904 252.326 53.7109 263.782C65.2166 276.566 77.9287 288.211 91.6705 298.555C105.238 308.692 119.501 317.862 134.356 325.996C149.826 334.557 165.79 342.193 182.164 348.863C188.14 351.272 194.131 353.665 200.199 355.876C201.997 356.531 202.821 357.4 202.607 359.321C202.531 360.038 202.607 360.845 202.607 361.516C202.485 374.307 202.135 387.112 203.385 399.872C204.393 410.63 206.027 421.319 208.278 431.887C213.584 456.278 222.67 478.871 238.646 498.354C242.976 503.458 247.69 508.224 252.748 512.608C253.367 513.216 254.197 513.56 255.065 513.568C255.141 513.735 255.26 513.878 255.41 513.983C255.561 514.087 255.736 514.149 255.919 514.163C255.869 514.337 255.876 514.523 255.939 514.693C256.002 514.863 256.118 515.008 256.269 515.108C256.326 515.096 256.38 515.071 256.427 515.037C256.474 515.003 256.514 514.96 256.544 514.91C256.568 514.808 256.57 514.702 256.551 514.6C256.531 514.497 256.489 514.4 256.428 514.314C256.368 514.229 256.289 514.158 256.199 514.105C256.108 514.053 256.007 514.021 255.903 514.01ZM519.38 456.995C521.758 456.507 522.871 454.464 524.228 452.833C529.383 446.807 533.536 439.992 536.53 432.649C536.698 432.018 537.074 431.463 537.597 431.073C538.12 430.683 538.76 430.481 539.412 430.499C544.745 430.114 550.034 429.267 555.221 427.969C571.1 423.94 586.092 416.992 599.431 407.48C608.162 401.458 615.69 393.858 621.627 385.07C623 382.892 624.208 380.614 625.24 378.255C624.836 378.168 624.418 378.173 624.017 378.271C623.615 378.368 623.241 378.556 622.923 378.819C620.667 380.024 618.471 381.319 616.215 382.539C603.871 389.187 590.794 394.375 577.249 397.997C566.435 400.87 555.323 402.476 544.138 402.784C541.927 402.784 539.808 402.19 537.613 402.098C537.283 402.036 536.944 402.046 536.619 402.129C536.294 402.212 535.991 402.364 535.731 402.576C535.471 402.788 535.26 403.055 535.114 403.356C534.968 403.658 534.889 403.988 534.884 404.324C534.686 405.772 534.777 407.251 534.518 408.684C532.283 420.413 528.939 431.903 524.533 443C522.749 447.573 520.432 452.147 519.304 456.964L519.029 457.345L519.38 456.995ZM217.73 481.951L218.188 482.225L217.913 481.768C217.639 480.585 217.119 479.474 216.389 478.505C212.79 472.702 209.64 466.632 206.967 460.349C201.102 446.433 197.074 431.812 194.985 416.855C193.537 406.717 192.912 396.534 192.378 386.365C192.043 379.917 192.241 373.438 192.18 366.974C192.18 365.632 192.058 364.306 191.982 362.965C191.973 362.009 191.632 361.086 191.017 360.355C190.402 359.623 189.552 359.129 188.613 358.955C177.194 355.098 165.959 350.738 154.815 346.134C136.429 338.608 118.555 329.89 101.305 320.035C77.9349 306.635 56.3025 290.948 37.6885 271.343C36.972 270.596 36.408 269.544 35.1426 269.392C34.7383 270.546 34.7383 271.804 35.1426 272.959C35.7829 275.688 36.4385 278.401 37.155 281.1C40.0481 291.949 44.3805 302.362 50.0368 312.062C59.2425 327.911 71.3615 341.876 85.7555 353.223C102.139 366.143 120.379 376.515 139.86 383.987C152.173 388.942 164.875 392.874 177.834 395.741C178.681 395.838 179.468 396.228 180.058 396.843C180.648 397.458 181.004 398.26 181.066 399.11C181.585 402.464 182.128 405.818 182.698 409.172C185.015 422.892 187.972 436.399 193.171 449.342C197.744 460.684 203.979 470.898 213.187 479.1C214.544 480.243 215.779 481.661 217.73 481.951ZM492.275 481.874C495.69 480.548 498.007 477.895 500.293 475.228C507.042 467.187 512.461 458.118 516.346 448.366C522.795 432.847 527.018 416.84 527.445 399.949C527.445 397.113 527.628 396.9 530.494 396.366C536.835 395.207 543.055 393.576 549.275 391.793C574.231 384.856 597.723 374.779 618.837 359.565C630.751 351.047 641.299 340.766 650.12 329.075C661.828 313.416 670.047 295.43 674.222 276.328C674.679 274.346 675.746 272.288 675.03 270.047C674.557 270.215 674.298 270.245 674.146 270.398C673.429 271.053 672.728 271.739 672.057 272.456C658.925 286.044 644.31 298.117 628.487 308.449C619.341 314.547 609.98 320.172 600.33 325.401C587.265 332.505 573.911 339.03 560.206 344.808C547.309 350.255 534.193 355.129 520.859 359.428C517.917 360.373 518.008 360.434 517.947 363.513C517.886 366.593 518.679 369.291 518.618 372.249C518.481 378.087 518.374 383.911 518.069 389.75C517.703 396.442 517.154 403.12 516.224 409.721C514.81 420.447 512.635 431.058 509.715 441.476C506.33 453.184 502.595 464.77 496.284 475.319C494.973 477.499 493.052 479.283 492.229 481.752L491.909 482.134L492.275 481.874ZM470.627 325.767C470.615 326.506 470.845 327.229 471.283 327.825C477.148 339.47 481.792 351.69 485.14 364.291C488.025 374.473 489.853 384.925 490.598 395.482C491.009 402.113 491.711 408.76 491.04 415.514C490.445 421.611 490.308 427.618 489.424 433.655C487.166 448.725 482.729 463.386 476.252 477.179C470.598 489.212 463.629 500.583 455.474 511.083C454.664 511.858 454.129 512.874 453.949 513.98C455.794 513.98 456.891 512.715 458.111 511.876C466.816 505.931 473.356 497.942 479.027 489.192C488.753 474.084 494.943 457.437 499.562 440.18C502.327 429.97 504.365 419.578 505.66 409.08C506.725 401.867 507.382 394.598 507.626 387.311C507.626 378.301 508.19 369.276 507.047 360.281C506.559 356.531 506.788 356.546 510.416 355.144C522.109 350.57 533.71 345.845 545.068 340.494C569.795 328.847 593.699 315.721 615.895 299.653C627.962 290.967 639.333 281.354 649.906 270.901C656.583 264.309 662.774 257.243 668.429 249.756C677.869 237.47 685.484 223.883 691.037 209.418C695.088 198.579 697.712 187.259 698.842 175.743C699.755 165.919 699.637 156.027 698.492 146.229C698.504 144.209 698.148 142.205 697.44 140.314C696.357 140.496 696.053 141.182 695.641 141.838C684.011 157.938 671.234 173.177 657.407 187.435C647.528 197.893 637.04 207.741 626.384 217.407C615.727 227.072 605.193 236.082 594.247 245.015C578.383 257.963 562 270.205 545.098 281.74C522.102 297.763 497.931 312.032 472.792 324.426C471.968 324.683 471.224 325.144 470.627 325.767ZM415.242 519.224C415.3 517.893 415.011 516.569 414.404 515.383C407.493 493.806 400.562 472.24 393.61 450.683C392.726 447.955 392.756 447.939 395.043 446.262L398.61 443.717C415.603 431.643 432.591 419.564 449.574 407.48C451.02 406.736 452.217 405.586 453.019 404.171H448.69C426.859 404.263 405.028 404.385 383.137 404.4C377.176 404.4 378.563 405.437 376.582 399.461C369.742 378.382 362.948 357.278 356.199 336.149C355.879 335.173 355.803 334.076 354.842 333.481C353.882 333.893 353.928 334.716 353.699 335.387C351.311 342.674 348.922 349.966 346.534 357.263C341.717 372.081 336.894 386.904 332.067 401.732C331.045 404.888 331.015 404.934 327.889 404.873C323.316 404.796 318.621 404.629 314.001 404.537C295.708 404.202 277.414 404.385 259.12 403.729C258.495 403.729 257.595 403.363 257.367 404.766C258.19 405.421 259.089 406.199 260.05 406.9L314.306 446.704C316.913 448.625 316.898 448.641 315.907 451.751C315.77 452.208 315.633 452.68 315.48 453.153C308.61 474.099 301.729 495.046 294.839 515.992C294.458 517.166 293.634 518.34 294.214 519.804C295.52 519.345 296.718 518.624 297.735 517.684C315.907 504.533 334.074 491.377 352.236 478.216C355.284 476.005 354.629 475.715 358.105 478.216L411.538 517.288C412.697 518.096 413.566 519.224 415.242 519.224ZM191.052 458.245C191.814 457.086 191.052 456.263 190.701 455.409C188.094 448.839 185.503 442.284 183.292 435.591C179.892 425.301 176.63 414.995 175.304 404.202C175.06 402.25 173.886 401.976 172.255 401.976C167.27 401.976 162.315 401.976 157.315 401.534C148.947 400.806 140.656 399.378 132.527 397.265C116.426 393.304 100.992 387.008 86.716 378.575C85.8193 377.77 84.659 377.319 83.4536 377.31C83.59 378.722 84.118 380.069 84.9781 381.197C90.9528 391.577 99.1847 400.481 109.065 407.251C120.149 415.017 132.305 421.128 145.149 425.392C151.9 427.83 158.891 429.541 166.004 430.499C172.621 431.277 172.575 431.201 175.685 436.917C178.928 443.333 182.831 449.393 187.332 454.998C188.384 456.309 189.299 457.818 191.052 458.245ZM641.278 353.208L641.049 353.391C641.049 353.391 641.186 353.558 641.263 353.574C641.339 353.589 641.415 353.467 641.491 353.406L641.278 353.208Z" fill="#01509C"/>
<path d="M504.825 290.201C504.473 290.844 503.944 291.372 503.301 291.725C491.637 300.211 478.377 306.252 464.32 309.486C461.47 310.173 458.546 310.506 455.615 310.477C453.161 310.385 453.008 310.263 452.856 307.717C452.231 297.61 451.133 287.564 449.929 277.517C442.306 214.739 421.36 157.327 382.104 107.171C373.608 96.3169 365.173 85.422 356.798 74.4863C350.104 65.7737 344.389 56.3517 339.754 46.3901C339.18 45.1843 338.715 43.9292 338.367 42.6398C337.3 38.539 338.962 36.0388 343.184 35.3833C346.215 34.963 349.272 34.7643 352.331 34.7887C359.39 34.7887 366.478 34.7887 373.537 34.5906C379.675 34.4784 385.644 32.5646 390.703 29.0872C395.426 26.1644 398.86 21.5531 400.307 16.19C400.41 15.8367 400.558 15.4985 400.749 15.1839C400.749 15.0924 400.932 15.0314 401.206 14.818C404.011 17.9737 403.844 21.8611 403.783 25.4894C404.819 26.1602 405.551 25.5961 406.328 25.3064C411.623 23.2812 416.073 19.5188 418.951 14.6351C420.966 11.1517 422.763 7.54701 424.333 3.8417C424.76 2.4028 425.522 1.08603 426.558 0C428.663 7.26598 429.366 14.8658 428.632 22.3947C428.037 30.1641 424.946 37.533 419.82 43.4021C428.083 45.4906 435.065 43.4935 441.62 39.0116C441.788 49.1494 435.98 56.1925 423.327 61.3453C424.899 65.5659 427.963 69.0641 431.94 71.1782C436.224 73.343 440.66 72.7027 445.432 71.4221C445.228 74.4521 443.971 77.3157 441.879 79.5171C437.589 84.4131 431.902 87.8768 425.583 89.4415C422.811 90.1215 419.96 90.4291 417.107 90.3562C417.428 91.9503 418.238 93.4048 419.424 94.5181C428.239 104.892 439.68 112.706 452.551 117.141C458.542 119.215 464.594 118.422 470.464 116.257C477.023 113.557 483.179 109.966 488.757 105.586L491.928 103.269C492.14 103.708 492.238 104.194 492.214 104.681C492.19 105.168 492.045 105.642 491.791 106.058C490.243 110.588 487.638 114.683 484.191 118.005C480.745 121.327 476.556 123.78 471.973 125.16C466.119 126.869 460.078 127.857 453.984 128.102C452.81 128.209 451.651 128.27 449.502 128.407C455.813 133.103 460.829 137.813 462.277 145.085C463.152 148.127 463.035 151.368 461.942 154.339C461.073 154.125 461.027 153.302 460.737 152.662C459.746 150.573 458.832 148.439 457.688 146.396C456.686 144.434 455.32 142.681 453.664 141.228C452.276 140.039 450.691 138.408 448.892 139.231C447.52 139.856 447.688 141.975 447.596 143.53C447.432 146.527 447.889 149.526 448.938 152.338C449.988 155.151 451.607 157.716 453.694 159.873C459.864 166.564 468.038 171.074 476.988 172.724C486.193 174.946 495.868 174.144 504.582 170.437C504.911 170.291 505.253 170.174 505.603 170.087C505.694 170.087 505.816 170.193 506.121 170.376C505.091 172.275 503.562 173.856 501.7 174.95C496.395 178.639 490.312 179.767 484.032 180.087C476.249 180.308 468.47 179.519 460.89 177.74C459.929 177.541 458.984 177.328 458.024 177.191C457.451 177.192 456.879 177.248 456.316 177.359C459.67 180.974 463.763 183.825 468.316 185.719C472.869 187.613 477.777 188.505 482.705 188.335C492.782 188.137 501.609 184.219 509.826 178.731C510.649 179.828 509.826 180.56 509.582 181.231C506.615 187.747 501.287 192.896 494.672 195.637C490.062 197.58 485.184 198.819 480.205 199.311C478.663 199.284 477.139 199.64 475.769 200.348C481.735 202.148 487.598 204.276 493.331 206.72C503.031 210.753 512.078 216.204 520.177 222.895C524.314 226.349 527.843 230.472 530.62 235.091C530.987 235.714 531.313 236.361 531.595 237.027C531.672 237.195 531.504 237.469 531.367 237.972C522.22 230.472 512.28 224.389 500.709 221.553C496.67 220.592 492.528 220.126 488.376 220.166C493.529 227.102 500.054 232.941 499.749 242.485C497.92 242.042 497.218 240.67 496.243 239.71C492.532 235.801 487.913 232.868 482.797 231.173C473.345 228.368 464.396 233.185 461.911 242.5C460.716 246.905 461.211 251.597 463.299 255.656C465.413 259.802 468.564 263.331 472.445 265.901C476.302 268.476 480.52 270.464 484.961 271.8C486.274 272.017 487.517 272.539 488.59 273.325C486.815 273.898 484.938 274.08 483.086 273.858C474.667 273.478 466.371 271.69 458.542 268.568C457.243 267.901 455.85 267.433 454.411 267.181C454.197 266.876 453.938 266.754 453.71 267.181C453.71 267.257 453.892 267.486 453.999 267.654C456.286 281.694 468.04 293.25 481.912 294.942C487.008 295.38 492.135 294.64 496.898 292.777C499.414 291.908 501.837 290.78 504.307 289.728C504.465 289.901 504.639 290.06 504.825 290.201ZM456.316 177.069C456.316 176.993 456.194 176.871 456.133 176.855C456.072 176.84 455.966 176.947 455.89 177.008C455.813 177.069 456.011 177.206 456.088 177.206C456.164 177.206 456.24 177.115 456.316 177.069Z" fill="#01509C"/>
<path d="M301.606 31.2978L298.465 35.795C289.501 48.7836 281.604 62.3363 276.726 77.4439C273.982 85.416 272.806 93.8439 273.265 102.263C273.557 107.699 275.01 113.011 277.526 117.839C280.043 122.667 283.565 126.899 287.855 130.252L290.645 132.585C290.721 132.585 290.645 132.828 290.645 132.996C289.852 133.682 289.12 132.996 288.358 132.844C280.655 130.854 273.476 127.212 267.32 122.172C262.975 118.62 259.606 114.367 258.493 108.711C257.106 108.589 257.243 109.748 256.969 110.403C254.316 117.462 254.392 124.764 255.444 132.051C257.167 144.094 261.542 155.345 266.344 166.428C266.802 167.48 267.731 168.456 267.411 169.767C266.786 169.858 266.497 169.447 266.222 169.081C255.901 156.336 246.663 142.936 240.687 127.523C233.171 108.178 232.745 88.5422 238.233 68.6934C242.074 54.8053 250.855 45.0334 263.859 38.9659C273.243 34.833 283.279 32.377 293.511 31.7094C296.011 31.5569 298.435 31.4807 301.606 31.2978Z" fill="#0A4AA1"/>
<path d="M281.682 286.222C276.453 293.052 269.868 297.93 261.224 299.577C255.673 300.435 250.03 300.522 244.454 299.836C240.305 299.352 236.399 297.625 233.25 294.881C224.103 287.518 219.057 277.776 217.044 266.297C216.299 262.231 216.832 258.035 218.569 254.284C224.072 241.844 225.17 228.673 224.026 215.257C222.853 201.369 219.544 187.817 216.648 174.294C213.858 161.169 211.495 147.982 211.236 134.521C210.733 108.284 219.24 85.0206 234.698 64.0894C234.698 64.0894 234.896 63.9827 235.17 63.8302C235.612 64.7754 234.896 65.3547 234.561 65.9798C227.421 78.3723 222.605 91.9653 220.352 106.089C218.824 116.344 218.573 126.749 219.605 137.066C220.49 146.915 222.731 156.534 224.651 166.199C226.176 173.715 227.014 181.444 228.036 188.975C229.56 200.317 230.627 211.721 231.39 223.154C231.771 228.749 231.832 234.359 231.771 239.923C231.504 242.594 230.889 245.218 229.941 247.729C228.691 252.18 227.304 256.586 226.389 261.129C224.286 271.694 227.517 280.353 235.536 287.365C237.533 289.134 239.759 290.658 241.863 292.32C247.519 296.772 253.906 297.137 260.599 295.613C265.442 294.353 270.068 292.37 274.319 289.728C276.621 288.402 278.893 287.015 281.179 285.643L281.682 286.222Z" fill="#0A4AA1"/>
<path d="M325.452 3.09482C331.87 34.1028 329.05 63.373 308.942 89.9905C308.712 89.4747 308.593 88.9163 308.593 88.3516C308.593 87.7869 308.712 87.2286 308.942 86.7128C311.625 78.4806 314.385 70.2941 316.946 62.0314C318.748 56.7112 319.629 51.1226 319.553 45.506C319.56 43.5295 319.214 41.5677 318.531 39.713C318.18 39.7892 317.693 39.7129 317.525 39.9416C310.36 48.6769 304.17 57.9305 301.64 69.2117C300.009 76.4835 300.588 83.7401 301.518 91.0271C301.945 94.3657 302.859 97.6739 302.676 101.058C301.487 101.531 300.984 100.647 300.39 100.144C296.411 96.9009 292.937 93.0833 290.084 88.8166C287.718 85.3872 286.261 81.4131 285.85 77.2668C285.44 73.1205 286.089 68.9378 287.737 65.1109C290.191 59.3899 293.445 54.0466 297.402 49.241C301.289 44.2254 305.329 39.3318 309.201 34.3163C311.442 31.4197 313.592 28.4622 315.619 25.4133C320.264 18.6544 323.6 11.0839 325.452 3.09482Z" fill="#0A4AA1"/>
<path d="M310.011 101.287C320.758 106.927 328.625 114.626 333.472 125.191C337.852 134.911 339.436 145.659 338.046 156.229C336.201 173.049 329.38 188.935 318.456 201.857C314.838 206.23 310.601 210.051 305.879 213.199C305.498 211.461 306.565 210.608 307.129 209.632C315.035 196.278 319.965 181.375 321.581 165.94C323.019 150.982 321.496 135.886 317.099 121.517C315.436 116.042 313.487 110.659 311.261 105.388C310.552 104.127 310.125 102.728 310.011 101.287Z" fill="#0A4AA1"/>
<path d="M211.109 98.2836C210.606 98.2836 210.316 98.2835 210.149 98.1006C201.291 91.2252 193.547 83.3893 188.608 73.1448C184.221 64.1702 183.42 53.8614 186.367 44.3168C188.215 38.0387 191.117 32.1206 194.949 26.8157C194.949 28.8738 195.041 30.1391 194.949 31.3892C194.463 35.8434 195.179 40.3468 197.023 44.4302C198.868 48.5137 201.774 52.028 205.438 54.6071C210.877 58.5443 216.973 61.4816 223.442 63.2814C224.707 63.6625 225.942 64.0893 227.589 64.6077C221.064 75.5992 214.158 86.0267 211.109 98.2836Z" fill="#0A4AA1"/>
<path d="M240.4 302.885C245.614 303.144 249.913 304.561 254.349 305.11C259.29 305.896 264.33 305.819 269.244 304.882C272.363 304.237 275.287 302.872 277.784 300.894C280.28 298.917 282.279 296.382 283.62 293.494C286.388 287.89 287.728 281.69 287.522 275.444C287.126 260.992 292.37 248.293 299.017 235.944C301.881 230.601 305.18 225.502 308.88 220.7C309.49 222.056 308.667 222.758 308.301 223.489C303.328 233.124 299.432 243.277 296.684 253.766C296.148 256.016 295.928 258.33 296.029 260.641C296.395 270.779 296.379 280.871 293.956 290.811C293.123 294.37 291.875 297.819 290.236 301.086C284.748 311.757 275.509 316.33 263.634 314.379C254.977 312.765 246.936 308.786 240.4 302.885Z" fill="#0A4AA1"/>
<path d="M261.807 282.472C259.749 277.197 257.95 271.923 253.56 268.035C249.169 264.148 243.605 264.224 238.315 264.392C238.187 264.052 238.161 263.682 238.24 263.327C238.318 262.973 238.498 262.649 238.757 262.394C241.498 258.923 245.265 256.405 249.52 255.199C254.84 253.674 258.85 255.763 261.014 260.885C262.07 263.74 262.657 266.746 262.752 269.788C262.984 274.039 262.666 278.302 261.807 282.472Z" fill="#0A4AA1"/>
<path d="M284.411 140.436C284.624 148.866 275.965 153.028 269.623 151.808C268.022 151.503 267.779 150.406 267.809 149.125C267.794 145.923 268.9 142.817 270.934 140.344C273.512 137.37 276.974 135.297 280.813 134.429C282.246 134.048 283.176 134.429 283.572 135.954C284.093 137.392 284.376 138.906 284.411 140.436Z" fill="#0A4AA1"/>
<path d="M344.198 77.4744C344.061 77.886 343.862 77.9318 343.649 77.6421C343.436 77.3524 343.192 77.0933 343.176 76.7884C343.161 76.4835 343.42 76.4073 343.649 76.7122C343.878 77.0171 344.03 77.2457 344.198 77.4744Z" fill="white"/>
<path d="M470.626 325.767C471.202 325.142 471.925 324.67 472.729 324.395C497.869 312.002 522.039 297.733 545.036 281.71C561.927 270.134 578.31 257.892 594.185 244.985C605.131 236.051 615.843 226.849 626.321 217.376C636.993 207.711 647.466 197.863 657.344 187.405C671.173 173.132 683.951 157.878 695.579 141.762C695.99 141.183 696.295 140.497 697.377 140.237C698.085 142.129 698.442 144.133 698.429 146.152C699.575 155.951 699.693 165.843 698.78 175.667C697.65 187.183 695.026 198.503 690.975 209.342C685.421 223.807 677.806 237.394 668.366 249.68C662.711 257.167 656.521 264.233 649.844 270.825C639.275 281.32 627.904 290.974 615.833 299.699C593.636 315.767 569.732 328.893 545.005 340.54C533.648 345.891 522.046 350.662 510.354 355.19C506.725 356.592 506.497 356.577 506.985 360.327C508.128 369.322 507.64 378.347 507.564 387.356C507.319 394.644 506.663 401.912 505.597 409.126C504.302 419.624 502.265 430.016 499.499 440.226C494.926 457.483 488.691 474.13 478.964 489.238C473.324 497.988 466.769 506.007 458.049 511.922C456.829 512.761 455.731 514.072 453.887 514.026C454.067 512.92 454.602 511.904 455.411 511.129C463.567 500.629 470.535 489.258 476.19 477.225C482.666 463.432 487.103 448.77 489.361 433.701C490.246 427.603 490.383 421.596 490.977 415.559C491.648 408.806 490.977 402.159 490.535 395.528C489.791 384.971 487.962 374.519 485.078 364.337C481.729 351.736 477.085 339.516 471.22 327.871C470.795 327.255 470.586 326.515 470.626 325.767Z" fill="#00AAE7"/>
<path d="M254.978 513.492C254.111 513.484 253.28 513.14 252.661 512.532C247.603 508.148 242.889 503.382 238.559 498.278C222.583 478.795 213.497 456.187 208.192 431.81C205.94 421.243 204.306 410.554 203.298 399.796C202.048 387.036 202.399 374.231 202.521 361.44C202.521 360.708 202.521 359.916 202.521 359.245C202.734 357.355 201.911 356.455 200.112 355.8C194.014 353.589 188.053 351.226 182.077 348.787C165.703 342.116 149.739 334.481 134.269 325.92C119.415 317.786 105.151 308.616 91.5838 298.479C77.842 288.135 65.1299 276.49 53.6242 263.706C43.2037 252.25 34.2755 239.521 27.0524 225.822C20.1733 213.054 15.2404 199.329 12.4173 185.103C11.4569 180.088 11.0301 174.996 10.466 169.858C9.96735 163.558 10.049 157.225 10.7099 150.939C10.9212 146.659 11.6532 142.42 12.8899 138.317C15.329 141.579 17.4634 144.415 19.5214 147.174C28.9304 159.903 38.9742 172.15 49.6148 183.868C56.9933 191.994 64.3413 200.15 72.2838 207.696C84.2968 219.114 96.5384 230.243 109.329 240.792C129.911 257.613 151.464 273.21 173.876 287.503C187.088 296.03 200.559 304.109 214.29 311.742C221.638 315.812 229.031 319.822 236.395 323.938C238.758 325.249 238.849 325.462 237.69 327.947C232.373 339.311 228.146 351.153 225.068 363.315C222.659 372.861 220.932 382.566 219.9 392.357C219.247 400.47 219.033 408.612 219.259 416.749C219.47 429.42 221.346 442.008 224.839 454.19C230.506 474.168 239.893 492.896 252.508 509.391C253.438 510.642 254.871 511.556 255.222 513.218L254.978 513.492Z" fill="#00AAE7"/>
<path d="M217.714 481.951C215.778 481.661 214.543 480.243 213.141 479.039C203.994 470.837 197.683 460.623 193.124 449.281C187.926 436.338 184.968 422.816 182.651 409.111C182.082 405.757 181.538 402.403 181.02 399.049C180.958 398.199 180.601 397.397 180.011 396.782C179.421 396.167 178.635 395.777 177.788 395.68C164.829 392.822 152.128 388.901 139.813 383.957C120.333 376.484 102.092 366.113 85.7092 353.193C71.3152 341.846 59.1961 327.88 49.9905 312.031C44.3341 302.332 40.0017 291.919 37.1086 281.069C36.3921 278.371 35.7365 275.657 35.0962 272.928C34.6919 271.774 34.6919 270.516 35.0962 269.361C36.3616 269.514 36.9257 270.565 37.6422 271.312C56.2562 290.917 77.8886 306.604 101.259 320.005C118.488 329.862 136.342 338.585 154.707 346.119C165.851 350.692 177.087 355.083 188.505 358.94C189.445 359.113 190.295 359.608 190.91 360.34C191.524 361.071 191.865 361.994 191.874 362.949C191.874 364.291 192.057 365.617 192.072 366.959C192.072 373.422 191.935 379.902 192.271 386.35C192.804 396.534 193.429 406.717 194.878 416.84C196.966 431.796 200.994 446.417 206.86 460.333C209.533 466.617 212.683 472.687 216.281 478.49C217.012 479.459 217.531 480.57 217.806 481.752L217.714 481.951Z" fill="#00AAE7"/>
<path d="M191.053 458.245C189.3 457.803 188.385 456.294 187.318 455.043C182.817 449.438 178.913 443.379 175.671 436.963C172.622 431.246 172.622 431.322 165.99 430.545C158.877 429.587 151.886 427.875 145.135 425.438C132.29 421.174 120.135 415.063 109.051 407.297C99.1706 400.527 90.9387 391.623 84.9639 381.243C84.1038 380.114 83.5759 378.768 83.4395 377.356C84.6449 377.365 85.8052 377.815 86.7019 378.621C100.986 387.039 116.425 393.32 132.528 397.265C140.649 399.356 148.93 400.764 157.286 401.473C162.286 401.854 167.24 401.915 172.225 401.915C173.887 401.915 175.061 402.19 175.274 404.141C176.601 414.934 179.848 425.24 183.263 435.53C185.473 442.238 188.065 448.793 190.672 455.348C191.038 456.278 191.815 457.102 191.053 458.245Z" fill="#00AAE7"/>
<path d="M255.9 514.01C256.078 514.054 256.233 514.163 256.334 514.315C256.436 514.468 256.477 514.653 256.448 514.834C256.419 514.884 256.379 514.927 256.332 514.961C256.285 514.995 256.231 515.019 256.174 515.032C256.023 514.932 255.907 514.786 255.844 514.617C255.781 514.447 255.774 514.261 255.823 514.087L255.9 514.01Z" fill="white"/>
<path d="M255.323 513.218L255.979 514.011L255.903 514.087C255.72 514.073 255.544 514.011 255.394 513.906C255.244 513.802 255.125 513.659 255.049 513.492L255.323 513.218Z" fill="white"/>
<path d="M217.913 481.768L218.188 482.225L217.73 481.951L217.913 481.768Z" fill="white"/>
<path d="M454.028 267.578C453.921 267.41 453.693 267.181 453.738 267.105C453.967 266.739 454.226 266.861 454.44 267.105L454.028 267.578Z" fill="white"/>
<path d="M456.316 177.069C456.24 177.069 456.148 177.221 456.087 177.206C456.026 177.191 455.95 177.084 455.889 177.008C455.828 176.932 456.057 176.856 456.133 176.856C456.209 176.856 456.255 176.993 456.316 177.069Z" fill="white"/>
</g>
</svg>
