<svg width="298" height="83" viewBox="0 0 298 83" fill="none" xmlns="http://www.w3.org/2000/svg">
<g clip-path="url(#clip0_1031_2488)">
<path d="M66.9613 20.0154C77.2203 13.6459 86.4304 7.87729 95.6842 2.1961C97.5852 1.02709 99.3988 -0.884865 102.239 0.469879C103.102 3.43065 101.147 5.23333 99.5626 7.09064C84.908 24.4401 70.2317 41.775 55.5335 59.0953C50.5125 65.2191 45.1505 71.0553 39.4731 76.5759L41.396 53.9276C39.2109 55.5227 37.7032 56.4951 36.3157 57.5658C26.5593 65.1261 16.8359 72.7302 7.04674 80.2687C5.27683 81.6344 3.2228 84.1909 0.972178 81.973C-1.5188 79.5148 1.54031 77.6684 2.89505 76.1061C22.8885 53.2867 42.9183 30.5073 62.9845 7.76801C63.4652 7.22174 63.8913 6.44607 64.4922 6.22756C65.5847 5.84518 67.0815 5.30981 67.9009 5.75775C68.3461 6.13837 68.6948 6.61885 68.9189 7.15999C69.1429 7.70113 69.236 8.28759 69.1902 8.87148C68.8296 11.3734 67.9665 13.7879 67.3656 16.2679C67.1622 17.5087 67.0273 18.7598 66.9613 20.0154ZM43.2315 67.8684C44.0458 67.371 44.8104 66.7966 45.5149 66.1531C60.7157 47.6237 75.8947 29.0798 91.0518 10.5212C91.1174 10.4447 91.0518 10.1935 90.9862 10.0733C90.9206 9.9531 90.724 9.83291 90.3307 9.4833L59.9255 28.6901C61.018 23.0198 61.8373 18.3001 62.7114 13.5803L62.0121 13.2088L11.7555 71.2116L12.6405 72.1293L45.2964 47.5472L43.2315 67.8684Z" fill="#1C488E"/>
<path d="M265.3 40.9702C268.633 40.974 271.947 41.4748 275.133 42.456C282.933 44.8268 287.151 51.1199 286.965 59.3576C286.735 67.7919 282.387 73.8446 274.674 76.0187C268.524 77.7615 262.01 77.7615 255.86 76.0187C248.049 73.8337 243.624 67.7155 243.537 59.445C243.449 51.1745 247.557 44.9033 255.336 42.5325C258.56 41.5155 261.919 40.9888 265.3 40.9702ZM256.363 59.2046C256.363 65.891 259.105 69.0375 265.103 69.0375C271.101 69.0375 274.095 65.7599 274.04 58.7349C274.04 52.3217 270.861 48.9785 264.972 49.044C259.258 49.1424 256.374 52.5292 256.363 59.2046Z" fill="#1C488E"/>
<path d="M131.956 69.0155V76.27H92.7779C91.4232 72.0419 92.4611 69.0046 95.9135 66.2623C101.158 62.0998 106.085 57.5221 111.111 53.0973C112.28 52.0703 113.296 50.9122 115.142 49.0658H94.963V41.9644H130.754C132.197 45.7227 131.421 48.6288 128.078 51.3055C122.713 55.6101 117.633 60.2862 112.455 64.8202C111.264 65.9127 110.149 67.0052 107.964 69.0155H131.956Z" fill="#1C488E"/>
<path d="M237.778 51.6767C234.916 52.2994 232.807 52.7692 230.677 53.2063C228.547 53.6433 226.995 53.5558 225.389 51.6111C222.756 48.41 219.085 48.3335 215.458 49.7975C211.831 51.2615 210.848 54.1677 210.793 57.7184C210.793 58.4395 210.793 59.1715 210.793 59.9035C210.924 65.1149 212.366 67.6605 215.709 68.6438C220.374 70.0422 223.816 68.6438 226.7 64.2736C226.995 63.8257 227.367 63.4324 227.978 62.6676L238.368 65.246C236.522 71.6373 232.622 74.9914 226.984 76.4117C221.48 77.717 215.738 77.6231 210.279 76.1386C203.036 74.3359 198.141 67.8572 197.814 60.1329C197.442 51.5238 201.299 45.1761 208.815 42.6524C215.039 40.5139 221.778 40.3878 228.077 42.2918C232.622 43.5701 235.899 46.4762 237.778 51.6767Z" fill="#1C488E"/>
<path d="M161.291 41.833H173.844V67.9555H194.012V76.2697H161.236L161.291 41.833Z" fill="#1C488E"/>
<path d="M139.059 76.1062V41.8989H151.262V76.1062H139.059Z" fill="#1C488E"/>
<path d="M292.876 51.5242C291.518 51.5213 290.216 50.9805 289.256 50.0202C288.296 49.0599 287.755 47.7582 287.752 46.4002C287.755 45.0431 288.296 43.7426 289.257 42.784C290.217 41.8254 291.519 41.2871 292.876 41.2871C294.233 41.2871 295.535 41.8254 296.495 42.784C297.456 43.7426 297.997 45.0431 298 46.4002C297.997 47.7582 297.456 49.0599 296.496 50.0202C295.536 50.9805 294.234 51.5213 292.876 51.5242ZM292.876 42.3796C291.809 42.3796 290.785 42.8029 290.029 43.5566C289.273 44.3103 288.847 45.3329 288.844 46.4002C288.844 46.9296 288.949 47.4538 289.151 47.9429C289.354 48.4321 289.651 48.8765 290.025 49.2508C290.4 49.6252 290.844 49.9222 291.333 50.1248C291.822 50.3274 292.347 50.4316 292.876 50.4316C293.945 50.4316 294.971 50.0069 295.727 49.2508C296.483 48.4948 296.907 47.4694 296.907 46.4002C296.899 45.3366 296.47 44.3196 295.715 43.5707C294.96 42.8217 293.94 42.4014 292.876 42.4015V42.3796Z" fill="#1C488E"/>
<path d="M290.528 42.2919C291.184 42.1748 291.849 42.12 292.516 42.1281C293.34 42.0398 294.167 42.2748 294.821 42.7836C295.03 42.9764 295.194 43.2118 295.304 43.4739C295.413 43.7359 295.465 44.0184 295.455 44.3022C295.46 44.7603 295.315 45.2075 295.043 45.5761C294.771 45.9447 294.386 46.2147 293.947 46.3452C294.269 46.4873 294.547 46.7115 294.754 46.9954C294.961 47.2793 295.09 47.6128 295.127 47.9622C295.264 48.7076 295.469 49.439 295.739 50.1473H294.646C294.41 49.5277 294.231 48.8877 294.111 48.2353C293.882 47.1428 293.456 46.7167 292.516 46.673H291.544V50.1473H290.451L290.528 42.2919ZM291.62 45.941H292.713C293.805 45.941 294.515 45.3292 294.515 44.4224C294.515 43.5156 293.772 42.9365 292.68 42.9256C292.339 42.9162 291.998 42.9455 291.664 43.013L291.62 45.941Z" fill="#1C488E"/>
</g>
<defs>
<clipPath id="clip0_1031_2488">
<rect width="298" height="82.8797" fill="white"/>
</clipPath>
</defs>
</svg>
